<?xml version="1.0" standalone="no"?><!DOCTYPE svg PUBLIC "-//W3C//DTD SVG 1.1//EN" "http://www.w3.org/Graphics/SVG/1.1/DTD/svg11.dtd"><svg t="1605508799586" class="icon" viewBox="0 0 1024 1024" version="1.1" xmlns="http://www.w3.org/2000/svg" p-id="1838" xmlns:xlink="http://www.w3.org/1999/xlink" width="256" height="256"><defs><style type="text/css"></style></defs><path d="M945.789731 461.205127l-44.369533-70.538543c-10.626012-16.886599-23.833825-48.784076-28.26781-68.251454l-18.503423-81.242326c-7.600095-33.375132-38.510082-64.227814-71.894424-71.76651l-81.328283-18.3663c-19.441794-4.393054-51.27992-17.5804-68.13582-28.222785L562.788733 78.285994c-13.975293-8.819876-32.03767-13.676487-50.870598-13.676487-18.764366 0-36.773532 4.825912-50.706869 13.592576l-70.529333 44.360324c-16.901948 10.631128-48.798403 23.843034-68.255547 28.281113l-81.244372 18.497283c-33.361829 7.596002-64.228837 38.480406-71.814606 71.849398l-18.453281 81.265862c-4.429893 19.465331-17.635659 51.346435-28.259624 68.218708l-44.422745 70.526263c-18.234293 28.946262-18.248619 72.614831-0.028653 101.58156l44.37465 70.535473c10.631128 16.897855 23.836895 48.790216 28.269857 68.2535l18.497283 81.242326c7.592932 33.355689 38.47836 64.23293 71.846328 71.814606l81.257675 18.467607c19.457144 4.425799 51.338249 17.630542 68.233034 28.263717l70.529333 44.405349c13.954827 8.78713 32.001855 13.625322 50.807153 13.625322l0.005117 0c18.788925 0 36.814464-4.827959 50.766221-13.603833l70.530356-44.36851c16.899902-10.628058 48.798403-23.839965 68.264756-28.272927l81.237209-18.502399c33.357735-7.591909 64.237023-38.47836 71.828932-71.828932l18.491143-81.246419c4.432962-19.463284 17.640776-51.354622 28.265764-68.24429l44.38386-70.540589C964.006628 533.825075 964.006628 490.162646 945.789731 461.205127zM711.115943 709.934025 312.884057 709.934025l0-77.992305L472.4134 631.94172 472.4134 392.057257 312.884057 392.057257l0-77.992305L472.4134 314.064952l159.529343 0 0 77.992305 0 239.884462 79.174224 0L711.116967 709.934025z" p-id="1839"></path></svg>