<?xml version="1.0" standalone="no"?><!DOCTYPE svg PUBLIC "-//W3C//DTD SVG 1.1//EN" "http://www.w3.org/Graphics/SVG/1.1/DTD/svg11.dtd"><svg t="1605508804630" class="icon" viewBox="0 0 1024 1024" version="1.1" xmlns="http://www.w3.org/2000/svg" p-id="1983" xmlns:xlink="http://www.w3.org/1999/xlink" width="256" height="256"><defs><style type="text/css"></style></defs><path d="M947.735036 460.977953l-44.568055-70.854744c-10.673084-16.962324-23.940249-49.003064-28.3947-68.557422l-18.58631-81.606623c-7.633864-33.524534-38.683021-64.515363-72.216765-72.087828l-81.693604-18.449187c-19.528775-4.41352-51.510164-17.659195-68.441788-28.349675L563.016931 76.340689c-14.038738-8.858762-32.180933-13.737886-51.098795-13.737886-18.848277 0-36.938284 4.848425-50.935066 13.653975l-70.845535 44.558845c-16.977673 10.6782-49.01739 23.949458-68.561515 28.40698l-81.608669 18.580171c-33.511231 7.629771-64.517409 38.652322-72.135924 72.17174l-18.535145 81.630159c-4.450359 19.552312-17.714454 51.576679-28.386514 68.524676l-44.62229 70.842465c-18.316158 29.076222-18.330484 72.940243-0.028653 102.036931l44.573171 70.851675c10.6782 16.97358 23.944342 49.009204 28.396747 68.559469l18.580171 81.606623c7.627724 33.505092 38.651298 64.520479 72.167646 72.135924l81.621972 18.550495c19.544125 4.446265 51.568493 17.709337 68.539003 28.390607l70.845535 44.604894c14.017248 8.826016 32.145118 13.68672 51.034327 13.68672l0.005117 0c18.872836 0 36.979216-4.849448 50.993394-13.665231l70.846558-44.567032c16.975627-10.676154 49.01739-23.946388 68.570725-28.399817l81.601506-18.585287c33.508161-7.625678 64.524572-38.651298 72.151273-72.151273l18.574031-81.610716c4.452405-19.550265 17.71957-51.584865 28.392654-68.550259l44.582381-70.856791C966.032774 533.923312 966.032774 490.064408 947.735036 460.977953zM712.00929 479.851812l0 52.624545 0 25.717731L472.235344 558.194088l0 74.28589 239.772922 0L712.008266 710.822255 311.99071 710.822255l0-66.471924 0-11.870352 0-74.28589 0-64.887846L311.99071 479.851812l239.772922 0L551.763632 391.520021 311.99071 391.520021l0-78.342276 239.772922 0 80.716346 0 79.528288 0L712.008266 479.851812z" p-id="1984"></path></svg>