<?xml version="1.0" standalone="no"?><!DOCTYPE svg PUBLIC "-//W3C//DTD SVG 1.1//EN" "http://www.w3.org/Graphics/SVG/1.1/DTD/svg11.dtd"><svg t="1605508808431" class="icon" viewBox="0 0 1024 1024" version="1.1" xmlns="http://www.w3.org/2000/svg" p-id="2128" xmlns:xlink="http://www.w3.org/1999/xlink" width="256" height="256"><defs><style type="text/css"></style></defs><path d="M946.099792 461.169311l-44.401256-70.588685c-10.633175-16.898879-23.850198-48.818869-28.288277-68.300572l-18.516726-81.299631c-7.605212-33.398668-38.537711-64.273862-71.945589-71.817676l-81.386612-18.379603c-19.455097-4.397147-51.316759-17.59268-68.184939-28.243251l-70.551846-44.564985c-13.985526-8.826016-32.060183-13.685697-50.907437-13.685697-18.777669 0-36.800138 4.830005-50.743708 13.601786l-70.579475 44.392046c-16.914228 10.638291-48.833195 23.859407-68.303642 28.300556l-81.302701 18.510586c-33.385365 7.601118-64.274886 38.507012-71.865771 71.900563l-18.46556 81.32419c-4.432962 19.478633-17.647939 51.383274-28.28009 68.267826l-44.454468 70.576405c-18.247596 28.966729-18.261922 72.665996-0.028653 101.654214l44.406372 70.585615c10.638291 16.910135 23.854291 48.825009 28.290323 68.302619l18.510586 81.300654c7.599072 33.379225 38.505989 64.278979 71.897493 71.865771l81.316004 18.479887c19.470447 4.428869 51.375088 17.642822 68.282153 28.284183l70.579475 44.438095c13.96506 8.79327 32.025391 13.634532 50.842968 13.634532l0.005117 0c18.802228 0 36.840046-4.831029 50.802036-13.614066l70.580498-44.400233c16.911158-10.635221 48.833195-23.857361 68.312852-28.293393l81.294514-18.515702c33.382295-7.597025 64.283072-38.505989 71.880097-71.880097l18.504446-81.304747c4.436032-19.47761 17.653055-51.391461 28.28623-68.293409l44.415582-70.590731C964.328969 533.841447 964.328969 490.146273 946.099792 461.169311zM711.258183 478.553237l0 78.047564L711.258183 632.027677l0 47.010687 0 31.036877-398.516366 0L312.741817 632.027677l238.873436 0 0-75.426877L312.741817 556.600801l0-78.047564 238.873436 0 0-86.581937L312.741817 391.971299l0-78.047564 238.873436 0 80.413448 0 79.230506 0L711.259206 478.553237z" p-id="2129"></path></svg>