<?xml version="1.0" standalone="no"?><!DOCTYPE svg PUBLIC "-//W3C//DTD SVG 1.1//EN" "http://www.w3.org/Graphics/SVG/1.1/DTD/svg11.dtd"><svg t="1603877443740" class="icon" viewBox="0 0 1024 1024" version="1.1" xmlns="http://www.w3.org/2000/svg" p-id="1895" xmlns:xlink="http://www.w3.org/1999/xlink" width="200" height="200"><defs><style type="text/css"></style></defs><path d="M587.9807 672.415017c0 0-75.962726 60.797941-103.602239 76.727606-24.297408 13.9945-47.098009 23.293878-67.394278 29.760406-20.332216 6.448554-38.145123 10.505611-53.436724 12.186149s-27.951056 2.739986-37.998338 3.232265c-0.950608 0.45733-2.155842 0.711957-3.580755 0.711957l-11.474192 0c-26.288491 0-51.024257-3.104452-74.208296-9.334327-23.201014-6.211901-43.388443-15.418414-60.597235-27.604564-17.208792-12.185151-30.838826-27.494725-40.867136-45.891776-10.029309-18.415025-15.05295-39.808686-15.05295-64.177989 0.475304-21.028197 6.210902-40.156177 17.190818-57.363971 11.015863-17.208792 25.229043-31.788435 42.676486-43.753907s36.811078-21.028197 58.0949-27.257073c21.265849-6.210902 42.657513-8.824074 64.178988-7.873467 21.028197 0.949609 41.34244 3.452942 60.945724 7.509 19.602286 4.073034 38.382775 8.969861 56.287548 14.707456 17.921747 5.736597 34.892887 11.9465 50.915417 18.651678 16.020532 6.704179 31.185318 13.153732 45.525313 19.365632 5.735598 2.392495 11.709847 4.787986 17.920749 7.179483 6.211901 2.392495 12.661453 4.786988 19.366631 7.179483 13.865689-17.684096 25.557562-35.003725 35.129541-51.992839 9.555003-16.972138 17.447442-32.499393 23.659343-46.603733 6.229874-14.104339 11.014865-25.923027 14.359965-35.496004 3.343103-9.555003 5.479973-16.241209 6.448554-20.077589L321.237437 432.198896l0-34.418582 147.010652 0 0-79.57843L263.873467 318.201884l0-34.418582 204.373625 0 0-64.544452c0-4.292712 2.374522-7.764626 7.16151-10.394773 4.785989-2.631146 10.285933-4.421523 16.496835-5.371132 7.179483-1.442886 15.2916-2.154843 24.370301-2.154843l55.208129 0 0 82.465201 210.092248 0 0 34.418582-210.092248 0 0 79.57843 166.959431 0c0.035947-0.236653 0.072893-0.475304 0.108841-0.710959l0 0.710959-0.108841 0c-3.380049 21.301796-9.060727 43.771881-17.098953 67.412252-6.686206 20.552893-16.605675 43.973586-29.761404 70.262077-13.152733 26.288491-30.472363 53.307912-51.99184 81.040289 0 0 164.565937 78.721685 338.283468 106.435089 28.846744-63.977283 44.922196-134.989262 44.922196-209.726783C1022.797761 231.112456 794.089783 2.422451 512 2.422451 229.892244 2.422451 1.202239 231.112456 1.202239 513.20124 1.202239 795.291023 229.892244 1024 512 1024c174.978684 0 329.406471-88.002091 421.462623-222.150584C839.926639 781.46228 740.561194 740.192733 587.9807 672.415017L587.9807 672.415017 587.9807 672.415017zM186.430908 649.469628c-1.91819 87.653601 97.244552 94.157075 112.536152 94.632378 50.549952 1.551727 91.363167-17.539308 123.13263-36.410664 31.787436-18.890329 83.634489-67.649903 85.570652-69.33144 1.900216-1.680538 3.818407-3.452942 5.718623-5.371132-13.865689-7.654787-27.493726-14.707456-40.867136-21.15601-13.372412-6.448554-81.386781-42.987031-141.730387-49.215906C216.520831 550.761221 187.016051 622.814674 186.430908 649.469628L186.430908 649.469628 186.430908 649.469628z" p-id="1896" fill="#1296db"></path></svg>