<?xml version="1.0" standalone="no"?><!DOCTYPE svg PUBLIC "-//W3C//DTD SVG 1.1//EN" "http://www.w3.org/Graphics/SVG/1.1/DTD/svg11.dtd"><svg t="1585278970598" class="icon" viewBox="0 0 1024 1024" version="1.1" xmlns="http://www.w3.org/2000/svg" p-id="6378" xmlns:xlink="http://www.w3.org/1999/xlink" width="200" height="200"><defs><style type="text/css"></style></defs><path d="M916.608 148.992l-42.176-0.704a606.272 606.272 0 0 1-193.28-41.728c-100.288-40.832-164.864-87.552-165.44-88.064L490.24 0l-25.28 18.56c-0.576 0.448-65.152 47.168-165.376 88a605.888 605.888 0 0 1-193.28 41.728l-42.304 0.64v430.464C64 795.456 341.376 1024 490.432 1024c149.184 0 426.432-228.48 426.432-444.608l-0.256-430.4zM442.752 699.648L261.76 545.28l55.68-65.6 116.16 98.88 220.416-254.4 65.088 56.576-276.352 318.848z" p-id="6379"></path></svg>