<svg version="1.1" xmlns="http://www.w3.org/2000/svg" xmlns:xlink="http://www.w3.org/1999/xlink" x="0px" y="0px"
	 viewBox="0 0 32 32" style="enable-background:new 0 0 32 32;" xml:space="preserve">
<g>
	<path d="M2,1.8C3.8,2,5.3,2.1,6.9,2.2c0.5,0.1,0.9,0.3,1.2,0.7c2.5,2.7,5.1,5.5,7.5,8.2c0.2,0.3,0.4,0.3,0.6,0
		c2.5-2.7,5.1-5.4,7.5-8.1c0.3-0.4,0.8-0.7,1.2-0.7c1.6-0.1,3.2-0.3,4.9-0.4c0.3,0,0.3,0.1,0.3,0.3c-0.2,1.5-0.3,3-0.5,4.6
		c-0.1,0.5-0.3,0.9-0.7,1.3c-2.9,2.5-5.8,5-8.7,7.5c-0.2,0.2-0.3,0.3,0,0.6c0.7,0.7,1.3,1.4,2,2.2c0.2,0.2,0.2,0.3,0,0.5
		c-1,1-2.1,2-3.1,3c-0.1-0.2-0.3-0.1-0.4-0.2l-0.1-0.1c-0.9-0.8-1.7-1.4-2.6-2.2c-0.2-0.2-0.3-0.1-0.5,0c-0.9,0.8-1.7,1.4-2.5,2.2
		c-0.2,0.2-0.4,0.2-0.6,0c-1-0.9-2-2-3.1-2.9c-0.2-0.2-0.2-0.3,0-0.4c0.7-0.8,1.3-1.5,2.1-2.2c0.2-0.2,0.2-0.3,0-0.5
		c-3-2.5-5.8-5-8.7-7.5C2.6,7.8,2.3,7.3,2.2,6.7C2.1,5.2,2,3.7,1.9,2.2C1.8,1.8,1.9,1.7,2,1.8L2,1.8z M12.6,26.6
		c-0.4,0-0.7-0.2-1-0.4c-0.6-0.6-1.1-1-1.6-1.6c-0.2-0.2-0.3-0.2-0.4,0C8.4,25.8,7.2,27,6,28.2c-0.1,0.2-0.2,0.2,0,0.4
		c0.2,0.2,0.4,0.3,0.5,0.5c0.3,0.2,0.3,0.7,0,0.9L6.3,30c-0.2,0.3-0.7,0.3-1,0.1c0,0-0.1,0-0.1-0.1c-1.4-1.4-3-2.8-4.4-4.3
		c-0.3-0.2-0.3-0.6-0.1-0.9l0.1-0.1c0.3-0.3,0.7-0.3,1-0.1C2,25,2.2,25.1,2.5,25.3C2.8,25.2,3,25,3.2,24.7c1-1,2.1-2.1,3.2-3.1
		c0.2-0.2,0.2-0.3,0-0.5c-0.6-0.5-1.1-1-1.6-1.6c-0.5-0.5-0.6-1.2-0.2-1.7l0.2-0.2l0.3-0.3c0.5-0.6,1.3-0.6,1.8-0.1
		C7,17.2,7,17.3,7,17.3c2.3,2.2,4.5,4.4,6.7,6.4c0.6,0.4,0.7,1.1,0.2,1.7c-0.1,0.1-0.1,0.2-0.2,0.2C13.6,26.3,13.1,26.6,12.6,26.6z
		 M27.5,18.7c0,0.4-0.2,0.7-0.4,0.9c-0.6,0.6-1.1,1-1.6,1.6c-0.2,0.2-0.2,0.3,0,0.4c1.2,1.2,2.5,2.4,3.7,3.6c0.2,0.2,0.3,0.2,0.4,0
		l0.5-0.5c0.3-0.3,0.7-0.3,1,0c0.3,0.2,0.4,0.6,0.2,0.9l-0.1,0.1c-1.4,1.4-3,2.8-4.4,4.3c-0.3,0.3-0.7,0.3-1,0v-0.1
		c-0.3-0.2-0.3-0.6-0.1-0.9l0.1-0.1l0.1-0.1c0.6-0.6,0.6-0.6,0-1.1c-1-1-2.2-2.1-3.2-3.1c-0.2-0.2-0.4-0.2-0.6,0L20.6,26
		c-0.5,0.6-1.2,0.8-1.9,0.3L18.4,26l-0.2-0.2c-0.6-0.4-0.7-1.1-0.2-1.7l0.2-0.2c1.6-1.6,3.2-3.1,4.9-4.6c0.7-0.6,1.2-1.2,1.9-1.8
		c0.5-0.6,1.3-0.6,1.8-0.1l0.1,0.1C27.2,17.8,27.5,18.2,27.5,18.7z"/>
</g>
</svg>