<?xml version="1.0" standalone="no"?><!DOCTYPE svg PUBLIC "-//W3C//DTD SVG 1.1//EN" "http://www.w3.org/Graphics/SVG/1.1/DTD/svg11.dtd"><svg t="1585287034947" class="icon" viewBox="0 0 1024 1024" version="1.1" xmlns="http://www.w3.org/2000/svg" p-id="22047" xmlns:xlink="http://www.w3.org/1999/xlink" width="200" height="200"><defs><style type="text/css"></style></defs><path d="M898.93 542.75c16.21 0 29.07-12.86 29.07-29.07v-239.8c0-80.49-65.4-145.89-147.01-145.89H247.16c-81.05 0-146.45 65.4-146.45 145.89v479.6c0 80.49 65.4 145.89 146.45 145.33h318.62c16.21 0 29.07-12.86 29.07-29.07 0-3.91-0.56-7.27-2.24-10.62 6.15-67.07 65.96-119.62 138.63-119.62 76.58 0 139.19 58.69 139.19 130.8 0 15.65 12.3 27.95 27.95 27.95 15.65 0 27.95-12.3 27.95-27.95 0-76.58-49.19-143.1-118.5-171.61 22.36-20.12 36.33-48.08 36.33-79.38 0-60.93-51.43-110.12-115.15-110.12-63.72 0-115.7 49.19-115.15 109.56 0 32.42 14.53 60.93 37.45 81.05-58.69 25.15-102.29 77.7-112.91 140.86H246.6c-48.63 0-87.76-39.13-87.76-87.76V364.44H869.3v149.25c0.56 16.21 13.42 29.06 29.63 29.06zM729 565.11c32.42 0 59.25 24.04 59.25 54.22s-26.83 54.22-59.25 54.22-59.25-24.04-59.25-54.22 26.27-54.22 59.25-54.22zM159.4 306.3v-32.42c0-48.63 39.13-87.76 87.76-87.76h68.19v62.05c0 15.65 12.3 27.95 27.95 27.95 15.1 0 27.95-12.3 27.95-27.95v-62.05h280.61v62.05c0 15.65 12.3 27.95 27.95 27.95 15.65 0 27.95-12.3 27.95-27.95v-62.05h74.34c48.63 0 87.76 39.13 87.76 87.76v32.42H159.4z" p-id="22048"></path><path d="M237.66 716.04h1.68c36.33-9.5 65.4-22.92 87.2-40.25 7.82-6.71 8.94-15.65 3.35-24.04l-0.55-1.12c-7.27-7.26-16.21-7.82-24.6-1.12-0.56 0.56-2.79 1.67-8.94 5.03-1.12 0.56-2.24 1.68-3.35 2.24V592.5h16.21c3.35 0 10.06-1.12 13.42-8.38-1.68 11.74-3.35 22.36-5.59 32.42-1.68 6.71-1.12 11.74 1.11 15.65 2.24 3.35 5.59 5.59 10.62 6.71h0.56c10.06 1.12 17.89-3.91 21.8-13.98l0.56-1.11c4.47-19.01 7.83-41.93 10.06-68.2 1.67-25.71 3.35-52.54 3.91-81.05v-1.12c-1.12-9.5-7.83-14.53-17.89-14.53h-0.56c-8.94 1.12-14.53 5.59-15.65 12.86v-0.56c-1.67-12.86-9.5-16.21-14.53-16.77h-75.47c-10.06 1.12-15.65 7.27-15.65 17.33 0 10.06 6.71 16.21 16.77 16.21h16.21v70.99h-14.53c-10.06 1.12-15.65 7.27-15.65 17.33 0 10.06 6.71 16.21 16.77 16.21h13.98v82.73c-3.91 1.68-11.18 4.47-24.6 7.27h-1.12c-13.42 5.03-15.65 13.42-14.53 19v1.12c3.35 8.93 10.05 13.41 19 13.41z m56.45-228.63h22.36c3.91 0 12.86-1.12 15.09-13.98v1.68c-1.12 32.42-2.79 59.25-5.03 80.49l-1.68 16.77c-2.23-10.06-9.5-12.86-13.98-13.42H294.1v-71.54z" p-id="22049"></path><path d="M406.47 693.12c-10.62 0-16.77 6.15-16.77 17.32 0 10.62 5.59 17.33 15.65 18.45H508.2c5.03-0.56 13.98-3.91 15.65-17.89v-1.11c-1.12-15.1-11.74-16.77-16.21-16.77H476.9V604.8h18.44c3.91 0 14.54-1.67 16.21-16.77v-1.12c-1.11-9.5-6.71-15.65-15.65-16.77h-19.56v-79.93h27.39c3.91 0 13.42-1.67 15.09-15.65v-1.12c-1.67-12.86-9.5-16.21-14.53-16.77h-83.85c-7.27 1.12-12.86 3.91-15.65 8.95-1.68-8.95-7.27-14.54-17.33-15.66h-1.12c-15.65 1.68-17.32 11.74-17.32 16.21v143.1c0.55 49.75-19.56 79.38-62.61 90.56-11.74 2.79-17.33 11.18-15.1 21.8l0.56 1.67c3.91 8.39 10.06 12.3 18.44 12.3 2.24 0 5.03-0.56 7.83-1.12 61.49-20.68 90.56-63.17 86.08-126.33v-11.74c2.24 5.59 7.83 8.94 15.09 8.94h22.92v87.76h-35.76z m34.1-122.42h-21.8c-7.27 0.56-12.3 3.91-14.54 9.5v-97.26c2.79 5.03 8.38 7.27 16.21 7.27h20.12v80.49z" p-id="22050"></path></svg>