<?xml version="1.0" standalone="no"?><!DOCTYPE svg PUBLIC "-//W3C//DTD SVG 1.1//EN" "http://www.w3.org/Graphics/SVG/1.1/DTD/svg11.dtd"><svg t="1585296686115" class="icon" viewBox="0 0 1024 1024" version="1.1" xmlns="http://www.w3.org/2000/svg" p-id="4357" xmlns:xlink="http://www.w3.org/1999/xlink" width="200" height="200"><defs><style type="text/css"></style></defs><path d="M583.799256 471.871047c-9.457396 9.914814-19.696598 19.051915-30.614252 27.327392 29.357632 18.953677 63.572898 29.005614 98.514711 28.941146 109.982904-5.200442 194.929598-98.574063 189.726086-208.55799-4.857635-102.704127-87.018889-184.870498-189.726086-189.726086-16.163121-0.017396-32.264844 2.115174-47.864124 6.344498 75.210959 102.06149 66.778916 243.279792-20.036335 335.668992l0 0L583.799256 471.871047zM838.7079 571.498092 718.485795 571.498092c9.701966 7.945973 18.479887 16.96437 26.157753 26.882254 24.703635 30.807656 38.930661 68.690452 40.628326 108.141976l0 157.343561c0.190335 18.517749-3.804652 36.839023-11.686157 53.598732l104.636129 0c44.562938-0.908696 79.945797-37.770232 79.042217-82.33317-0.007163-0.069585-0.007163-0.13917-0.007163-0.208754L957.2569 695.779653c-1.820462-65.660442-53.042053-119.287827-118.550023-124.116809l0 0L838.706877 571.498092zM197.533912 291.986097c0.020466 29.469172 5.496178 58.680471 16.142655 86.158289 10.829649 27.091008 26.693965 51.886741 46.750767 73.077366 19.709901 20.7373 43.366693 37.332257 69.571519 48.812729 25.994024 11.290137 54.033637 17.125029 82.372056 17.143449 28.161387-0.01842 56.017828-5.854335 81.814354-17.143449 26.381857-11.463076 50.215682-28.055986 70.12922-48.812729 19.885909-21.214161 35.55989-46.012963 46.193065-73.077366 21.578458-55.488779 21.578458-117.048833 0-172.538635-10.633175-27.047006-26.307156-51.828412-46.193065-73.022107-19.913539-20.75572-43.747363-37.347606-70.12922-48.811706-25.797549-11.288091-53.652967-17.125029-81.814354-17.142425-28.338419 0.017396-56.378032 5.852288-82.372056 17.142425-26.204825 11.480472-49.861618 28.075429-69.571519 48.811706-20.055778 21.169135-35.920094 45.947472-46.750767 73.022107-10.639315 27.480888-16.108886 56.689117-16.142655 86.158289l0 0L197.533912 291.986097zM623.870904 566.210669 200.319351 566.210669c-73.579809 6.306636-130.895189 66.51081-133.579321 140.311653l0 157.343561c-1.12052 50.368154 38.686091 92.167143 89.050152 93.503581l512.601704 0c50.303686-1.12052 90.177835-42.810015 89.057315-93.116771 0-0.128937 0-0.257873-0.007163-0.38681l0-157.343561c-2.031263-74.073042-59.69252-134.64049-133.579321-140.311653l0 0L623.870904 566.210669z" p-id="4358"></path></svg>