<?xml version="1.0" standalone="no"?><!DOCTYPE svg PUBLIC "-//W3C//DTD SVG 1.1//EN" "http://www.w3.org/Graphics/SVG/1.1/DTD/svg11.dtd"><svg t="1585188775185" class="icon" viewBox="0 0 1039 1024" version="1.1" xmlns="http://www.w3.org/2000/svg" p-id="2585" xmlns:xlink="http://www.w3.org/1999/xlink" width="202.9296875" height="200"><defs><style type="text/css"></style></defs><path d="M511.682 651.086c-58.335 0-105.78-47.494-105.78-105.877 0-15.618 3.35-30.695 9.905-44.786l55.18 25.817a44.95 44.95 0 0 0-4.189 18.969c0 24.78 20.152 44.932 44.884 44.932 24.733 0 44.835-20.15 44.835-44.932 0-6.257-1.233-12.367-3.744-18.032l55.722-24.586c5.961 13.499 8.966 27.836 8.966 42.618 0 58.383-47.446 105.877-105.78 105.877zM407.479 544.468C216.316 601.325 81.96 773.518 73.142 972.908c-0.837 19.658-17.045 34.981-36.458 34.981-0.542 0-1.084-0.05-1.674-0.05-20.152-0.886-35.77-17.982-34.884-38.134 10.15-230.577 165.493-429.621 386.512-495.346 19.362-5.765 39.71 5.272 45.425 24.634 5.766 19.363-5.271 39.711-24.584 45.475z m580.827 463.371c-0.542 0-1.084 0.05-1.625 0.05-19.461 0-35.62-15.372-36.46-34.98-8.77-198.997-142.779-371.042-333.45-428.193-19.313-5.765-30.3-26.161-24.486-45.524 5.765-19.313 26.161-30.301 45.475-24.536 220.427 66.069 375.329 265.015 385.477 495.05 0.888 20.15-14.73 37.247-34.93 38.133zM511.682 563.24c-150.565 0-273.046-122.58-273.046-273.294 0-150.663 122.482-273.243 273.046-273.243 150.566 0 273.047 122.58 273.047 273.243 0 150.714-122.482 273.294-273.047 273.294z m0-473.372c-110.263 0-199.98 89.768-199.98 200.078 0 110.361 89.717 200.13 199.98 200.13 110.264 0 199.981-89.769 199.981-200.13 0-110.31-89.717-200.078-199.981-200.078z m113.466 746.96L543.214 947.19c-7.39 9.952-19.166 15.865-31.532 15.865-12.367 0-24.19-5.913-31.58-15.865l-81.885-110.31c-7.242-9.756-9.607-22.517-6.306-34.193l59.762-210.771h121.644l58.187 211.017c3.251 11.775 0.936 24.141-6.356 33.896zM526.955 652.91H497.69l-44.242 156.132 58.234 78.436 58.284-78.534-43.01-156.034z" p-id="2586" fill="#bfbfbf"></path></svg>