<svg version="1.1" xmlns="http://www.w3.org/2000/svg" xmlns:xlink="http://www.w3.org/1999/xlink" x="0px" y="0px"
	 viewBox="0 0 32 32" style="enable-background:new 0 0 32 32;" xml:space="preserve">
	<g>
		<path d="M28.6,2.7H3.4c-1.1,0-1.9,0.8-1.9,1.9v17.5c0,1,0.9,1.9,1.9,1.9h9.2v4H4.9c-0.4,0-0.7,0.3-0.7,0.7c0,0.4,0.3,0.7,0.7,0.7
			h22.3c0.4,0,0.7-0.3,0.7-0.7c0-0.4-0.3-0.7-0.7-0.7h-7.7v-4h9.2c1.1,0,1.9-0.8,1.9-1.9V4.6C30.5,3.5,29.7,2.7,28.6,2.7z M18.1,28
			h-4.1v-4h4.1V28z M29.1,22.1c0,0.3-0.2,0.5-0.5,0.5H3.4c-0.3,0-0.5-0.2-0.5-0.5v-2.9h26.3V22.1z M29.1,17.9H2.9V4.6
			C2.9,4.3,3.1,4,3.4,4h25.2c0.3,0,0.5,0.2,0.5,0.5V17.9z M16,21.6c0.4,0,0.7-0.3,0.7-0.7c0-0.4-0.3-0.7-0.7-0.7
			c-0.4,0-0.7,0.3-0.7,0.7C15.3,21.3,15.6,21.6,16,21.6z M6.2,10.1C6.1,10,5.9,9.9,5.8,9.9c-0.1,0-0.3,0.1-0.4,0.2
			c-0.2,0.2-0.2,0.5,0,0.8l4.1,3.9c0.1,0.1,0.2,0.2,0.4,0.2c0.1,0,0.3-0.1,0.4-0.2c0.2-0.2,0.2-0.5,0-0.8L6.2,10.1z M6.2,13
			c-0.1-0.1-0.2-0.2-0.4-0.2c-0.1,0-0.3,0.1-0.4,0.2c-0.2,0.2-0.2,0.5,0,0.8l1.2,1.1c0.1,0.1,0.2,0.2,0.4,0.2c0.1,0,0.3-0.1,0.4-0.2
			c0.2-0.2,0.2-0.5,0-0.8L6.2,13z M6.9,7.1C6.8,7,6.7,7,6.5,7C6.4,7,6.2,7,6.1,7.1c-0.2,0.2-0.2,0.5,0,0.7l6.3,6.2
			c0.1,0.1,0.2,0.2,0.4,0.2c0.1,0,0.3-0.1,0.4-0.2c0.2-0.2,0.2-0.5,0-0.8L6.9,7.1z M24.9,6.2c-0.4,0-0.7,0.3-0.7,0.7
			c0,0.4,0.3,0.7,0.7,0.7c0.4,0,0.7-0.3,0.7-0.7C25.6,6.5,25.3,6.2,24.9,6.2z"/>
	</g>
</svg>
