<svg version="1.1" xmlns="http://www.w3.org/2000/svg" xmlns:xlink="http://www.w3.org/1999/xlink" x="0px" y="0px"
	 viewBox="0 0 32 32" style="enable-background:new 0 0 32 32;" xml:space="preserve">
	<g>
		<path d="M17.8,18.3l-1.5-3.2c-0.1-0.3-0.4-0.4-0.7-0.4c-0.3,0-0.6,0.2-0.7,0.4l-1.6,3.2l-3.5,0.5c-0.3,0-0.5,0.2-0.6,0.5
			c-0.1,0.3,0,0.6,0.2,0.8l2.5,2.5l-0.6,3.5c-0.1,0.3,0.1,0.6,0.3,0.8c0.2,0.2,0.6,0.2,0.8,0.1l3.2-1.6l3.1,1.7
			c0.1,0.1,0.3,0.1,0.4,0.1c0.2,0,0.3-0.1,0.4-0.2c0.2-0.2,0.4-0.5,0.3-0.8l-0.5-3.5l2.6-2.5c0.2-0.2,0.3-0.5,0.2-0.8
			c-0.1-0.3-0.3-0.5-0.6-0.5L17.8,18.3z M17.8,21.8c-0.2,0.2-0.3,0.4-0.2,0.7l0.4,2.4l-2.1-1.2c-0.1-0.1-0.3-0.1-0.4-0.1
			s-0.2,0-0.4,0.1L13,24.8l0.4-2.4c0.1-0.2,0-0.5-0.2-0.7L11.5,20l2.4-0.3c0.3,0,0.5-0.2,0.6-0.4l1.1-2.1l1,2.2
			c0.1,0.2,0.3,0.4,0.6,0.4l2.4,0.4L17.8,21.8z M27.8,0.3H4.2c-0.5,0-0.9,0.4-0.9,0.9v10.6c0,0.2,0.1,0.5,0.3,0.7l3,2
			c0.3,0.3,0.7,0.3,1,0.1c-1.5,1.8-2.5,4.2-2.5,6.8c0,5.8,4.7,10.5,10.4,10.5S26,27,26,21.3c0-2.5-0.9-4.7-2.3-6.5c0,0,0.1,0,0.1,0
			c0.2,0,0.4-0.1,0.6-0.2l4-2.1c0.2-0.2,0.3-0.4,0.3-0.7V1.2C28.7,0.7,28.3,0.3,27.8,0.3z M13.2,2h4.6v2.6h-4.6V2z M12.2,10.5
			L5.5,6.4h20.9l-7.6,4.2c-0.2,0.2-0.3,0.4-0.3,0.7c-1-0.3-2-0.5-3-0.5c-1.1,0-2.1,0.2-3.1,0.5C12.5,11,12.4,10.7,12.2,10.5z M5.1,2
			h6.4v2.6H5.1V2z M5.1,11.4V8.1l5.9,3.7c0,0,0.1,0,0.1,0.1c-1.2,0.6-2.2,1.3-3.1,2.3c0.2-0.3,0.1-0.7-0.2-1L5.1,11.4z M24.2,21.3
			c0,4.8-3.9,8.7-8.7,8.7c-4.8,0-8.7-3.9-8.7-8.7c0-4.8,3.9-8.7,8.7-8.7S24.2,16.5,24.2,21.3z M26.9,11.4l-3.7,1.9
			c-0.2,0.2-0.3,0.4-0.3,0.7c-0.8-0.8-1.8-1.5-2.9-2.1L26.9,8V11.4z M26.9,4.6h-7.3V2h7.3V4.6z"/>
	</g>
	</svg>
