<svg version="1.1" xmlns="http://www.w3.org/2000/svg" xmlns:xlink="http://www.w3.org/1999/xlink" x="0px" y="0px" viewBox="0 0 32 32" style="enable-background:new 0 0 32 32;" xml:space="preserve">
<g>
	<path d="M24.3,7.5h-1.9l2-2.1c0.3-0.6,0.1-1.2-0.4-1.5c-0.5-0.3-3-0.1-3.3,0.5l-2.5,3.2h-4.3l-2.5-3.2C11,3.7,8.5,3.5,8,3.8
		c-0.5,0.3-0.7,1-0.4,1.5l2,2.1H7.7C5,7.5,4.6,8,4.6,11v13.8c0,3,0.3,3.5,3.1,3.5h16.6c2.8,0,3.1-0.5,3.1-3.5V11
		C27.4,8,27,7.5,24.3,7.5z M19.2,19L14,22.4c-0.4,0.2-0.8,0.3-1.2,0c-0.4-0.2-0.6-0.7-0.6-1.2v-6.8c0-0.5,0.2-0.9,0.6-1.2
		c0.4-0.2,0.9-0.2,1.2,0l5.2,3.4c0.4,0.3,0.6,0.7,0.6,1.1C19.8,18.3,19.6,18.7,19.2,19z"/>
</g>
</svg>
