<?xml version="1.0" standalone="no"?><!DOCTYPE svg PUBLIC "-//W3C//DTD SVG 1.1//EN" "http://www.w3.org/Graphics/SVG/1.1/DTD/svg11.dtd"><svg t="1605545232608" class="icon" viewBox="0 0 1024 1024" version="1.1" xmlns="http://www.w3.org/2000/svg" p-id="6856" xmlns:xlink="http://www.w3.org/1999/xlink" width="256" height="256"><defs><style type="text/css"></style></defs><path d="M163.853626 810.119797C163.853626 837.855436 186.045921 860.146374 213.29341 860.146374L810.70659 860.146374C837.88524 860.146374 860.146374 837.788092 860.146374 810.119797L860.146374 313.350597C860.146374 285.614957 837.954079 263.324019 810.70659 263.324019L213.29341 263.324019C186.11476 263.324019 163.853626 285.682302 163.853626 313.350597L163.853626 810.119797ZM64.383234 313.350597C64.383234 230.87458 131.05019 163.853626 213.29341 163.853626L810.70659 163.853626C893.02644 163.853626 959.616766 230.815038 959.616766 313.350597L959.616766 810.119797C959.616766 892.595813 892.94981 959.616766 810.70659 959.616766L213.29341 959.616766C130.97356 959.616766 64.383234 892.655355 64.383234 810.119797L64.383234 313.350597Z" p-id="6857"></path><path d="M263.324019 113.65977C263.324019 86.445091 285.399723 64.383234 313.059215 64.383234 340.527205 64.383234 362.794411 86.812573 362.794411 113.65977L362.794411 313.517875C362.794411 340.732554 340.718707 362.794411 313.059215 362.794411 285.591225 362.794411 263.324019 340.365072 263.324019 313.517875L263.324019 113.65977 263.324019 113.65977 263.324019 113.65977 263.324019 113.65977 263.324019 113.65977ZM661.205589 113.65977C661.205589 86.445091 683.281293 64.383234 710.940785 64.383234 738.408775 64.383234 760.675981 86.812573 760.675981 113.65977L760.675981 313.517875C760.675981 340.732554 738.600277 362.794411 710.940785 362.794411 683.472795 362.794411 661.205589 340.365072 661.205589 313.517875L661.205589 113.65977 661.205589 113.65977 661.205589 113.65977 661.205589 113.65977 661.205589 113.65977Z" p-id="6858"></path><path d="M263.324019 487.365384C263.324019 473.502716 273.969093 462.264803 288.424598 462.264803L337.693831 462.264803C351.556499 462.264803 362.794411 472.909878 362.794411 487.365384L362.794411 536.634616C362.794411 550.497284 352.149336 561.735197 337.693831 561.735197L288.424598 561.735197C274.561931 561.735197 263.324019 551.090122 263.324019 536.634616L263.324019 487.365384 263.324019 487.365384ZM462.264803 487.365384C462.264803 473.502716 472.909878 462.264803 487.365384 462.264803L536.634616 462.264803C550.497284 462.264803 561.735197 472.909878 561.735197 487.365384L561.735197 536.634616C561.735197 550.497284 551.090122 561.735197 536.634616 561.735197L487.365384 561.735197C473.502716 561.735197 462.264803 551.090122 462.264803 536.634616L462.264803 487.365384 462.264803 487.365384ZM661.205589 487.365384C661.205589 473.502716 671.850664 462.264803 686.306169 462.264803L735.575402 462.264803C749.438069 462.264803 760.675981 472.909878 760.675981 487.365384L760.675981 536.634616C760.675981 550.497284 750.030907 561.735197 735.575402 561.735197L686.306169 561.735197C672.443501 561.735197 661.205589 551.090122 661.205589 536.634616L661.205589 487.365384 661.205589 487.365384ZM263.324019 686.306169C263.324019 672.443501 273.969093 661.205589 288.424598 661.205589L337.693831 661.205589C351.556499 661.205589 362.794411 671.850664 362.794411 686.306169L362.794411 735.575402C362.794411 749.438069 352.149336 760.675981 337.693831 760.675981L288.424598 760.675981C274.561931 760.675981 263.324019 750.030907 263.324019 735.575402L263.324019 686.306169 263.324019 686.306169ZM462.264803 686.306169C462.264803 672.443501 472.909878 661.205589 487.365384 661.205589L536.634616 661.205589C550.497284 661.205589 561.735197 671.850664 561.735197 686.306169L561.735197 735.575402C561.735197 749.438069 551.090122 760.675981 536.634616 760.675981L487.365384 760.675981C473.502716 760.675981 462.264803 750.030907 462.264803 735.575402L462.264803 686.306169 462.264803 686.306169ZM661.205589 686.306169C661.205589 672.443501 671.850664 661.205589 686.306169 661.205589L735.575402 661.205589C749.438069 661.205589 760.675981 671.850664 760.675981 686.306169L760.675981 735.575402C760.675981 749.438069 750.030907 760.675981 735.575402 760.675981L686.306169 760.675981C672.443501 760.675981 661.205589 750.030907 661.205589 735.575402L661.205589 686.306169 661.205589 686.306169Z" p-id="6859"></path></svg>