<svg version="1.1" xmlns="http://www.w3.org/2000/svg" xmlns:xlink="http://www.w3.org/1999/xlink" x="0px" y="0px"
	 viewBox="0 0 32 32" style="enable-background:new 0 0 32 32;" xml:space="preserve">
	<g>
		<path d="M8.2,20.7v3.1c0,0.4,0.3,0.7,0.7,0.7c0.4,0,0.7-0.3,0.7-0.7v-3.1c0-0.4-0.3-0.7-0.7-0.7C8.6,20,8.2,20.3,8.2,20.7z
			 M24.4,18c-0.2-0.3-0.7-0.3-1-0.1l-6.1,6c0,0,0,0,0,0c-0.3,0.3-0.3,0.7,0,1c0.1,0.1,0.3,0.2,0.5,0.2c0.2,0,0.4-0.1,0.5-0.2l6-6
			C24.6,18.7,24.6,18.3,24.4,18z M20.8,26.8c0.2,0,0.4-0.1,0.5-0.2l3.4-3.4c0,0,0,0,0,0c0.3-0.3,0.3-0.7,0-1c-0.3-0.3-0.7-0.3-1,0
			l-3.4,3.4c0,0,0,0,0,0c-0.3,0.3-0.3,0.7,0,1C20.4,26.8,20.6,26.8,20.8,26.8z M6.1,14.7l0.6-0.5c0.2,0.2,0.4,0.4,0.6,0.6
			c1.7,1.4,4.2,1.2,5.6-0.5c0.7,0.9,1.8,1.4,2.9,1.4H16c1.1,0,2.1-0.5,2.8-1.4c0.2,0.3,0.5,0.5,0.8,0.7c1.8,1.2,4.2,0.7,5.4-1.1
			c0.8,1,2.1,1.5,3.3,1.4c2.1-0.2,3.6-2.1,3.4-4.1l0-0.5c0-0.4-0.2-0.8-0.3-1.2l-3-6.5c-0.3-0.5-0.8-0.9-1.4-0.9h-22
			c-0.6,0-1.1,0.4-1.4,0.9l-3,6.4C0.3,10,0.2,10.5,0.1,11v0.4c-0.1,0.9,0.2,1.8,0.7,2.5C2.1,15.6,4.4,15.9,6.1,14.7z M26.9,3.7
			c0.1,0,0.1,0,0.2,0.1l3,6.5c0.1,0.2,0.2,0.5,0.2,0.8l0,0.5c0.1,0.8-0.3,1.6-0.9,2.1c-1.1,0.8-2.5,0.6-3.3-0.5l-0.5-0.7l-1.6-8.8
			H26.9z M22.5,3.7l1.6,8.9c-0.2,0.7-0.7,1.3-1.4,1.6c-1.3,0.5-2.7,0-3.3-1.3l0,0l-0.3-9.2H22.5z M13.9,3.7h3.9l0.3,9.2
			c-0.2,0.7-0.7,1.2-1.4,1.4c-1.2,0.4-2.5-0.2-3-1.3l0,0L13.9,3.7z M12.5,3.7l-0.3,9.3c-0.4,0.9-1.3,1.5-2.3,1.5
			c-1,0-1.9-0.5-2.3-1.3l1.6-9.4H12.5z M1.5,11.1c0-0.3,0.1-0.7,0.2-1l3-6.4c0-0.1,0.1-0.1,0.1-0.1h3l-1.6,9.2l-1,0.7
			c-0.5,0.3-1,0.5-1.6,0.5c-1.3-0.1-2.3-1.2-2.3-2.5V11.1z M31.4,28.3h-2.8V17.3c0-0.4-0.3-0.7-0.7-0.7c-0.4,0-0.7,0.3-0.7,0.7v11.1
			H12.2V17.3c0-0.4-0.3-0.7-0.7-0.7s-0.7,0.3-0.7,0.7v11.1H4.7V17.3c0-0.4-0.3-0.7-0.7-0.7c-0.4,0-0.7,0.3-0.7,0.7v11.1H0.6
			c-0.4,0-0.7,0.3-0.7,0.7c0,0.4,0.3,0.7,0.7,0.7h30.9c0.4,0,0.7-0.3,0.7-0.7C32.1,28.6,31.8,28.3,31.4,28.3z"/>
	</g>
</svg>
