<?xml version="1.0" encoding="iso-8859-1"?>
<!-- Generator: Adobe Illustrator 22.1.0, SVG Export Plug-In . SVG Version: 6.00 Build 0)  -->
<svg version="1.1" id="&#x56FE;&#x5C42;_1" xmlns="http://www.w3.org/2000/svg" xmlns:xlink="http://www.w3.org/1999/xlink" x="0px"
	 y="0px" viewBox="0 0 612 792" style="enable-background:new 0 0 612 792;" xml:space="preserve">
<g>
	<path d="M-65,289c4.389,0.84,8.798,1.586,13.163,2.534c48.796,10.606,84.721,53.747,85.734,102.911
		C34.961,446.103,1.906,490.44-47.34,503.44c-1.58,0.417-3.108,1.036-4.66,1.56c-15.333,0-30.667,0-46,0
		c-1.232-0.433-2.444-0.936-3.699-1.289c-37.859-10.635-63.628-34.369-76.647-71.487c-2.728-7.779-3.812-16.134-5.654-24.224
		c0-6.667,0-13.333,0-20c0.312-1.28,0.716-2.546,0.921-3.843c6.789-42.816,30.242-72.482,70.593-88.261
		c8.726-3.412,18.301-4.654,27.485-6.895C-78.333,289-71.667,289-65,289z M-49.742,320.51c-4.997,2.738-8.787,4.477-12.211,6.764
		c-6.088,4.066-12.7,6.121-19.915,7.227c-9.19,1.408-18.53,2.818-27.315,5.715c-39.461,13.013-62.41,51.667-52.306,90.16
		c3.743,14.259,11.625,27.47,18.015,40.971c1.797,3.796,4.363,7.784,7.658,10.224c21.593,15.989,46.17,22.321,72.627,19.099
		c57.338-6.984,96.342-55.719,91.307-113.1c-4.958-56.503-58.241-99.421-114.709-92.395c-58.234,7.246-98.081,57.768-91.255,116.006
		c0.821,7.003,2.952,13.853,4.476,20.774c0.436-0.092,0.872-0.184,1.308-0.276c-0.166-0.961-0.332-1.921-0.496-2.882
		c-2.795-16.315-1.763-32.213,5.582-47.295c14.662-30.108,38.069-48.875,71.593-53.519c15.177-2.102,28.896-7.24,41.66-15.459
		c3.017-1.943,6.296-3.48,9.345-5.144c4.722,5.846,6.257,11.567,3.033,18.293c-1.565,3.263-2.577,6.914-3.132,10.499
		c-0.421,2.713-0.532,5.99,0.605,8.348c10.856,22.499,22.032,44.844,33.062,67.259c3.821,7.764,4.31,15.778,1.824,24.303
		c-3.054-0.916-5.558-1.667-8.481-2.544c2.801-8.609-0.793-15.575-4.32-22.647c-10.853-21.759-21.655-43.544-32.239-65.435
		c-1.09-2.255-1.218-5.419-0.684-7.925C-53.583,332.239-51.721,327.104-49.742,320.51z"/>
	<path d="M744.792,393.847c-5.455,0-10.378,0-15.901,0c-0.094-1.726-0.267-3.474-0.273-5.221
		c-0.033-9.331,0.099-18.665-0.072-27.993c-0.116-6.309-2.525-9.285-6.818-9.176c-4.748,0.121-7.703,3.759-7.733,9.767
		c-0.054,10.79-0.015,21.581-0.015,32.647c-5.393,0-10.32,0-15.606,0c0-17.891,0-35.775,0-54.827
		c5.421,0.68,10.599,1.371,15.791,1.937c0.844,0.092,1.769-0.314,2.622-0.595c8.744-2.884,17.204-3.316,25.047,2.86
		c6.883-5.929,15.118-5.338,23.203-3.938c5.838,1.011,9.332,5.347,9.914,11.159c0.678,6.769,0.699,13.613,0.812,20.428
		c0.124,7.473,0.028,14.949,0.028,22.839c-5.386,0-10.423,0-16.187,0c0-8.121,0.006-16.219-0.003-24.316
		c-0.004-3.499,0.111-7.006-0.096-10.494c-0.236-3.992-1.691-7.227-6.384-7.451c-4.274-0.204-8.009,3.085-8.204,7.716
		c-0.274,6.487-0.111,12.994-0.124,19.492C744.784,383.638,744.792,388.596,744.792,393.847z"/>
	<path d="M72.331,317.893c5.121,0,10.046,0,15.649,0c0,3.988,0,7.926,0,11.864c0,3.943,0,7.885,0,10.819
		c6.31-0.677,12.289-1.799,18.275-1.844c8.424-0.065,13.543,4.048,13.943,12.421c0.672,14.067,0.184,28.189,0.184,42.644
		c-4.942,0-9.844,0-15.535,0c0-5.508,0.016-11.093-0.004-16.678c-0.021-5.823,0.147-11.66-0.181-17.467
		c-0.336-5.937-2.623-8.254-7.236-8.224c-5.278,0.033-9.298,3.644-9.39,8.991c-0.172,9.983-0.054,19.971-0.057,29.956
		c0,0.984,0,1.968,0,3.365c-5.262,0-10.294,0-15.648,0C72.331,368.567,72.331,343.374,72.331,317.893z"/>
	<path d="M312.98,393.916c-5.564,0-10.487,0-15.673,0c0-25.431,0-50.626,0-76.066c5.21,0,10.135,0,15.457,0
		c0,7.944,0,15.714,0,22.785c6.265-0.701,12.174-1.833,18.098-1.912c8.804-0.118,13.927,3.897,14.35,12.533
		c0.688,14.059,0.186,28.175,0.186,42.581c-5.028,0-9.932,0-15.55,0c0-7.139,0.001-14.229,0-21.319
		c-0.001-3.661,0.078-7.325-0.025-10.984c-0.207-7.314-2.397-10.2-7.501-10.104c-5.855,0.11-9.301,3.97-9.331,10.589
		c-0.04,8.821-0.01,17.641-0.01,26.462C312.98,390.124,312.98,391.765,312.98,393.916z"/>
	<path d="M681.638,368.064c-0.361,3.004-0.57,7.175-1.407,11.215c-1.916,9.252-7.862,14.53-17.169,15.466
		c-5.095,0.513-10.327,0.462-15.427-0.045c-9.127-0.907-14.885-6.148-16.983-15.099c-2.122-9.053-2.141-18.141,0.445-27.123
		c2.072-7.197,6.826-12.132,14.225-13.011c6.697-0.795,13.673-0.936,20.326,0.025c8.751,1.264,13.744,7.639,15.206,17.467
		C681.342,360.235,681.339,363.584,681.638,368.064z M665.436,366.727c-0.453-3.163-0.724-6.492-1.444-9.721
		c-0.96-4.304-4.01-6.473-8.31-6.531c-4.471-0.06-8.261,1.926-8.693,6.547c-0.597,6.375-0.574,12.883-0.019,19.265
		c0.399,4.592,3.964,6.74,8.538,6.704c4.524-0.036,7.715-2.114,8.658-6.704C664.798,373.208,665.011,370.042,665.436,366.727z"/>
	<path d="M411.947,370.503c-11.893,0.821-22.311,1.541-32.71,2.259c0.268,6.756,4.766,10.428,12.341,9.828
		c4.102-0.325,8.136-1.566,12.186-2.458c1.573-0.347,3.107-0.871,4.762-1.344c0.845,14.945,2.535,13.497-11.523,15.85
		c-5.181,0.867-10.654,0.603-15.931,0.139c-9.082-0.797-15.073-5.772-17.299-14.763c-2.282-9.217-2.298-18.477,0.36-27.623
		c2.091-7.196,6.972-11.988,14.337-12.958c6.204-0.817,12.673-0.926,18.87-0.139c7.005,0.89,11.935,5.446,13.152,12.58
		C411.508,357.84,411.48,363.984,411.947,370.503z M396.524,359.875c-0.498-6.604-3.062-9.435-8.174-9.398
		c-5.892,0.043-9.099,3.533-9.416,10.793C384.69,360.814,390.383,360.362,396.524,359.875z"/>
	<path d="M186.265,394.329c-5.6-1.203-11.217,2.141-15.975-2.998c-5.884,4.377-13.03,4.305-20.174,3.56
		c-7.993-0.833-12.466-5.748-13.098-13.791c-0.858-10.921,2.121-16.773,10.43-18.877c4.282-1.084,8.864-1.057,13.323-1.339
		c2.962-0.188,5.946-0.036,8.858-0.036c1.244-8.414-0.658-9.163-20.782-8.223c0-2.098,0-4.167,0-6.237c0-2.149,0-4.298,0-7.124
		c9.845-0.585,19.381-1.945,28.711,1.506c5.344,1.977,8.53,6.073,8.629,11.724C186.427,366.116,186.265,379.745,186.265,394.329z
		 M170.159,372.111c-4.421,0-8.623-0.444-12.646,0.21c-1.705,0.277-3.861,2.666-4.281,4.455c-0.355,1.515,1.451,5.058,2.379,5.085
		c3.768,0.113,7.763-0.225,11.296-1.471C170.153,379.246,171.279,376.059,170.159,372.111z"/>
	<path d="M612.879,410.954c1.824,0.082,3.229,0.146,4.946,0.223c0,5.08,0,9.868,0,14.801c8.608-1.497,7.73,7.703,13.064,10.732
		c1.369-5.361,3.02-10.517,3.923-15.801c0.66-3.864,2.18-4.861,6.306-3.116c-0.82,4.372-1.661,8.853-2.572,13.711
		c4.178,0,8.057,0,12.59,0c0-6.65,0-13.208,0-19.695c4.211-1.227,5.874-0.21,5.707,3.805c-0.214,5.143-0.052,10.302-0.052,16.235
		c6.585,0,12.851-0.105,19.108,0.086c1.297,0.04,2.56,1.182,3.838,1.816c-1.28,0.8-2.534,2.238-3.843,2.29
		c-6.121,0.245-12.258,0.109-18.741,0.109c0,7.362,0,14.268,0,21.761c6.506,0,13.081,0,19.656,0
		c0.303,0.586,0.606,1.172,0.908,1.757c-1.223,0.904-2.408,2.523-3.675,2.59c-5.46,0.289-10.945,0.124-16.832,0.124
		c0,8.292,0,16.173,0,24.828c6.989,0,14.082,0.105,21.17-0.047c3.219-0.069,4.32,1.022,3.033,4.628c-5.946,0-12.077,0-18.209,0
		c-11.497,0-22.995,0.075-34.489-0.102c-1.356-0.021-2.691-1.422-4.035-2.184c1.341-0.765,2.663-2.152,4.025-2.193
		c7.286-0.22,14.582-0.104,22.186-0.104c0-8.372,0-16.277,0-24.822c-5.938,0-11.731-0.069-17.521,0.029
		c-2.979,0.05-4.356-0.856-3.177-4.391c6.846,0,13.618,0,20.696,0c0-7.326,0-14.235,0-21.854c-3.998,0-7.948-0.19-11.858,0.128
		c-1.03,0.084-2.342,1.562-2.819,2.696c-1.483,3.522-2.678,7.169-3.884,10.801c-0.812,2.445-1.972,4.732-4.818,2.999
		c-0.904-0.551-0.91-3.232-0.668-4.839c0.288-1.916,1.285-3.725,1.53-4.385c-3.515-4.809-6.524-8.926-10.184-13.933
		c0,22.888,0,44.751,0,66.97c-1.991,0-3.511,0-5.31,0C612.879,468.188,612.879,439.928,612.879,410.954z"/>
	<path d="M380.511,488.321c11.217,0,22.505,0,34.149,0c0-6.109,0-11.83,0-18.17c-7.703,0-15.32,0.108-22.928-0.1
		c-1.358-0.037-2.681-1.38-4.02-2.12c1.385-0.694,2.754-1.951,4.157-1.989c7.468-0.2,14.944-0.094,22.783-0.094
		c0-5.607,0-10.85,0-16.87c-6.91,0-14.001,0.122-21.082-0.1c-1.475-0.046-2.91-1.366-4.364-2.099
		c0.104-0.532,0.209-1.064,0.313-1.596c-2.823,1.667-5.535,3.593-8.523,4.875c-1.234,0.53-3.061-0.323-4.619-0.546
		c0.652-1.424,0.909-3.501,2.017-4.174c13.932-8.467,26.728-18.096,35.988-31.902c0.743-1.108,5.848-1.183,6.561-0.133
		c9.906,14.591,23.658,24.65,38.61,33.554c-0.463,4.403-2.555,5.04-5.99,2.974c-2.535-1.525-5.063-3.06-7.594-4.591
		c0.042,0.524,0.085,1.049,0.127,1.573c-1.767,0.722-3.512,1.999-5.304,2.067c-6.61,0.25-13.235,0.099-20.087,0.099
		c0,5.775,0,11.022,0,16.87c8.074,0,15.853,0.066,23.63-0.034c2.961-0.038,4.463,0.696,3.027,4.35c-8.716,0-17.486,0-26.606,0
		c0,6.023,0,11.609,0,18.043c5.932,0,11.842,0,17.752,0c4.333,0,8.68-0.19,12.991,0.117c1.318,0.094,2.538,1.555,3.803,2.389
		c-1.242,0.691-2.477,1.968-3.728,1.983c-12.331,0.151-24.664,0.093-36.997,0.093c-10.333,0-20.667-0.088-30.998,0.048
		C380.293,492.883,379.386,491.695,380.511,488.321z M417.738,420.22c-8.257,7.814-16.829,15.927-25.248,23.894
		c16.705,0,33.73,0,50.506,0C434.366,435.95,425.851,427.895,417.738,420.22z"/>
	<path d="M425.852,380.129c5.928,0.75,11.162,1.584,16.429,2.01c2.987,0.242,6.407,0.131,7.082-3.824
		c0.701-4.112-2.401-5.395-5.581-6.362c-1.909-0.581-3.828-1.131-5.745-1.685c-9.679-2.794-12.503-6.792-11.799-16.71
		c0.636-8.96,5.163-13.862,14.61-14.568c7.192-0.537,14.457-0.107,21.689-0.107c0.002,0.482,0.004,0.964,0.006,1.446
		c0.121,0.304,0.339,0.605,0.35,0.913c0.401,11.019,0.403,10.978-10.468,9.707c-2.281-0.267-4.717-0.524-6.883,0.015
		c-1.424,0.354-3.313,2.034-3.481,3.318c-0.158,1.203,1.389,3.307,2.689,3.89c3.164,1.416,6.661,2.065,9.951,3.228
		c8.806,3.11,11.17,7.575,10.246,19.007c-0.613,7.581-4.839,12.716-12.895,13.497c-7.544,0.731-15.235,0.196-22.839-0.208
		c-1.182-0.063-2.979-2.283-3.21-3.713C425.508,386.923,425.852,383.728,425.852,380.129z"/>
	<path d="M480.852,380.137c5.897,0.744,11.131,1.578,16.398,2.002c2.981,0.24,6.406,0.157,7.105-3.794
		c0.728-4.113-2.363-5.413-5.544-6.383c-2.068-0.63-4.151-1.212-6.227-1.818c-9.224-2.695-12.03-6.788-11.35-16.555
		c0.602-8.648,4.856-13.704,13.591-14.46c7.517-0.65,15.134-0.135,22.159-0.135c0.668,1.612,0.892,1.91,0.904,2.218
		c0.434,11.056,0.435,11.025-10.433,9.734c-2.122-0.252-4.415-0.627-6.389-0.08c-1.6,0.444-3.758,2.045-3.968,3.397
		c-0.19,1.221,1.638,3.418,3.085,4.091c2.986,1.39,6.352,1.932,9.487,3.036c8.828,3.108,11.185,7.54,10.277,18.986
		c-0.602,7.589-4.822,12.739-12.867,13.523c-7.543,0.735-15.235,0.202-22.839-0.198c-1.192-0.063-3.007-2.264-3.239-3.688
		C480.506,386.953,480.852,383.755,480.852,380.137z"/>
	<path d="M224.463,453.012c3.984,0,7.082,0,11.317,0c-1.999,6.726-7.721,2.366-10.902,5.453c0,4.463,0,9.712,0,15.515
		c-7.403,0-14.299,0-21.9,0c0,4.132,0.042,7.728-0.009,11.322c-0.082,5.8-1.314,7.303-7.17,8.086
		c-3.283,0.439-6.646,0.675-9.937,0.459c-1.344-0.088-2.594-1.615-3.887-2.487c0.212-0.438,0.424-0.877,0.636-1.315
		c3.127-0.195,6.255-0.393,9.382-0.586c3.775-0.232,5.812-2.003,5.631-6.019c-0.132-2.941-0.026-5.892-0.026-9.247
		c-7.803,0-14.904,0-21.795,0c-1.739-3.653,0.146-4.015,2.693-3.997c6.142,0.044,12.284,0.014,18.755,0.014
		c0-4.471,0-8.523,0-12.535c-8.52-0.512-16.685-0.993-24.843-1.593c-0.096-0.007-0.081-1.538-0.145-2.974c8.354,0,16.576,0,25.024,0
		c0-4.689,0-8.766,0-13.757c-6.909,0-13.513,0.09-20.111-0.076c-1.311-0.033-2.597-1.045-3.895-1.606
		c0.592-1.269,1.024-2.648,1.803-3.79c4.953-7.262,10.243-14.311,14.867-21.773c2.005-3.235,3.694-3.842,7.161-1.499
		c-1.153,2.513-2.349,5.12-3.821,8.326c8.224,0,15.945,0,23.917,0c0.573,7.424-6.489,10.081-8.563,16.061c5.197,0,10.24,0,15.817,0
		C224.463,441.068,224.463,446.643,224.463,453.012z M209.198,423.459c-17.743-1.477-21.443,0.152-26.343,11.365
		C198.733,436.743,202.574,435.132,209.198,423.459z M218.787,452.798c0-4.624,0-8.691,0-12.584c-5.487,0-10.542,0-15.415,0
		c0,4.491,0,8.553,0,12.584C208.715,452.798,213.663,452.798,218.787,452.798z M218.775,469.994c0-4.457,0-8.481,0-12.417
		c-5.484,0-10.528,0-15.497,0c0,4.356,0,8.285,0,12.417C208.513,469.994,213.452,469.994,218.775,469.994z"/>
	<path d="M279.674,353.433c-7.106-0.934-14.432-4.834-19.907,0.92c-2.688,2.824-3.479,8.11-3.789,12.38
		c-0.422,5.803-0.214,12.658,6.958,14.325c5.273,1.225,11.06,0.24,17.417,0.24c0,2.749,0.209,6.367-0.133,9.932
		c-0.097,1.007-1.787,2.637-2.776,2.659c-7.925,0.178-15.951,0.775-23.759-0.224c-6.809-0.871-10.848-6.236-12.655-12.77
		c-2.631-9.509-2.634-19.113,0.135-28.6c2.042-6.996,6.815-11.946,13.963-12.72c7.996-0.865,16.157-0.199,24.545-0.199
		C279.674,344.376,279.674,348.621,279.674,353.433z"/>
	<path d="M613.689,340.022c0,4.819,0,8.921,0,13.422c-7.031-0.815-14.702-5.094-20.06,1.109c-2.838,3.285-3.61,9.198-3.611,13.925
		c-0.004,12.378,3.654,14.045,24.308,11.822c0,3.787,0.208,7.514-0.143,11.188c-0.09,0.942-1.911,2.399-2.997,2.456
		c-6.942,0.363-13.957,1.013-20.841,0.387c-8.327-0.756-13.461-6.119-15.519-14.165c-2.356-9.21-2.366-18.481,0.272-27.639
		c1.948-6.763,6.359-11.351,13.32-12.857C596.805,337.855,605.23,338.067,613.689,340.022z"/>
	<path d="M317.685,433.989c-2.039,5.047-3.957,9.794-6.183,15.306c2.095,0.118,3.803,0.294,5.511,0.297
		c13.329,0.024,26.658,0.04,39.987-0.005c2.651-0.009,4.846,0.163,3.503,4.393c-4.384,0-9.005-0.18-13.598,0.105
		c-1.461,0.09-3.494,1.05-4.159,2.233c-4.108,7.312-7.901,14.801-11.991,22.599c5.978,2.951,12.921,6.375,19.861,9.806
		c1.492,0.737,3.229,1.227,4.384,2.325c1.179,1.121,1.781,2.849,2.636,4.311c-1.681,0.216-3.687,1.136-4.991,0.535
		c-8.153-3.762-16.203-7.761-24.168-11.91c-2.788-1.452-4.852-1.5-7.675,0.262c-11.462,7.156-24.458,10.278-37.392,13.485
		c-3.661,0.908-4.266-1.119-4.125-4.237c13.269-3.234,26.628-6.108,39.291-14.062c-8.287-3.682-15.872-7.052-23.971-10.65
		c2.532-4.824,4.948-9.427,7.686-14.642c-7.362,0-14.083,0-20.78,0c-1.589-3.371-0.628-4.583,2.598-4.545
		c5.664,0.066,11.346,0.248,16.984-0.14c1.678-0.116,3.854-1.615,4.721-3.109c1.906-3.283,3.316-6.898,4.566-10.503
		C311.726,431.963,313.795,431.354,317.685,433.989z M302.657,466.499c6.445,2.863,12.59,5.715,18.86,8.257
		c1.015,0.411,3.003-0.133,3.836-0.952c5.521-5.436,9.252-11.964,11.483-19.82c-8.714,0-17.014-0.061-25.312,0.073
		c-1.089,0.018-2.631,0.752-3.159,1.635C306.339,459.083,304.641,462.67,302.657,466.499z"/>
	<path d="M738.605,410.992c2.152,0.162,3.445,0.26,5.242,0.395c0,12.689,0,25.254,0,39.36c3.251-2.907,5.659-4.726,7.662-6.915
		c5.279-5.767,10.439-11.644,15.521-17.585c1.641-1.919,3.362-3.948,5.574-1.625c0.735,0.772,0.061,4.007-1.001,5.191
		c-7.991,8.909-16.337,17.502-24.327,26.412c-1.582,1.764-2.823,4.424-2.985,6.756c-0.415,5.965-0.128,11.978-0.132,17.973
		c-0.003,4.624,2.096,7.215,6.916,7.197c4.478-0.016,8.956,0,13.433-0.062c3.976-0.055,6.127-2.166,6.56-6.08
		c0.491-4.441,0.972-8.883,1.47-13.444c4.081-0.548,5.755,0.805,5.071,4.927c-0.679,4.093-0.984,8.246-1.534,12.362
		c-0.537,4.021-3.015,6.518-6.926,6.658c-7.792,0.279-15.61,0.297-23.401,0c-5.156-0.197-7.035-3.863-7.092-8.568
		c-0.077-6.286-0.019-12.573-0.019-20.002c-4.222,3.106-7.595,5.614-10.999,8.08c-1.344,0.974-2.661,2.325-4.168,2.631
		c-1.265,0.257-2.787-0.754-4.196-1.204c0.447-1.223,0.533-2.888,1.4-3.595c4.642-3.779,9.385-7.451,14.282-10.892
		c2.926-2.056,3.782-4.543,3.721-8.025c-0.199-11.319-0.074-22.643-0.074-33.965C738.605,415.179,738.605,413.385,738.605,410.992z"
		/>
	<path d="M100.409,455.789c0,13.964,0,27.088,0,40.593c-1.922,0-3.451,0-5.503,0c0-13.371,0-26.622,0-40.59
		c-7.429,0-14.356,0-21.284,0c-4.332,0-8.664,0.049-12.995-0.019c-3.344-0.052-3.343-0.118-3.431-4.718c12.379,0,24.766,0,37.393,0
		c0-9.703,0-18.796,0-28.663c-8.727,0-17.334-0.026-25.941,0.016c-2.649,0.013-4.864-0.201-3.518-4.096c21.653,0,43.39,0,65.131,0
		c1.4,3.61-0.488,4.126-3.288,4.1c-6.83-0.062-13.661-0.018-20.492-0.016c-1.79,0-3.579,0-5.725,0c0,9.776,0,18.992,0,28.631
		c12.529,0,24.806,0,36.995,0c1.373,3.716,0.139,4.839-3.258,4.805C123.353,455.719,112.21,455.789,100.409,455.789z"/>
	<path d="M206.898,393.858c0-18.109,0-35.848,0-53.92c5.204,0,10.121,0,15.469,0c0,17.922,0,35.772,0,53.92
		C217.317,393.858,212.396,393.858,206.898,393.858z"/>
	<path d="M543.591,418.412c-9.23,13.874-20.281,25.481-33.213,35.286c-0.795,0.603-1.544,1.586-2.41,1.705
		c-1.645,0.227-3.934,0.619-4.924-0.243c-2.15-1.869-0.393-3.286,1.391-4.607c13.342-9.877,25.049-21.348,34.077-35.388
		c0.45-0.7,0.86-1.427,1.343-2.103c2.067-2.892,5.748-3.052,7.633-0.073c9.461,14.954,21.502,27.43,35.665,37.974
		c0.967,0.72,0.879,2.859,1.281,4.338c-1.834-0.026-4.198,0.686-5.419-0.192c-12.65-9.098-23.528-20.019-32.535-32.766
		C545.634,421.146,544.745,419.979,543.591,418.412z"/>
	<path d="M726.583,413.128c-2.728,6.477-5.396,12.514-7.793,18.657c-0.877,2.249-1.549,4.746-1.567,7.135
		c-0.131,17.295-0.07,34.592-0.07,51.888c0,1.793,0,3.587,0,5.672c-2.068,0-3.644,0-5.718,0c0-16.305,0-32.53,0-48.756
		c-0.343-0.143-0.685-0.286-1.028-0.428c-2.929,4.022-5.708,8.167-8.872,11.994c-1.014,1.227-3.735,2.672-4.486,2.185
		c-2.361-1.531-1.704-3.684-0.031-5.888c9.303-12.253,16.604-25.63,22.027-40.033C720.655,411.276,720.698,411.293,726.583,413.128z
		"/>
	<path d="M291.792,429.117c0,2.293,0,4.257,0,6.22c0,1.955,0,3.911,0,6.173c-1.96,0.089-3.387,0.154-5.206,0.237
		c0-5.856,0-11.392,0-17.419c10.436,0,20.688,0,31.871,0c-1.165-4.696-2.169-8.743-3.163-12.749c4.011-1.72,5.836-0.527,6.845,3.558
		c2.253,9.118,2.444,9.07,11.861,9.07c7.121,0,14.242,0,21.669,0c0,6.014,0,11.565,0,17.27c-1.788,0-3.352,0-5.409,0
		c0-4.205,0-8.129,0-12.362C330.708,429.117,311.648,429.117,291.792,429.117z"/>
	<path d="M556.153,385.389c0,8.548-0.837,9.396-9.28,9.403c-8.555,0.007-9.633-1.022-9.663-9.213
		c-0.032-8.646,0.902-9.563,9.731-9.558C555.622,376.025,556.153,376.564,556.153,385.389z"/>
	<path d="M546.03,496.707c-1.863,0-3.282,0-4.94,0c0-18.834,0-37.408,0-56.543c1.492-0.09,3.021-0.182,4.94-0.298
		C546.03,458.956,546.03,477.648,546.03,496.707z"/>
	<path d="M214.786,333.152c-7.843,0.01-8.976-1.045-8.932-8.312c0.042-6.967,0.995-7.817,8.775-7.82
		c8.232-0.003,8.783,0.51,8.766,8.156C223.378,332.439,222.618,333.143,214.786,333.152z"/>
	<path d="M153.441,488.243c3.988-11.679,7.829-23.164,11.945-34.55c0.34-0.941,2.539-1.211,3.874-1.792
		c0.466,1.316,1.628,2.856,1.289,3.914c-3.353,10.457-7.003,20.817-10.462,31.241C158.695,491.255,156.416,489.602,153.441,488.243z
		"/>
	<path d="M604.248,426.618c3.671-0.938,5.55-0.244,4.927,3.712c-1.469,9.34-2.835,18.695-4.288,28.037
		c-0.627,4.029-3.17,2.759-5.846,2.064C600.784,449.114,602.494,438.009,604.248,426.618z"/>
	<path d="M153.785,415.44c2.577-2.221,4.747-2.85,6.492,0.577c3.594,7.054,7.173,14.116,10.782,21.223
		c-3.178,3.179-5.238,3.543-7.172-0.812C160.749,429.359,157.197,422.474,153.785,415.44z"/>
	<path d="M-99.732,384.076c2.436,0.645,4.935,1.306,7.693,2.036c-0.148,1.735-0.259,3.189-0.398,4.641
		c-0.788,8.254,2.856,14.204,10.588,17.096c10.113,3.783,20.245,7.518,30.379,11.246c6.752,2.484,7.203,3.657,3.606,11.067
		c-5.844-2.007-11.79-3.976-17.685-6.091c-7.036-2.524-14.083-5.035-21.027-7.799C-98.744,411.43-105.062,396.155-99.732,384.076z"
		/>
</g>
</svg>
