<?xml version="1.0" encoding="utf-8"?>
<!-- Generator: Adobe Illustrator 21.0.0, SVG Export Plug-In . SVG Version: 6.00 Build 0)  -->
<svg version="1.1" id="图层_1" xmlns="http://www.w3.org/2000/svg" xmlns:xlink="http://www.w3.org/1999/xlink" x="0px" y="0px"
	 viewBox="0 0 512 512" style="enable-background:new 0 0 512 512;" xml:space="preserve">
<path d="M490.2,172.1c-23.1-62.3-64.3-108.8-123.4-138.5c-55.6-27.9-114.2-33.8-174.3-18C122.4,34.1,69.7,76,35.4,139.9
	C3.2,200-1.9,263.5,16.9,329c2.2,7.5,5,14.8,7.7,22.6c0.6-0.8,0.8-1,0.8-1.1c-0.1-0.5-0.1-1.1-0.3-1.6c-4-14.5-6.5-29.2-7.3-44.2
	c-1.2-21.5,0.6-42.7,6.9-63.2c3.5-11.4,8.7-22.3,13.7-33.2C45,194,53.9,181,63.8,168.7c24.5-30.6,54.7-53.5,91-68.3
	c11.4-4.6,23.3-7.7,35.4-9.9c13.9-2.5,27.7-5.4,41.6-8.2c12.4-2.4,25.4-2.7,36.3-10.6c1.2-0.9,2.6-1.6,3.9-2.4
	c18.6-10.4,37.3-20.7,55.9-31.2c2.1-1.2,3-0.8,3.9,1.2c3.2,6.7,6.6,13.3,9.7,20c0.7,1.6,0.8,3.9,0.3,5.5
	c-5.1,17.1-10.3,34-15.4,51.1c-0.3,1.1-0.3,2.6,0.2,3.7c10.9,22.4,21.9,44.7,32.9,67c8.1,16.4,16.3,32.8,24.4,49.3
	c6.8,13.8,13.6,27.6,20.4,41.4c3.5,7.3,7.7,14.3,10.2,22c4.9,15.1,5.8,30.6,1.6,46.2c-0.6,2.3-1.5,3.3-3.9,2.4
	c-1-0.4-2.1-0.6-3.1-0.9c-5-1.6-10.1-3.1-15.3-4.8c0.3-1,0.5-1.7,0.7-2.4c2.8-11.1,2.8-22.3-1.7-32.8c-4.7-11.1-10.5-21.8-15.9-32.6
	c-13.6-27.5-27.2-54.9-40.8-82.4c-11.3-22.9-22.5-45.8-33.7-68.8c-0.8-1.7-1-4.1-0.5-5.9c3.4-12,7.2-23.8,10.8-35.8
	c1.1-3.6,2.1-7.2,3.2-11c-0.8,0-1.2-0.1-1.4,0c-15,8.6-30,17.2-45,25.7c-1.7,1-3.3,2.4-5.1,2.7c-18.7,3.4-37.5,6.7-56.3,9.7
	c-19.2,3.1-37.8,8.2-55.4,16.5c-26.6,12.6-49.1,30.4-68.3,52.7c-20.9,24.2-34.1,52-39.6,83.5C39,295,42,327.7,54.4,359.2
	c6.6,16.8,14.7,33.1,22.9,49.2c6.8,13.5,14.5,26.6,22.3,39.7c2.2,3.7,5.4,7.2,8.8,9.8c38.8,28.4,82.1,44.2,130,47.5
	c37.7,2.6,74.2-2.8,109.3-16.9c87.4-35.1,147.3-115,156.1-208.3C507.3,243.1,503.1,206.9,490.2,172.1z M326.4,315.4
	c-0.9,5.2-2,10.5-3.1,15.7c-0.6,2.8-2.2,3.3-4.8,2.4c-18.3-6.4-36.8-12.6-55.1-19.1c-12.3-4.4-24.5-9-36.6-13.7
	c-14.8-5.7-24.5-16.6-30.4-31.1c-1.8-4.5-3.1-9.3-4-14.1c-0.8-4.4-0.8-8.9-1.1-13.9c0.7-5.1,1.3-10.6,2.1-16.1
	c0.3-2.1,1-3.3,3.7-2.4c5.2,1.6,10.5,2.9,15.7,4.2c2,0.5,2.7,1.1,2.3,3.6c-2.3,11.8-2.5,23.5,4,34.3c3.9,6.6,9.4,11.3,16.6,14
	c29.1,10.8,58.1,21.6,87.2,32.4C324.7,312.2,326.8,312.8,326.4,315.4z"/>
</svg>
