<?xml version="1.0" encoding="utf-8"?>
<!-- Generator: Adobe Illustrator 21.0.0, SVG Export Plug-In . SVG Version: 6.00 Build 0)  -->
<svg version="1.1" id="图层_1" xmlns="http://www.w3.org/2000/svg" xmlns:xlink="http://www.w3.org/1999/xlink" x="0px" y="0px"
	 viewBox="0 0 512 512" style="enable-background:new 0 0 512 512;" xml:space="preserve">
<path d="M255.7,6.6C117.8,6.5,5.9,118.2,5.7,256.2c-0.2,137.7,111.8,250,249.4,250.2c137.8,0.1,249.9-111.7,250.1-249.5
	C505.5,118.9,393.6,6.7,255.7,6.6z M343.3,476.6c-33.4,13.4-68.2,18.5-104.2,16.1c-45.6-3.1-87-18.1-123.9-45.1
	c-3.3-2.4-6.3-5.8-8.4-9.3c-7.4-12.4-14.7-24.8-21.2-37.7c-7.8-15.3-15.5-30.8-21.8-46.8c-11.8-29.9-14.7-61-9.2-92.7
	c5.2-29.9,17.8-56.3,37.7-79.3c18.3-21.2,39.7-38.1,65.1-50.1c16.8-7.9,34.5-12.8,52.8-15.7c17.9-2.9,35.8-6,53.6-9.2
	c1.7-0.3,3.3-1.6,4.9-2.6c14.3-8.1,28.6-16.3,42.9-24.5c0.2-0.1,0.6,0,1.3,0c-1.1,3.6-2,7-3.1,10.5c-3.4,11.3-7,22.6-10.3,34
	c-0.5,1.7-0.3,4,0.4,5.6c10.6,21.8,21.3,43.6,32.1,65.3c12.9,26.1,25.9,52.2,38.8,78.3c5.1,10.3,10.6,20.4,15.1,31
	c4.2,10,4.3,20.6,1.6,31.2c-0.2,0.7-0.4,1.4-0.6,2.3c4.9,1.5,9.7,3,14.5,4.5c1,0.3,2,0.5,3,0.8c2.2,0.8,3.1-0.1,3.7-2.3
	c3.9-14.8,3.1-29.5-1.5-43.9c-2.3-7.2-6.3-14-9.7-20.9c-6.4-13.1-12.9-26.2-19.4-39.3c-7.7-15.6-15.5-31.2-23.3-46.8
	c-10.5-21.2-21-42.4-31.4-63.6c-0.5-1-0.5-2.4-0.2-3.5c4.9-16.2,9.9-32.3,14.7-48.5c0.5-1.6,0.4-3.8-0.3-5.3
	c-2.9-6.4-6.2-12.7-9.2-19c-0.9-1.9-1.8-2.3-3.8-1.2c-17.7,9.9-35.5,19.7-53.2,29.6c-1.3,0.7-2.6,1.4-3.7,2.2
	c-10.3,7.5-22.7,7.7-34.6,10c-13.2,2.6-26.4,5.4-39.6,7.8c-11.6,2.1-22.8,5-33.7,9.4c-34.6,14-63.3,35.8-86.7,64.9
	c-9.4,11.7-17.9,24-24.2,37.6c-4.8,10.3-9.7,20.7-13,31.5c-6.1,19.5-7.7,39.7-6.6,60.1c0.8,14.3,3.1,28.2,7,42
	c0.1,0.5,0.2,1,0.3,1.5c0,0.1-0.2,0.3-0.7,1.1c-2.6-7.4-5.3-14.4-7.4-21.5c-17.9-62.2-13-122.5,17.7-179.6
	c32.7-60.7,83-100.6,149.7-118.1c57.3-15,113.1-9.5,166.1,17.1C417.7,72.7,457,116.8,479,176c12.3,33.1,16.3,67.5,13,102.6
	C483.7,367.4,426.7,443.2,343.3,476.6z M319.6,308.4c-27.7-10.2-55.4-20.5-83.1-30.7c-6.9-2.5-12.1-7.1-15.8-13.3
	c-6.2-10.3-6-21.4-3.8-32.6c0.4-2.3-0.2-2.9-2.2-3.4c-5-1.2-10.1-2.5-15-4c-2.5-0.8-3.2,0.3-3.5,2.3c-0.7,5.2-1.4,10.5-2,15.3
	c0.3,4.7,0.3,9,1.1,13.2c0.8,4.6,2.1,9.1,3.8,13.4c5.6,13.7,14.9,24.1,28.9,29.5c11.6,4.5,23.2,8.9,34.9,13
	c17.5,6.2,35,12.1,52.5,18.2c2.5,0.9,4,0.4,4.6-2.3c1-5,2.1-9.9,2.9-14.9C323.4,309.7,321.4,309.1,319.6,308.4z"/>
</svg>
