<svg version="1.1" xmlns="http://www.w3.org/2000/svg" xmlns:xlink="http://www.w3.org/1999/xlink" x="0px" y="0px"
	 viewBox="0 0 32 32" style="enable-background:new 0 0 32 32;" xml:space="preserve">
<g>
	<path d="M19.7,15.7c0.3,2.6,1.1,5.2,2.3,7.6l0.8,1.6c0.2,0.5,0.3,1,0.1,1.4h1.3c0.4,0,0.8,0.3,0.8,0.8c0,0.1,0,0.1,0,0.2h0.2
		c1.1,0,2,0.9,2,2l0,0v0c0,1.1-0.9,2-2,2l0,0H6.9c-1.1,0-2-0.9-2-2v0v0c0-1.1,0.9-2,2-2c0,0,0,0,0,0h0.2c-0.1-0.4,0.2-0.8,0.6-0.9
		c0.1,0,0.1,0,0.2,0h1c-0.2-0.5-0.1-1,0.1-1.5l0.9-1.7c1.3-2.3,2-4.9,2.2-7.5h-1.2c-1.1,0-2-0.9-2-2v0c0-1.1,0.9-2,2-2c0,0,0,0,0,0
		h2.3V11c-1.7-0.9-2.8-2.7-2.8-4.8c0-3,2.5-5.5,5.5-5.5s5.5,2.5,5.5,5.5c0,2-1.1,3.8-2.8,4.8v0.7h2.3c1.1,0,2,0.9,2,2c0,0,0,0,0,0v0
		c0,1.1-0.9,2-2,2c0,0,0,0,0,0H19.7z"/>
</g>
</svg>
