<svg width="513" height="514" xmlns="http://www.w3.org/2000/svg" p-id="5799" version="1.1" class="icon" t="1605507565426">
 <g>
  <path p-id="5800" d="m185.119056,356.61183c-10.460956,-9.12434 -18.306673,-20.529766 -36.613346,-18.24868c-36.613346,2.281085 -70.611454,0 -107.2248,0c-13.076195,0 -23.537151,2.281085 -23.537151,13.68651s13.076195,13.68651 23.537151,13.68651l135.992429,0c7.845717,0 18.306673,-2.281085 7.845717,-9.12434zm-143.838146,-100.367742c23.537151,0 44.459063,-2.281085 67.996215,0c26.15239,2.281085 47.074302,-4.56217 65.380975,-27.373021l-130.761951,0c-15.691434,0 -26.15239,0 -26.15239,13.68651c0,9.12434 10.460956,13.68651 23.537151,13.68651zm-7.845717,52.464956l78.457171,0c5.230478,0 15.691434,4.56217 18.306673,-6.843255c0,-9.12434 -2.615239,-15.967595 -13.076195,-18.24868c-28.767629,-2.281085 -57.535258,-2.281085 -86.302888,0c-7.845717,0 -15.691434,6.843255 -13.076195,13.68651c2.615239,6.843255 7.845717,11.405425 15.691434,11.405425zm460.282067,-114.054253c-10.460956,-20.529766 -31.382868,-11.405425 -47.074302,-11.405425c-15.691434,0 -31.382868,15.967595 -44.459063,4.56217c-10.460956,-9.12434 -18.306673,-25.091936 -23.537151,-36.497361c-7.845717,-18.24868 -23.537151,-29.654106 -33.998107,-47.902786c44.459063,15.967595 70.611454,0 83.687649,-18.24868c15.691434,-20.529766 10.460956,-50.183871 -10.460956,-66.151467c-20.921912,-15.967595 -52.30478,-18.24868 -73.226693,-6.843255c-28.767629,15.967595 -33.998107,38.778446 -13.076195,82.119062c-31.382868,-9.12434 -57.535258,-22.810851 -86.302888,-31.935191c-13.076195,-2.281085 -23.537151,-13.68651 -36.613346,-9.12434c-33.998107,13.68651 -67.996215,25.091936 -101.994322,41.059531c-20.921912,9.12434 -26.15239,20.529766 -15.691434,34.216276c7.845717,11.405425 26.15239,15.967595 41.843824,9.12434c15.691434,-6.843255 31.382868,-11.405425 44.459063,-18.24868c23.537151,-11.405425 47.074302,-11.405425 70.611454,2.281085c15.691434,9.12434 13.076195,13.68651 2.615239,25.091936c-26.15239,20.529766 -52.30478,41.059531 -75.841932,66.151467c-15.691434,18.24868 -15.691434,36.497361 2.615239,52.464956c23.537151,20.529766 47.074302,38.778446 70.611454,57.027126c7.845717,6.843255 13.076195,11.405425 -2.615239,13.68651c-23.537151,4.56217 -44.459063,9.12434 -67.996215,13.68651c-15.691434,2.281085 -31.382868,15.967595 -28.767629,29.654106c2.615239,13.68651 23.537151,22.810851 41.843824,20.529766c44.459063,-9.12434 91.533366,-18.24868 135.992429,-27.373021c23.537151,-4.56217 33.998107,-25.091936 20.921912,-41.059531s-26.15239,-29.654106 -39.228585,-45.621701c-28.767629,-36.497361 -28.767629,-36.497361 7.845717,-68.432552c20.921912,-18.24868 20.921912,-18.24868 36.613346,4.56217c7.845717,9.12434 13.076195,22.810851 31.382868,20.529766c33.998107,-2.281085 67.996215,-9.12434 99.379083,-18.24868c10.460956,-2.281085 15.691434,-18.24868 10.460956,-29.654106zm-169.990536,184.76789c-15.691434,11.405425 -39.228585,4.56217 -57.535258,13.68651c-5.230478,2.281085 -10.460956,6.843255 -13.076195,11.405425c-15.691434,20.529766 -31.382868,43.340616 -47.074302,66.151467c-10.460956,13.68651 -5.230478,22.810851 5.230478,31.935191c13.076195,9.12434 28.767629,9.12434 39.228585,-4.56217l86.302888,-102.648828c5.230478,-11.405425 -2.615239,-13.68651 -13.076195,-15.967595z"/>
 </g>
</svg>