<svg version="1.1" xmlns="http://www.w3.org/2000/svg" xmlns:xlink="http://www.w3.org/1999/xlink" x="0px" y="0px"
	 viewBox="0 0 32 32" style="enable-background:new 0 0 32 32;" xml:space="preserve">
<g>
	<g>
		<path d="M14.4,6.7c-4.2,0-7.7,3.4-7.7,7.7s3.4,7.7,7.7,7.7s7.7-3.4,7.7-7.7S18.6,6.7,14.4,6.7z M25.8,23.3c1.9-2.4,3-5.5,3-8.8
			c0-7.9-6.5-14.4-14.4-14.4C6.6,0.1,0.1,6.6,0.1,14.5c0,7.9,6.5,14.4,14.4,14.4c3.3,0,6.4-1.1,8.8-3l6,6l2.5-2.5L25.8,23.3z
			 M14.5,25.3c-5.9,0-10.8-4.9-10.8-10.8c0-5.9,4.9-10.8,10.8-10.8c5.9,0,10.8,4.9,10.8,10.8C25.3,20.4,20.4,25.3,14.5,25.3z"/>
	</g>
</g>
</svg>
