<?xml version="1.0" standalone="no"?><!DOCTYPE svg PUBLIC "-//W3C//DTD SVG 1.1//EN" "http://www.w3.org/Graphics/SVG/1.1/DTD/svg11.dtd"><svg t="1585279578324" class="icon" viewBox="0 0 1024 1024" version="1.1" xmlns="http://www.w3.org/2000/svg" p-id="17595" xmlns:xlink="http://www.w3.org/1999/xlink" width="200" height="200"><defs><style type="text/css"></style></defs><path d="M329.810053 413.755442l367.816157-1.721201L520.74364 875.05369 329.810053 413.755442zM371.963105 245.934249l280.201703 2.581802 49.593512 112.741737-363.683023-2.581802L371.963105 245.934249zM291.788088 355.233584 70.271972 258.843256l119.023814-92.087325 142.16793 76.596516L291.788088 355.233584zM70.271972 314.784336l209.94457 97.250928 225.64925 459.575L70.271972 314.784336zM750.526023 411.175687l196.71936-105.857956L533.142018 869.028463 750.526023 411.175687zM746.39289 354.372983l-55.378262-118.766964 126.462227-73.15309 109.104907 95.529727L746.39289 354.372983zM367.830995 189.132568l-47.940872-12.910031-90.093924-52.497655 105.799628-39.588647 345.498872 0 104.972796 45.61285-100.839663 50.777477-33.888831 8.606005L367.830995 189.132568z" p-id="17596"></path></svg>