<?xml version="1.0" encoding="iso-8859-1"?>
<!-- Generator: Adobe Illustrator 22.1.0, SVG Export Plug-In . SVG Version: 6.00 Build 0)  -->
<svg version="1.1" id="&#x56FE;&#x5C42;_1" xmlns="http://www.w3.org/2000/svg" xmlns:xlink="http://www.w3.org/1999/xlink" x="0px"
	 y="0px" viewBox="0 0 612 792" style="enable-background:new 0 0 612 792;" xml:space="preserve">
<g>
	<path d="M241.118,387.342c1.28,0,2.56,0,3.84,0c0.302,0.083,0.6,0.188,0.907,0.247c4.735,0.914,8.48,3.333,11.216,7.317
		c1.474,2.147,2.15,4.596,2.757,7.076c0,1.52,0,3.04,0,4.56c-0.088,0.255-0.204,0.503-0.261,0.765
		c-1.333,6.056-4.863,10.269-10.617,12.576c-1.133,0.454-2.346,0.711-3.522,1.059c-1.6,0-3.2,0-4.8,0
		c-0.257-0.087-0.508-0.197-0.771-0.258c-6.048-1.395-10.293-4.918-12.546-10.726c-0.485-1.25-0.728-2.595-1.083-3.896
		c0-1.28,0-2.56,0-3.84c0.089-0.297,0.202-0.589,0.264-0.892c1.287-6.324,4.931-10.672,10.957-12.975
		C238.636,387.905,239.896,387.674,241.118,387.342z M246.767,392.375c-1.103,0.586-2.1,1.279-3.205,1.657
		c-1.16,0.397-2.421,0.501-3.641,0.716c-8.723,1.54-12.861,9.628-9.096,17.585c1.465,3.096,3.211,5.586,6.699,6.823
		c11.335,4.023,22.953-5.186,21.384-17.102c-1.109-8.425-8.52-14.346-17.223-13.76c-8.101,0.545-14.686,7.681-14.586,15.917
		c0.02,1.653,0.398,3.302,0.61,4.953c0.112-0.017,0.224-0.034,0.335-0.052c-0.476-3.311-0.319-5.153,1.083-7.905
		c2.111-4.146,5.356-6.903,10.081-7.654c2.501-0.398,4.906-1.05,7.039-2.494c0.483-0.327,1.021-0.573,1.518-0.847
		c0.814,0.948,0.905,1.86,0.467,2.941c-0.438,1.081-0.812,2.138-0.138,3.397c1.695,3.168,3.221,6.426,4.819,9.645
		c0.592,1.193,0.74,2.417,0.32,3.811c-0.451-0.139-0.852-0.263-1.253-0.386c0.097-0.058,0.194-0.115,0.291-0.173
		c-0.311-1.04-0.503-2.135-0.955-3.109c-1.26-2.716-2.531-5.437-3.987-8.05c-1.008-1.808-1.579-3.521-0.567-5.476
		C246.808,392.723,246.767,392.589,246.767,392.375z"/>
	<path style="fill:#FFFFFF;" d="M241.118,387.342c-1.222,0.332-2.482,0.564-3.659,1.013c-6.026,2.304-9.67,6.651-10.957,12.975
		c-0.062,0.303-0.175,0.595-0.264,0.892c0-4.96,0-9.92,0-14.88C231.198,387.342,236.158,387.342,241.118,387.342z"/>
	<path style="fill:#FFFFFF;" d="M259.838,401.982c-0.607-2.48-1.283-4.929-2.757-7.076c-2.736-3.984-6.481-6.403-11.216-7.317
		c-0.307-0.059-0.605-0.164-0.907-0.247c4.96,0,9.92,0,14.88,0C259.838,392.222,259.838,397.102,259.838,401.982z"/>
	<path style="fill:#FFFFFF;" d="M226.238,406.062c0.354,1.301,0.597,2.646,1.083,3.896c2.253,5.808,6.498,9.331,12.546,10.726
		c0.263,0.061,0.515,0.171,0.771,0.258c-4.78,0-9.561,0-14.4,0C226.238,415.982,226.238,411.022,226.238,406.062z"/>
	<path style="fill:#FFFFFF;" d="M245.438,420.942c1.176-0.348,2.389-0.605,3.522-1.059c5.754-2.307,9.284-6.52,10.617-12.576
		c0.058-0.261,0.173-0.51,0.261-0.765c0,4.8,0,9.6,0,14.4C255.038,420.942,250.238,420.942,245.438,420.942z"/>
	<path style="fill:#FFFFFF;" d="M246.767,392.375c0,0.214,0.04,0.347-0.006,0.436c-1.011,1.955-0.441,3.668,0.567,5.476
		c1.456,2.613,2.727,5.334,3.987,8.05c0.452,0.974,0.644,2.069,0.955,3.109c-0.097,0.058-0.194,0.115-0.291,0.173
		c0.401,0.124,0.802,0.247,1.253,0.386c0.42-1.394,0.272-2.618-0.32-3.811c-1.598-3.219-3.124-6.477-4.819-9.645
		c-0.674-1.259-0.3-2.316,0.138-3.397c0.438-1.08,0.347-1.993-0.467-2.941c-0.497,0.274-1.035,0.52-1.518,0.847
		c-2.133,1.444-4.538,2.096-7.039,2.494c-4.725,0.751-7.97,3.509-10.081,7.654c-1.402,2.753-1.559,4.594-1.083,7.905
		c-0.112,0.017-0.224,0.034-0.335,0.052c-0.213-1.651-0.59-3.3-0.61-4.953c-0.1-8.236,6.485-15.372,14.586-15.917
		c8.703-0.586,16.114,5.335,17.223,13.76c1.569,11.916-10.049,21.125-21.384,17.102c-3.488-1.238-5.234-3.727-6.699-6.823
		c-3.765-7.957,0.374-16.045,9.096-17.585c1.22-0.215,2.481-0.319,3.641-0.716C244.667,393.654,245.664,392.961,246.767,392.375z
		 M240.351,402.269c-0.417-0.082-0.788-0.155-1.151-0.226c-0.537,2.033-0.046,3.868,1.511,4.603c2.076,0.98,4.281,1.685,6.536,2.548
		c0.155-0.596,0.249-0.961,0.37-1.426c-1.531-0.565-2.977-1.124-4.441-1.631C240.685,405.274,240.438,404.97,240.351,402.269z"/>
	<path d="M240.351,402.269c0.087,2.701,0.334,3.005,2.826,3.868c1.464,0.507,2.91,1.067,4.441,1.631
		c-0.121,0.465-0.215,0.83-0.37,1.426c-2.255-0.863-4.46-1.569-6.536-2.548c-1.557-0.735-2.048-2.57-1.511-4.603
		C239.563,402.114,239.934,402.187,240.351,402.269z"/>
</g>
</svg>
