<?xml version="1.0" encoding="iso-8859-1"?>
<!-- Generator: Adobe Illustrator 22.1.0, SVG Export Plug-In . SVG Version: 6.00 Build 0)  -->
<svg version="1.1" id="&#x56FE;&#x5C42;_1" xmlns="http://www.w3.org/2000/svg" xmlns:xlink="http://www.w3.org/1999/xlink" x="0px"
	 y="0px" viewBox="0 0 45 45" style="enable-background:new 0 0 45 45;" xml:space="preserve">
<path style="fill:none;" d="M26.583,27.25l-5.667-2.167c0,0-2.5-1.25-1.5-3.917"/>
<g>
	<path style="fill:none;stroke:#230000;stroke-miterlimit:10;" d="M31.708,28.583c0,0,0.5-1.667,0-2.875l-5.583-11l1.208-4.333
		l-4.375,2.25l-4.542,0.833c0,0-11.042,2.125-9.708,13.625c0,0,0.667,5.042,3.75,8.167c0,0,11.333,9.917,22.667-2.667
		c0,0,7.708-9.375-0.708-20.042c0,0-8.542-9.833-20.25-2.958c0,0-8.792,4.5-7.375,15.917c0,0,0.542,4.042,4.289,8.014"/>
	<path style="fill:none;stroke:#230000;stroke-miterlimit:10;" d="M26.583,27.917l-5.667-1.708c0,0-2.699-1.721-1.724-4.048"/>
</g>
</svg>
