<?xml version="1.0" standalone="no"?><!DOCTYPE svg PUBLIC "-//W3C//DTD SVG 1.1//EN" "http://www.w3.org/Graphics/SVG/1.1/DTD/svg11.dtd"><svg t="1608643765687" class="icon" viewBox="0 0 1117 1024" version="1.1" xmlns="http://www.w3.org/2000/svg" p-id="1144" xmlns:xlink="http://www.w3.org/1999/xlink" width="279.25" height="256"><defs><style type="text/css"></style></defs><path d="M475.10634073 721.27454537L789.83 200.79431853c15.876-26.70054537 28.86545463-49.16147683 38.78795463-67.473 9.9225-18.22131853 14.88375-31.4813861 14.88375-39.41938706 0-9.29106853-8.47922683-16.5976361-25.43768146-21.73929537l-69.9987278-18.94295463L754.65022683 15.875c67.65340927 1.44327317 129.17290927 2.16490927 184.91931854 2.16490927 55.65620463 0 108.60627317-0.81184073 158.76-2.16490927l-4.51022684 35.81120463-82.80777316 21.91970464a128.09045463 128.09045463 0 0 0-55.566 33.64629536c-12.71884073 14.07190927-24.35522683 29.13606853-34.54834074 45.1022722l-533.1088639 850.1778417-78.92897683 5.59268147L152.98590927 162.90840927a423.05931853 423.05931853 0 0 0-9.38127317-40.59204537 98.77397683 98.77397683 0 0 0-10.82454537-25.61809073C125.0225 84.6108639 112.3938639 76.1316361 94.9843861 71.441L15.875 51.68620463 21.1068639 15.875c154.5203861 2.7061361 309.13097683 2.7061361 463.65136293 0l-3.60818146 35.81120463-72.34404537 19.75479537a82.6273639 82.6273639 0 0 0-25.70829537 12.6286361c-6.6751361 5.2318639-10.10290927 15.24456853-10.10290926 30.3087278 0 14.43272683 3.78859073 42.57654537 11.27556853 84.34125L475.19654537 721.27454537z m611.04559074 191.86506853v90.65556757H719.47045463v-10.55393147c0-52.22843147 17.1388639-97.15029537 51.8676139-135.30681853 18.76254537-21.1078639 57.5505-51.41659073 115.5520222-90.20454537 29.4968861-20.02540927 51.95781853-37.9761139 66.0297278-52.3186361 19.845-21.91970463 29.7675-45.19247683 29.7675-69.4575 0-23.0923639-6.31431853-40.14102317-17.8605-50.8753639-12.1776139-10.73434073-30.94015927-16.23681853-57.18968243-16.23681757-27.15156853 0-46.72595463 8.74984073-60.07622683 26.42993147-13.53068147 16.77804537-21.28827317 43.659-22.5511361 79.6506139l-0.45102317 10.19311293H722.17659073l0.18040927-10.73434073c0.7216361-56.73865927 17.68009073-102.38215927 51.23618147-137.29131757 34.72875-37.4348861 80.55265927-56.19743147 136.9305-56.19743243 50.3341361 0 92.36945463 14.43272683 125.74513706 43.29818243 32.92465927 29.13606853 49.25168147 66.48075 49.25168147 112.48506757 0 44.20022683-17.31927317 84.52165927-51.41659073 121.41531853-19.39397683 20.20581853-53.13047683 45.6435-104.4568639 79.28979537-38.33693147 24.5356361-64.67665927 46.63575-79.1093861 65.7591139h235.70447683z" p-id="1145" fill="#bfbfbf"></path></svg>