<?xml version="1.0" encoding="utf-8"?>
<!-- Generator: Adobe Illustrator 21.0.0, SVG Export Plug-In . SVG Version: 6.00 Build 0)  -->
<svg version="1.1" id="图层_1" xmlns="http://www.w3.org/2000/svg" xmlns:xlink="http://www.w3.org/1999/xlink" x="0px" y="0px"
	 viewBox="0 0 256 256" style="enable-background:new 0 0 256 256;" xml:space="preserve">
<style type="text/css">
	.st0{opacity:0.3;fill:#575757;enable-background:new    ;}
	.st1{fill:url(#SVGID_1_);}
	.st2{opacity:0.2;fill:#575757;enable-background:new    ;}
	.st3{fill:url(#SVGID_2_);}
	.st4{fill:url(#SVGID_3_);}
	.st5{fill:#A1BFBE;}
	.st6{opacity:0.8;fill:#83B2AB;enable-background:new    ;}
	.st7{fill:url(#SVGID_4_);}
	.st8{fill:#FFFFFF;}
	.st9{fill:#D9EBEB;}
	.st10{fill:url(#SVGID_5_);}
	.st11{fill:#62BCB8;}
	.st12{opacity:0.7;fill:#7DB2A8;enable-background:new    ;}
	.st13{fill:#FFFFFA;}
</style>
<path class="st0" d="M234.4,124.8c-7.9-9.8-14.9-18.6-21.4-26.9c-2-10.6-4.2-21.9-6.7-33.6c-1.1-5.2-5.4-9.5-10.6-10.6
	c-11.6-2.5-22.8-4.7-33.4-6.7c-8.3-6.5-17.1-13.5-26.9-21.5c-2.2-1.7-4.7-2.6-7.3-2.6l0,0c-2.6,0-5.1,0.9-7.2,2.6
	C111,33.5,102.1,40.6,93.9,47c-10.6,2-21.9,4.2-33.5,6.7c-5.2,1.1-9.5,5.4-10.6,10.6c-2.6,11.7-4.9,23-6.8,33.6
	c-6.5,8.2-13.5,17-21.4,26.9c-1.7,2.1-2.6,4.6-2.6,7.2c0,2.6,0.9,5.1,2.6,7.2c7.9,9.9,14.9,18.6,21.5,26.9
	c1.9,10.6,4.2,21.8,6.7,33.5c1.1,5.2,5.4,9.5,10.6,10.6c11.7,2.5,23,4.8,33.6,6.8c8.2,6.5,17,13.5,26.8,21.4
	c2.1,1.7,4.6,2.6,7.2,2.6c2.6,0,5.1-0.9,7.2-2.6c9.8-7.9,18.6-14.9,26.9-21.5c10.6-1.9,21.9-4.2,33.5-6.7c5.2-1.1,9.5-5.4,10.6-10.6
	c2.5-11.6,4.8-22.9,6.7-33.5c6.5-8.2,13.5-17,21.5-26.9c1.7-2.1,2.6-4.6,2.6-7.2C237,129.4,236.1,126.9,234.4,124.8z M233.5,130.3
	c-0.1-0.3-0.1-0.4-0.2-0.6C233.3,129.9,233.4,130.1,233.5,130.3z M231.8,126.9c0.3,0.4,0.6,0.8,0.8,1.2c0.3,0.4,0.4,0.8,0.6,1.2
	c-0.2-0.4-0.4-0.9-0.6-1.2C232.3,127.7,232.1,127.3,231.8,126.9c-4.5-5.6-9-11.3-13.6-17C222.7,115.7,227.3,121.3,231.8,126.9z
	 M232.9,135.2c0,0.1-0.1,0.2-0.1,0.3C232.8,135.4,232.9,135.3,232.9,135.2z M232.5,136.1c-0.1,0.1-0.1,0.2-0.2,0.3
	C232.3,136.4,232.4,136.2,232.5,136.1z M232.1,136.7c-0.1,0.2-0.2,0.3-0.4,0.4C232,136.9,232.1,136.8,232.1,136.7z M207.4,86.6
	c0.9,4.2,1.7,8.6,2.5,12.8c1.9,2.4,3.7,4.7,5.6,7c-1.9-2.3-3.7-4.7-5.6-7C209.1,95.2,208.2,90.8,207.4,86.6
	c-0.5-2.8-1.1-5.7-1.8-8.6C206.3,80.8,206.8,83.8,207.4,86.6z M194.9,57.1c1.2,0.3,2.4,0.8,3.4,1.4c0.2,0.2,0.4,0.3,0.6,0.4
	c0.5,0.4,1,0.8,1.4,1.2c0.2,0.2,0.4,0.4,0.5,0.5c-0.2-0.2-0.4-0.4-0.5-0.5c-0.4-0.4-0.9-0.9-1.4-1.2c-0.2-0.2-0.4-0.3-0.6-0.4
	C197.3,57.9,196.1,57.4,194.9,57.1c-2.8-0.6-5.7-1.2-8.6-1.8C189.2,55.9,192,56.5,194.9,57.1z M157.2,47.5c-3.5-2.7-7-5.6-10.5-8.3
	c-1.7-1.3-3.4-2.6-4.9-4c1.7,1.3,3.3,2.6,4.9,4C150.3,41.9,153.7,44.7,157.2,47.5z M128,26.4L128,26.4L128,26.4L128,26.4z
	 M132.6,27.9L132.6,27.9L132.6,27.9z M132.4,27.8c-0.1,0-0.1-0.1-0.2-0.1C132.3,27.7,132.4,27.8,132.4,27.8z M132.2,27.6
	c-0.1,0-0.1-0.1-0.2-0.1C132,27.5,132.1,27.5,132.2,27.6z M131.8,27.4c-0.1,0-0.1-0.1-0.2-0.1C131.7,27.3,131.7,27.3,131.8,27.4z
	 M131.5,27.2c-0.1,0-0.1-0.1-0.2-0.1C131.4,27.1,131.5,27.2,131.5,27.2z M131.2,27.1c-0.1,0-0.1-0.1-0.2-0.1
	C131.1,27.1,131.1,27.1,131.2,27.1z M130.9,27c-0.1,0-0.2-0.1-0.3-0.1C130.7,26.9,130.8,27,130.9,27z M130.6,26.9
	c-0.1,0-0.2-0.1-0.3-0.1C130.4,26.8,130.5,26.8,130.6,26.9z M130.1,26.7c-0.1,0-0.1,0-0.2,0C130,26.7,130.1,26.7,130.1,26.7z
	 M129.8,26.6L129.8,26.6L129.8,26.6z M129.5,26.6c-0.1,0-0.1,0-0.2,0C129.4,26.5,129.5,26.5,129.5,26.6z M129.2,26.5
	c-0.1,0-0.1,0-0.2,0C129.1,26.5,129.2,26.5,129.2,26.5z M128.8,26.4L128.8,26.4C128.7,26.4,128.7,26.4,128.8,26.4z M128.4,26.4
	c-0.1,0-0.1,0-0.2,0C128.4,26.4,128.4,26.4,128.4,26.4z M127,237.6L127,237.6C126.9,237.5,126.9,237.5,127,237.6z M126.7,237.5
	c-0.1,0-0.2,0-0.2,0S126.6,237.5,126.7,237.5z M126.3,237.5c-0.1,0-0.2,0-0.3-0.1C126.2,237.5,126.2,237.5,126.3,237.5z M126,237.4
	L126,237.4L126,237.4z M124.6,236.9L124.6,236.9L124.6,236.9z M124.4,236.7C124.4,236.7,124.3,236.7,124.4,236.7
	C124.3,236.7,124.4,236.7,124.4,236.7z M124,236.6C124,236.6,123.9,236.6,124,236.6C124,236.6,124,236.6,124,236.6z M95.3,50.2
	c2.4-1.9,4.7-3.7,7-5.6C100,46.5,97.7,48.3,95.3,50.2c-5.7,1.1-11.4,2.2-17,3.4C83.9,52.4,89.7,51.3,95.3,50.2z M49.5,82.3
	c-0.5,2.8-1.1,5.7-1.7,8.6c-0.4,1.7-0.6,3.4-1,5c0.4-1.7,0.6-3.4,1-5C48.3,88,49,85.2,49.5,82.3z M42.9,103.6
	c-1.5,1.9-2.9,3.7-4.4,5.6C39.9,107.3,41.4,105.4,42.9,103.6z M22.5,131c0-0.4,0.1-0.7,0.2-1C22.5,130.3,22.5,130.7,22.5,131
	c0,0.4-0.1,0.7-0.1,1C22.4,131.7,22.5,131.4,22.5,131z M22.5,132.7c0-0.3,0-0.4,0-0.7C22.4,132.3,22.4,132.5,22.5,132.7
	c0,0.4,0.1,0.9,0.3,1.3C22.5,133.6,22.5,133.1,22.5,132.7z M46.2,164.8c-7.4-9.4-14.8-18.6-22-27.6c-0.2-0.2-0.3-0.4-0.4-0.6
	c-0.2-0.3-0.4-0.6-0.5-0.9c-0.2-0.4-0.4-0.9-0.5-1.3c0.2,0.4,0.3,0.9,0.5,1.3c0.2,0.4,0.4,0.6,0.5,0.9c0.2,0.2,0.3,0.4,0.4,0.6
	C31.5,146.1,38.8,155.4,46.2,164.8c0.5,2.8,1.1,5.7,1.6,8.5C47.3,170.4,46.7,167.6,46.2,164.8z M53,198.9c-0.9-4.3-1.9-8.6-2.6-12.9
	C51.3,190.4,52.1,194.6,53,198.9c0.1,0.5,0.3,1,0.4,1.4C53.3,199.9,53.2,199.4,53,198.9z M66.2,208c-1.7-0.4-3.4-0.7-5-1.1
	C62.8,207.3,64.5,207.7,66.2,208z M95.4,213.9c-1.4-0.3-2.8-0.5-4.2-0.8C92.6,213.3,94,213.6,95.4,213.9c1.1,0.9,2.3,1.9,3.5,2.7
	C97.7,215.7,96.6,214.8,95.4,213.9z M128,237.6L128,237.6L128,237.6c-0.1,0-0.1,0-0.2,0C127.9,237.6,127.9,237.6,128,237.6
	c0.4,0,0.9,0,1.3-0.1c0.6-0.1,1.2-0.3,1.8-0.5c-0.6,0.3-1.1,0.4-1.8,0.5C128.9,237.6,128.4,237.6,128,237.6z M127.2,237.6
	c0.1,0,0.1,0,0.2,0C127.3,237.6,127.2,237.6,127.2,237.6z M127.5,237.6c0.1,0,0.1,0,0.2,0C127.6,237.6,127.6,237.6,127.5,237.6z
	 M133.1,235.8c-0.2,0.1-0.3,0.3-0.4,0.4C132.9,236,133,236,133.1,235.8c2.8-2.3,5.7-4.6,8.7-7C138.9,231.2,136,233.5,133.1,235.8z
	 M132.2,236.5c0.1-0.1,0.2-0.1,0.3-0.2C132.3,236.4,132.2,236.5,132.2,236.5z M233.6,132.3c0,0.3,0,0.4-0.1,0.7c0,0.4-0.1,0.7-0.2,1
	c0.1-0.4,0.2-0.7,0.2-1C233.6,132.8,233.6,132.6,233.6,132.3c0-0.4,0-0.7,0-1s-0.1-0.4-0.1-0.7c0,0.3,0.1,0.4,0.1,0.7
	C233.6,131.7,233.6,132.1,233.6,132.3z"/>
<linearGradient id="SVGID_1_" gradientUnits="userSpaceOnUse" x1="128.0613" y1="237.6848" x2="128.0613" y2="26.5859" gradientTransform="matrix(1 0 0 -1 0 256)">
	<stop  offset="0" style="stop-color:#C8E4DE"/>
	<stop  offset="1" style="stop-color:#85BEC0"/>
</linearGradient>
<path class="st1" d="M231.8,118.7c-7.2-8.9-14.5-18.1-21.9-27.5c-2.1-11.4-4.4-22.8-6.9-34.3c-0.9-3.9-4.2-7.2-8-8
	c-11.4-2.5-22.8-4.7-34.1-6.8c-9.5-7.4-18.6-14.8-27.6-22c-1.5-1.2-3.4-1.9-5.1-1.9c-1.8,0-3.6,0.6-5.1,1.9
	c-8.9,7.2-18.1,14.6-27.6,21.9C84,44.2,72.6,46.5,61.1,49c-3.9,0.9-7.2,4.2-8,8c-2.5,11.5-4.8,22.9-6.9,34.2
	c-7.4,9.4-14.8,18.6-21.9,27.6c-2.5,3.1-2.5,7.2,0,10.2c7.2,9,14.6,18.2,22,27.6c2.1,11.3,4.4,22.7,6.9,34.2c0.9,3.9,4.2,7.2,8,8
	c11.5,2.5,23,4.8,34.4,6.9c9.4,7.4,18.5,14.8,27.5,21.9c1.5,1.2,3.4,1.9,5.1,1.9c1.8,0,3.6-0.6,5.1-1.9c8.9-7.2,18.2-14.6,27.6-22
	c11.3-2.1,22.7-4.4,34.2-6.9c3.9-0.9,7.2-4.2,8-8c2.5-11.5,4.8-22.9,6.9-34.2c7.4-9.4,14.8-18.6,22-27.6
	C234.3,125.9,234.3,121.7,231.8,118.7z"/>
<circle class="st2" cx="128" cy="128.4" r="79.8"/>
<linearGradient id="SVGID_2_" gradientUnits="userSpaceOnUse" x1="128.0058" y1="213.4835" x2="128.0058" y2="53.9669" gradientTransform="matrix(1 0 0 -1 0 256)">
	<stop  offset="0" style="stop-color:#E6F0F4"/>
	<stop  offset="1" style="stop-color:#D7F1ED"/>
</linearGradient>
<circle class="st3" cx="128" cy="122.3" r="79.8"/>
<linearGradient id="SVGID_3_" gradientUnits="userSpaceOnUse" x1="128.0058" y1="202.0011" x2="128.0058" y2="65.4493" gradientTransform="matrix(1 0 0 -1 0 256)">
	<stop  offset="0" style="stop-color:#B5D9D8"/>
	<stop  offset="1" style="stop-color:#82B8B8"/>
</linearGradient>
<circle class="st4" cx="128" cy="122.3" r="68.3"/>
<path class="st5" d="M128,57.4c37.1,0,67.3,29.7,68.2,66.6c0-0.5,0-1.1,0-1.7c0-37.7-30.6-68.3-68.3-68.3s-68.3,30.6-68.3,68.3
	c0,0.5,0,1.1,0,1.7C60.7,87,90.9,57.4,128,57.4z"/>
<circle class="st6" cx="128" cy="127.3" r="48.3"/>
<linearGradient id="SVGID_4_" gradientUnits="userSpaceOnUse" x1="128.0058" y1="182.0395" x2="128.0058" y2="85.4109" gradientTransform="matrix(1 0 0 -1 0 256)">
	<stop  offset="0" style="stop-color:#E6F0F4"/>
	<stop  offset="1" style="stop-color:#D7F1ED"/>
</linearGradient>
<circle class="st7" cx="128" cy="122.3" r="48.3"/>
<path class="st8" d="M128,163.8c-25.5,0-46.5-19.8-48.1-44.9c-0.1,1.1-0.1,2.3-0.1,3.4c0,26.7,21.6,48.3,48.3,48.3
	s48.3-21.6,48.3-48.3c0-1.1,0-2.3-0.1-3.4C174.5,144,153.5,163.8,128,163.8z"/>
<g>
	<path class="st9" d="M77.5,97.1c-0.4,0-0.9-0.1-1.2-0.4c-1.2-0.7-1.6-2.2-0.9-3.4c0.2-0.3,4.4-7.4,12.5-14.8
		c10.8-9.9,23.4-15.5,36.4-16.3c1.4-0.1,2.6,1,2.6,2.4c0.1,1.4-1,2.6-2.4,2.6c-11.9,0.7-23.1,5.7-33.2,14.9
		C83.8,89,79.7,95.9,79.6,95.9C79.2,96.7,78.4,97.1,77.5,97.1z"/>
</g>
<g>
	<path class="st9" d="M69.8,129.1L69.8,129.1c-1.5-0.1-2.6-1.2-2.5-2.6c0-0.4,0-1.1,0-1.8c-0.1-3.4-0.1-9.1,1-12.5
		c0.4-1.3,1.9-2,3.2-1.6s2,1.9,1.6,3.2c-0.9,2.6-0.8,7.9-0.7,10.8c0,0.9,0,1.6,0,2C72.3,127.9,71.1,129.1,69.8,129.1z"/>
</g>
<linearGradient id="SVGID_5_" gradientUnits="userSpaceOnUse" x1="127.9175" y1="161.1062" x2="127.9175" y2="113.4986" gradientTransform="matrix(1 0 0 -1 0 256)">
	<stop  offset="0" style="stop-color:#C8E4DE"/>
	<stop  offset="1" style="stop-color:#85BEC0"/>
</linearGradient>
<polygon class="st10" points="102.9,112.1 119.8,110.9 128.3,94.9 136.3,110.3 152.9,112.1 140.9,125.5 143.8,142.5 127.9,134.5 
	112.9,142.5 115.3,124.4 "/>
<g>
	<polygon class="st11" points="119.8,113.6 128.3,97.6 136.3,113.1 150.6,114.7 152.9,112.1 136.3,110.3 128.3,94.9 119.8,110.9 
		102.9,112.1 105.6,114.7 	"/>
	<polygon class="st11" points="114.9,126.9 112.9,142.5 113.3,142.2 115.3,127.2 	"/>
	<polygon class="st11" points="140.9,128.4 143.3,142.2 143.8,142.5 141.3,127.8 	"/>
</g>
<path class="st12" d="M128.3,98.1l7.9,15.4l16.7,1.9l-12,13.4l2.9,17l-15.9-7.9l-15,7.9l2.4-18L103,115.4l16.8-1.2L128.3,98.1
	 M128.3,87.7c-2.2,0-4.2,5.6-5.2,7.5l-7,13.1l-13.6,1.1c-2.3,0.2-8,0.9-8.8,3.1c-0.8,2.1,3.5,5.3,5.1,7l10.2,10.2l-2,15.2
	c-0.3,2.2-1.8,7.9,0,9.2c1.7,0.7,7.7-2.7,8.6-3.2l12.4-6.5l13.2,6.6c0.8,0.4,7.2,3.4,8.3,2.6c1.8-1.3,0.5-6.6,0.1-8.8l-2.5-14.1
	l10.2-11.3c1.5-1.7,5.8-5.1,5-7.2c-0.8-2-6.6-2.3-8.8-2.6l-13.5-1.5l-6.5-12.6C132.5,93.4,130.5,87.7,128.3,87.7L128.3,87.7
	L128.3,87.7z"/>
<path class="st8" d="M128.3,94.9l7.9,15.4l16.7,1.9l-12,13.4l2.9,17l-15.9-7.9l-15,7.9l2.4-18L103,112.2l16.8-1.2L128.3,94.9
	 M128.3,84.6c-2.2,0-4.2,5.6-5.2,7.5l-7,13.1l-13.6,1.1c-2.3,0.2-8,0.9-8.8,3.1c-0.8,2.1,3.5,5.3,5.1,7l10.2,10.2l-2,15.2
	c-0.3,2.2-1.8,7.9,0,9.2c1.7,0.7,7.7-2.7,8.6-3.2l12.4-6.5l13.2,6.6c0.8,0.4,7.2,3.4,8.3,2.6c1.8-1.3,0.5-6.6,0.1-8.8l-2.5-14.1
	l10.2-11.3c1.5-1.7,5.8-5.1,5-7.2c-0.8-2-6.6-2.3-8.8-2.6l-13.5-1.5l-6.5-12.6C132.5,90.2,130.5,84.6,128.3,84.6L128.3,84.6
	L128.3,84.6z"/>
<path class="st13" d="M84.5,147.8h-0.9c0,3.3-2.6,5.8-5.8,5.8v0.9c3.3,0,5.8,2.6,5.8,5.8h0.9c0-3.2,2.6-5.8,5.8-5.8v-0.9
	C87.2,153.6,84.5,151.1,84.5,147.8z"/>
<path class="st13" d="M154.2,75.1h-0.5c0,2.1-1.8,3.9-3.9,3.9v0.6c2.1,0,3.9,1.8,3.9,3.9h0.6c0-2.1,1.8-3.9,3.9-3.9V79
	C155.9,79.1,154.2,77.3,154.2,75.1z"/>
<path class="st13" d="M163.3,162.2H163c0,1.3-1.1,2.3-2.3,2.3v0.4c1.3,0,2.3,1.1,2.3,2.3h0.4c0-1.3,1.1-2.3,2.3-2.3v-0.4
	C164.3,164.6,163.3,163.5,163.3,162.2z"/>
</svg>
