<?xml version="1.0" encoding="utf-8"?>
<!-- Generator: Adobe Illustrator 21.0.0, SVG Export Plug-In . SVG Version: 6.00 Build 0)  -->
<svg version="1.1" id="图层_1" xmlns="http://www.w3.org/2000/svg" xmlns:xlink="http://www.w3.org/1999/xlink" x="0px" y="0px"
	 viewBox="0 0 256 256" style="enable-background:new 0 0 256 256;" xml:space="preserve">
<style type="text/css">
	.st0{opacity:0.4;fill:#575757;enable-background:new    ;}
	.st1{fill:url(#SVGID_1_);}
	.st2{opacity:0.2;enable-background:new    ;}
	.st3{fill:url(#SVGID_2_);}
	.st4{fill:#9BAFC1;}
	.st5{fill:url(#SVGID_3_);}
	.st6{opacity:0.7;}
	.st7{fill:#D9EEFC;}
	.st8{fill:#FFFFFA;}
	.st9{fill:url(#SVGID_4_);}
	.st10{fill:#FFFFFF;}
	.st11{fill:url(#SVGID_5_);}
</style>
<path class="st0" d="M129.2,34c-2.6,0-5.3,0.7-7.7,2.1l-76.2,44c-4.8,2.7-7.7,7.9-7.7,13.4v88c0,5.5,3,10.6,7.7,13.4l76.3,44
	c2.4,1.4,5.1,2.1,7.7,2.1s5.3-0.7,7.7-2.1l76.3-44c4.8-2.7,7.7-7.9,7.7-13.4v-88c0-5.5-3-10.6-7.7-13.4l-76.4-44
	C134.6,34.7,131.9,34,129.2,34L129.2,34z"/>
<linearGradient id="SVGID_1_" gradientUnits="userSpaceOnUse" x1="129.2562" y1="-115.3875" x2="129.2562" y2="60.75" gradientTransform="matrix(1 0 0 1 0 156)">
	<stop  offset="0" style="stop-color:#A7C4DA"/>
	<stop  offset="1" style="stop-color:#82A3C6"/>
</linearGradient>
<polygon class="st1" points="53,84.6 129.2,40.6 205.5,84.6 205.5,172.6 129.2,216.7 53,172.6 "/>
<polygon class="st2" points="75.8,104.7 129.2,73.8 182.8,104.7 182.8,166.5 129.2,197.4 75.8,166.5 "/>
<linearGradient id="SVGID_2_" gradientUnits="userSpaceOnUse" x1="129.2562" y1="-89.1375" x2="129.2562" y2="34.4125" gradientTransform="matrix(1 0 0 1 0 156)">
	<stop  offset="0" style="stop-color:#EBF1F6"/>
	<stop  offset="1" style="stop-color:#C6D8E6"/>
</linearGradient>
<polygon class="st3" points="75.8,97.8 129.2,66.9 182.8,97.8 182.8,159.5 129.2,190.4 75.8,159.5 "/>
<polygon class="st4" points="129.2,40.6 53,84.6 53,90.3 129.2,46.2 205.5,90.3 205.5,84.6 "/>
<linearGradient id="SVGID_3_" gradientUnits="userSpaceOnUse" x1="129.3" y1="-130.7875" x2="129.3" y2="76.15" gradientTransform="matrix(1 0 0 1 0 156)">
	<stop  offset="0" style="stop-color:#ECEFF5"/>
	<stop  offset="1" style="stop-color:#CCDCE9"/>
</linearGradient>
<path class="st5" d="M129.2,40.6l76.3,44v88l-76.3,44l-76.3-44v-88L129.2,40.6 M129.2,25.2c-2.6,0-5.3,0.7-7.7,2.1L45.3,71.2
	c-4.8,2.7-7.7,7.9-7.7,13.4v88c0,5.5,3,10.6,7.7,13.4l76.3,44c2.4,1.4,5.1,2.1,7.7,2.1s5.3-0.7,7.7-2.1l76.3-44
	c4.8-2.7,7.7-7.9,7.7-13.4v-88c0-5.5-3-10.6-7.7-13.4l-76.4-44C134.6,25.9,131.9,25.2,129.2,25.2L129.2,25.2z"/>
<g class="st6">
	<path class="st7" d="M87.6,83.1c-0.9-0.1-1.8-0.6-2.2-1.4c-0.8-1.3-0.3-3.1,1-3.9l36.9-21.4c1.3-0.8,3.1-0.4,3.9,1
		c0.8,1.3,0.3,3.1-1.1,3.9L89.2,82.7C88.7,83,88.1,83.1,87.6,83.1z"/>
</g>
<g class="st6">
	<path class="st7" d="M60.4,98c-0.9-0.1-1.7-0.6-2.2-1.4c-0.8-1.3-0.4-3.1,1-3.8l8.3-4.8c1.3-0.8,3.1-0.4,3.8,1
		c0.8,1.3,0.4,3.1-1,3.8l-8.3,4.8C61.7,97.9,61.1,98.1,60.4,98z"/>
</g>
<path class="st8" d="M76.1,93.5h-1.1c0,3.9-3.2,7.2-7.2,7.2v1c3.9,0,7.2,3.2,7.2,7.2h1.1c0-3.9,3.2-7.2,7.2-7.2v-1
	C79.3,100.6,76.1,97.4,76.1,93.5z"/>
<path class="st8" d="M188.9,118.1h-0.7c0,2.6-2.2,4.8-4.8,4.8v0.7c2.6,0,4.8,2.2,4.8,4.8h0.7c0-2.6,2.1-4.8,4.8-4.8v-0.7
	C191.1,122.9,188.9,120.7,188.9,118.1z"/>
<path class="st8" d="M119.6,180.5h-0.4c0,1.6-1.3,2.9-2.9,2.9v0.4c1.6,0,2.9,1.3,2.9,2.9h0.4c0-1.6,1.3-2.9,2.9-2.9v-0.4
	C120.8,183.4,119.6,182.1,119.6,180.5z"/>
<linearGradient id="SVGID_4_" gradientUnits="userSpaceOnUse" x1="98.9504" y1="287.5914" x2="167.4729" y2="287.3389" gradientTransform="matrix(-3.684561e-03 1 -1 -3.684561e-03 416.173 -3.4767)">
	<stop  offset="0" style="stop-color:#9CB6CF"/>
	<stop  offset="1" style="stop-color:#8098AB"/>
</linearGradient>
<path class="st9" d="M139,142.1l-6.5,17.4c-1.7,4.5-7.7,4.5-9.3,0l-6.4-17.4c-0.3-0.9-1-1.6-1.8-1.9l-14.7-6.3
	c-5.1-2.2-5-9.4,0.1-11.5l14.7-6.1c0.8-0.4,1.5-1,1.8-1.9l6.1-16.4c1.8-4.7,8.4-4.6,10.1,0l6,16.5c0.4,0.9,1,1.6,1.8,1.9l15.2,6.5
	c4.8,2.1,4.8,8.9,0,10.9l-15.3,6.4C140,140.5,139.3,141.2,139,142.1z"/>
<path class="st10" d="M138.8,139.6l-6.2,15.6c-1.7,4.3-7.8,4.3-9.4,0l-6-15.5c-0.5-1.3-1.6-2.4-2.8-2.9l-15.6-6.2
	c-4.3-1.8-4.2-7.8,0.1-9.5l15.7-6.1c1.3-0.5,2.4-1.6,2.9-2.9l6.2-15.5c1.7-4.3,7.8-4.3,9.4,0l6,15.6c0.5,1.3,1.6,2.4,2.9,2.9
	l15.5,6.2c4.3,1.7,4.3,7.8,0,9.4l-15.6,6C140.4,137.3,139.4,138.3,138.8,139.6z"/>
<linearGradient id="SVGID_5_" gradientUnits="userSpaceOnUse" x1="104.1679" y1="287.6539" x2="156.9502" y2="287.4595" gradientTransform="matrix(-3.684561e-03 1 -1 -3.684561e-03 416.173 -3.4767)">
	<stop  offset="0" style="stop-color:#9CB6CF"/>
	<stop  offset="1" style="stop-color:#8098AB"/>
</linearGradient>
<path class="st11" d="M136.4,135.6l-6.1,15.4c-0.8,1.9-3.6,1.9-4.4,0l-6-15.4c-0.3-0.6-0.7-1-1.3-1.3l-15.4-6.2
	c-1.9-0.8-1.9-3.6,0-4.4l15.4-6c0.6-0.3,1.1-0.7,1.3-1.3l6.1-15.3c0.8-1.9,3.6-1.9,4.4,0l6,15.4c0.3,0.6,0.7,1,1.3,1.3l15.4,6.1
	c2,0.8,1.9,3.6,0,4.4l-15.4,6C137.1,134.5,136.6,135,136.4,135.6z"/>
</svg>
