<?xml version="1.0" encoding="utf-8"?>
<!-- Generator: Adobe Illustrator 21.0.0, SVG Export Plug-In . SVG Version: 6.00 Build 0)  -->
<svg version="1.1" id="图层_1" xmlns="http://www.w3.org/2000/svg" xmlns:xlink="http://www.w3.org/1999/xlink" x="0px" y="0px"
	 viewBox="0 0 256 256" style="enable-background:new 0 0 256 256;" xml:space="preserve">
<style type="text/css">
	.st0{opacity:0.4;fill:#575757;enable-background:new    ;}
	.st1{fill:url(#SVGID_1_);}
	.st2{opacity:0.8;fill:#7E5BB5;enable-background:new    ;}
	.st3{fill:url(#SVGID_2_);}
	.st4{fill:#976DC6;}
	.st5{fill:url(#SVGID_3_);}
	.st6{fill:#DCCFFF;}
	.st7{fill:#FFFFFA;}
	.st8{opacity:0.7;fill:#8A66C4;enable-background:new    ;}
	.st9{fill:url(#SVGID_4_);}
	.st10{fill:#8B61BC;}
	.st11{fill:#FFFFFD;}
</style>
<path class="st0" d="M129.2,34c-2.6,0-5.3,0.7-7.7,2.1l-76.2,44c-4.8,2.7-7.7,7.9-7.7,13.4v88c0,5.5,3,10.6,7.7,13.4l76.3,44
	c2.4,1.4,5.1,2.1,7.7,2.1s5.3-0.7,7.7-2.1l76.3-44c4.8-2.7,7.7-7.9,7.7-13.4v-88c0-5.5-3-10.6-7.7-13.4l-76.4-44
	C134.6,34.7,131.9,34,129.2,34L129.2,34z"/>
<linearGradient id="SVGID_1_" gradientUnits="userSpaceOnUse" x1="129.2562" y1="371.3875" x2="129.2562" y2="195.25" gradientTransform="matrix(1 0 0 -1 0 412)">
	<stop  offset="0" style="stop-color:#B595D3"/>
	<stop  offset="1" style="stop-color:#AD6ACF"/>
</linearGradient>
<polygon class="st1" points="53,84.6 129.2,40.6 205.5,84.6 205.5,172.6 129.2,216.7 53,172.6 "/>
<polygon class="st2" points="75.8,104.7 129.2,73.8 182.8,104.7 182.8,166.5 129.2,197.4 75.8,166.5 "/>
<linearGradient id="SVGID_2_" gradientUnits="userSpaceOnUse" x1="129.2562" y1="345.1375" x2="129.2562" y2="221.5875" gradientTransform="matrix(1 0 0 -1 0 412)">
	<stop  offset="0" style="stop-color:#E9CBFA"/>
	<stop  offset="1" style="stop-color:#C49FFD"/>
</linearGradient>
<polygon class="st3" points="75.8,97.8 129.2,66.9 182.8,97.8 182.8,159.5 129.2,190.4 75.8,159.5 "/>
<polygon class="st4" points="129.2,40.6 53,84.6 53,90.3 129.2,46.2 205.5,90.3 205.5,84.6 "/>
<linearGradient id="SVGID_3_" gradientUnits="userSpaceOnUse" x1="129.3" y1="386.7875" x2="129.3" y2="179.85" gradientTransform="matrix(1 0 0 -1 0 412)">
	<stop  offset="0" style="stop-color:#E5C4F1"/>
	<stop  offset="1" style="stop-color:#BF80F1"/>
</linearGradient>
<path class="st5" d="M129.2,40.6l76.3,44v88l-76.3,44l-76.3-44v-88L129.2,40.6 M129.2,25.2c-2.6,0-5.3,0.7-7.7,2.1L45.3,71.2
	c-4.8,2.7-7.7,7.9-7.7,13.4v88c0,5.5,3,10.6,7.7,13.4l76.3,44c2.4,1.4,5.1,2.1,7.7,2.1s5.3-0.7,7.7-2.1l76.3-44
	c4.8-2.7,7.7-7.9,7.7-13.4v-88c0-5.5-3-10.6-7.7-13.4l-76.4-44C134.6,25.9,131.9,25.2,129.2,25.2L129.2,25.2z"/>
<g>
	<path class="st6" d="M87.6,83.1c-0.9-0.1-1.8-0.6-2.2-1.4c-0.8-1.3-0.3-3.1,1-3.9l36.9-21.4c1.3-0.8,3.1-0.4,3.9,1
		c0.8,1.3,0.3,3.1-1.1,3.9L89.2,82.7C88.7,83,88.1,83.1,87.6,83.1z"/>
</g>
<g>
	<path class="st6" d="M60.4,98c-0.9-0.1-1.7-0.6-2.2-1.4c-0.8-1.3-0.4-3.1,1-3.8l8.3-4.8c1.3-0.8,3.1-0.4,3.8,1
		c0.8,1.3,0.4,3.1-1,3.8l-8.3,4.8C61.7,97.9,61.1,98.1,60.4,98z"/>
</g>
<path class="st7" d="M76.1,93.5h-1.1c0,3.9-3.2,7.2-7.2,7.2v1c3.9,0,7.2,3.2,7.2,7.2h1.1c0-3.9,3.2-7.2,7.2-7.2v-1
	C79.3,100.6,76.1,97.4,76.1,93.5z"/>
<path class="st7" d="M188.9,118.1h-0.7c0,2.6-2.2,4.8-4.8,4.8v0.7c2.6,0,4.8,2.2,4.8,4.8h0.7c0-2.6,2.1-4.8,4.8-4.8v-0.7
	C191.1,122.9,188.9,120.7,188.9,118.1z"/>
<path class="st7" d="M119.6,180.5h-0.4c0,1.6-1.3,2.9-2.9,2.9v0.4c1.6,0,2.9,1.3,2.9,2.9h0.4c0-1.6,1.3-2.9,2.9-2.9v-0.4
	C120.8,183.4,119.6,182.1,119.6,180.5z"/>
<path class="st8" d="M159.3,125.3l-9-17.2c-1.1-2-3.2-3.3-5.5-3.3h-16.6c-0.2,0-0.4,0-0.4,0.1h-16.1c-2.4,0-4.5,1.3-5.5,3.3l-9,17.2
	c-1.3,2.4-0.9,5.2,1,7.2l28.3,29c0.1,0.1,0.2,0.3,0.3,0.3c0.2,0.2,0.3,0.3,0.6,0.3c0.2,0.1,0.4,0.2,0.6,0.2c0.1,0,0.1,0,0.2,0
	s0.1,0,0.2,0l0,0c0.1,0,0.1,0,0.2,0l0,0c0.1,0,0.1,0,0.2,0l0,0c0.1,0,0.1,0,0.2-0.1l0,0c0.1,0,0.1-0.1,0.2-0.1l0,0
	c0.2-0.1,0.4-0.3,0.6-0.4l28.6-29.2C160.1,130.7,160.5,127.8,159.3,125.3z"/>
<g>
	
		<linearGradient id="SVGID_4_" gradientUnits="userSpaceOnUse" x1="128.1752" y1="154.925" x2="128.1752" y2="97.2625" gradientTransform="matrix(1 0 0 -1 0 256)">
		<stop  offset="0" style="stop-color:#B595D3"/>
		<stop  offset="1" style="stop-color:#AD6ACF"/>
	</linearGradient>
	<path class="st9" d="M159.3,121.6l-9-17.2c-1.1-2-3.2-3.3-5.5-3.3h-16.6c-0.2,0-0.4,0-0.4,0.1h-16.1c-2.4,0-4.5,1.3-5.5,3.3
		l-9,17.2c-1.3,2.4-0.9,5.2,1,7.2l28.3,29c0.1,0.1,0.2,0.3,0.3,0.4c0.2,0.2,0.3,0.3,0.6,0.3c0.2,0.1,0.4,0.2,0.6,0.2
		c0.1,0,0.1,0,0.2,0s0.1,0,0.2,0l0,0c0.1,0,0.1,0,0.2,0l0,0c0.1,0,0.1,0,0.2,0l0,0c0.1,0,0.1,0,0.2-0.1l0,0c0.1,0,0.1-0.1,0.2-0.1
		l0,0c0.2-0.1,0.4-0.3,0.6-0.4l28.6-29.2C160.1,126.9,160.5,124,159.3,121.6z"/>
</g>
<path class="st10" d="M100.7,125.3l9-17.1c0.3-0.7,1.1-1.1,1.9-1.1h16.6c0.2,0,0.4,0,0.4-0.1h16.1c0.9,0,1.6,0.4,1.9,1.1l9,17.2
	c0,0,0,0.1,0.1,0.1c0.3-0.6,0.3-1.3-0.1-2l-9-17.2c-0.3-0.7-1.1-1.1-1.9-1.1h-16.1c-0.2,0-0.3,0.1-0.4,0.1h-16.6
	c-0.8,0-1.6,0.4-1.9,1.1l-9,17.1C100.3,124,100.3,124.8,100.7,125.3C100.6,125.4,100.6,125.4,100.7,125.3z"/>
<path class="st11" d="M159.3,121.6l-9-17.2c-1.1-2-3.2-3.3-5.5-3.3h-16.6c-0.2,0-0.4,0-0.4,0.1h-2.9c-0.2,0-0.4,0-0.6,0h-12.7
	c-2.4,0-4.5,1.3-5.5,3.3l-9,17.2c-1.3,2.4-0.9,5.2,1,7.2l28.3,29c0.1,0.1,0.2,0.3,0.3,0.4c0.2,0.2,0.4,0.3,0.5,0.3l0,0l0,0
	c0.2,0.1,0.3,0.1,0.5,0.2c0,0,0,0,0.1,0s0.2,0,0.3,0c0.3,0,0.4,0,0.6-0.1h0.1c0,0,0,0,0.1,0c0.4-0.2,0.8-0.4,1-0.8l28.4-29
	C160.1,126.9,160.5,124,159.3,121.6z M115.8,127.2l7.5,21.6l-21.1-21.6C102.3,127.2,115.8,127.2,115.8,127.2z M128.2,105.2
	c0.2,0,0.3,0,0.4-0.1h1.8l5.9,18.1h-8.1h-8.2l6-18C125.9,105.2,128.2,105.2,128.2,105.2z M128.2,127.2h8.1l-8.1,23.3l-8.1-23.3
	H128.2z M140.6,127.2h13.6l-21,21.5L140.6,127.2z M146.7,106.3l8.8,16.9h-15l-5.9-18.1h10.1C145.6,105.2,146.4,105.5,146.7,106.3z
	 M109.6,106.4c0.4-0.7,1.1-1.1,1.9-1.1h10.2l-5.9,18h-15.1L109.6,106.4z"/>
</svg>
