<?xml version="1.0" encoding="utf-8"?>
<!-- Generator: Adobe Illustrator 21.0.0, SVG Export Plug-In . SVG Version: 6.00 Build 0)  -->
<svg version="1.1" id="图层_1" xmlns="http://www.w3.org/2000/svg" xmlns:xlink="http://www.w3.org/1999/xlink" x="0px" y="0px"
	 viewBox="0 0 256 256" style="enable-background:new 0 0 256 256;" xml:space="preserve">
<style type="text/css">
	.st0{opacity:0.4;fill:#575757;enable-background:new    ;}
	.st1{fill:url(#SVGID_1_);}
	.st2{opacity:0.8;fill:#CE911D;enable-background:new    ;}
	.st3{fill:url(#SVGID_2_);}
	.st4{fill:#D7B403;}
	.st5{fill:url(#SVGID_3_);}
	.st6{fill:#FFFECC;}
	.st7{fill:#FFFFFA;}
	.st8{opacity:0.7;fill:#BEAA5F;enable-background:new    ;}
	.st9{fill:url(#SVGID_4_);}
	.st10{fill:#FFFFFF;}
	.st11{opacity:0.7;}
	.st12{fill:#BEAA5F;}
</style>
<path class="st0" d="M127.9,28.5c-2.6,0-5.3,0.7-7.7,2.1l-76,43.9c-4.8,2.7-7.7,7.9-7.7,13.4v87.8c0,5.5,3,10.6,7.7,13.4l76.1,43.9
	c2.4,1.4,5.1,2.1,7.7,2.1s5.3-0.7,7.7-2.1l76.1-43.9c4.8-2.7,7.7-7.9,7.7-13.4V87.9c0-5.5-3-10.6-7.7-13.4l-76.2-43.9
	C133.2,29.2,130.6,28.5,127.9,28.5L127.9,28.5z"/>
<linearGradient id="SVGID_1_" gradientUnits="userSpaceOnUse" x1="127.9563" y1="-120.8336" x2="127.9563" y2="54.9202" gradientTransform="matrix(1 0 0 1 0 156)">
	<stop  offset="0" style="stop-color:#FDD305"/>
	<stop  offset="1" style="stop-color:#F2A401"/>
</linearGradient>
<polygon class="st1" points="51.9,79.1 127.9,35.2 204,79.1 204,166.9 127.9,210.9 51.9,166.9 "/>
<polygon class="st2" points="74.6,99.1 127.9,68.3 181.3,99.1 181.3,160.8 127.9,191.6 74.6,160.8 "/>
<linearGradient id="SVGID_2_" gradientUnits="userSpaceOnUse" x1="127.9563" y1="-94.6407" x2="127.9563" y2="28.6401" gradientTransform="matrix(1 0 0 1 0 156)">
	<stop  offset="0" style="stop-color:#FDF290"/>
	<stop  offset="1" style="stop-color:#FFCE34"/>
</linearGradient>
<polygon class="st3" points="74.6,92.2 127.9,61.4 181.3,92.2 181.3,153.8 127.9,184.6 74.6,153.8 "/>
<polygon class="st4" points="127.9,35.2 51.9,79.1 51.9,84.8 127.9,40.8 204,84.8 204,79.1 "/>
<linearGradient id="SVGID_3_" gradientUnits="userSpaceOnUse" x1="128" y1="-136.2" x2="128" y2="70.2866" gradientTransform="matrix(1 0 0 1 0 156)">
	<stop  offset="0" style="stop-color:#FFF371"/>
	<stop  offset="1" style="stop-color:#FFC535"/>
</linearGradient>
<path class="st5" d="M127.9,35.2L204,79.1v87.8l-76.1,43.9l-76.1-43.9V79.1L127.9,35.2 M127.9,19.8c-2.6,0-5.3,0.7-7.7,2.1l-76,43.8
	c-4.8,2.7-7.7,7.9-7.7,13.4v87.8c0,5.5,3,10.6,7.7,13.4l76.1,43.9c2.4,1.4,5.1,2.1,7.7,2.1s5.3-0.7,7.7-2.1l76.1-43.9
	c4.8-2.7,7.7-7.9,7.7-13.4V79.1c0-5.5-3-10.6-7.7-13.4l-76.2-43.9C133.2,20.5,130.6,19.8,127.9,19.8L127.9,19.8z"/>
<g>
	<path class="st6" d="M86.4,77.5c-0.9-0.1-1.7-0.6-2.2-1.4c-0.8-1.3-0.3-3.1,1-3.8l36.8-21.4c1.3-0.8,3.1-0.3,3.8,1
		c0.8,1.3,0.3,3.1-1,3.8L88,77.2C87.5,77.4,86.9,77.6,86.4,77.5z"/>
</g>
<g>
	<path class="st6" d="M59.3,92.4c-0.9-0.1-1.7-0.6-2.2-1.4c-0.8-1.3-0.3-3.1,1-3.8l8.3-4.8c1.3-0.8,3.1-0.3,3.8,1
		c0.8,1.3,0.3,3.1-1,3.8l-8.3,4.8C60.5,92.4,59.9,92.5,59.3,92.4z"/>
</g>
<path class="st7" d="M74.9,87.9h-1c0,3.9-3.2,7.2-7.2,7.2v1c3.9,0,7.2,3.2,7.2,7.2h1c0-3.9,3.2-7.2,7.2-7.2v-1
	C78.1,95.1,74.9,91.8,74.9,87.9z"/>
<path class="st7" d="M187.5,112.4h-0.7c0,2.6-2.2,4.8-4.8,4.8v0.7c2.6,0,4.8,2.2,4.8,4.8h0.7c0-2.6,2.1-4.8,4.8-4.8v-0.7
	C189.6,117.2,187.5,115.1,187.5,112.4z"/>
<path class="st7" d="M118.3,174.8h-0.4c0,1.6-1.3,2.9-2.9,2.9v0.4c1.6,0,2.9,1.3,2.9,2.9h0.4c0-1.6,1.3-2.9,2.9-2.9v-0.4
	C119.5,177.7,118.3,176.3,118.3,174.8z"/>
<path class="st8" d="M149.7,123.5l6.5-11.3c0.4-0.8,0.7-1.7,0.7-2.6c0-2.8-2.3-5.1-5.1-5.1l0,0l0,0l0,0h-13.2L131.4,92
	c-0.9-1.6-2.5-2.5-4.4-2.5c-1.8,0-3.5,1-4.4,2.5l-7.2,12.6h-13.1c-1.8,0-3.5,1-4.4,2.5s-0.9,3.5,0,5.1l6.5,11.4L98,134.9
	c-0.9,1.6-0.9,3.5,0,5.1c0.9,1.6,2.5,2.5,4.4,2.5h13.2l7.2,12.6c0.9,1.6,2.5,2.5,4.4,2.5s3.5-1,4.4-2.5l7.2-12.6h13.2
	c1.8,0,3.5-1,4.4-2.5s0.9-3.5,0-5.1L149.7,123.5z"/>
<linearGradient id="SVGID_4_" gradientUnits="userSpaceOnUse" x1="127.0396" y1="166.593" x2="127.0396" y2="103.381" gradientTransform="matrix(1 0 0 -1 0 256)">
	<stop  offset="0" style="stop-color:#FDE156"/>
	<stop  offset="1" style="stop-color:#F4A400"/>
</linearGradient>
<path class="st9" d="M127.1,152.7c-1,0-1.8-0.5-2.3-1.3l-7.9-13.8h-14.6c-1,0-1.8-0.5-2.3-1.3s-0.4-1.8,0-2.6l7.2-12.6l-7.2-12.6
	c-0.4-0.8-0.4-1.8,0-2.6c0.4-0.8,1.3-1.3,2.3-1.3h14.5l7.9-13.8c0.4-0.8,1.3-1.3,2.3-1.3c1,0,1.8,0.5,2.3,1.3l7.9,13.8h14.5
	c1,0,1.8,0.5,2.3,1.3c0.4,0.8,0.4,1.8,0,2.6l-7.2,12.6l7.2,12.6c0.4,0.8,0.4,1.8,0,2.6c-0.4,0.8-1.3,1.3-2.3,1.3h-14.4l-7.9,13.8
	C129,152.2,128.1,152.7,127.1,152.7z"/>
<path class="st10" d="M127.1,92.1l8.7,15.1h16.1l-8,13.9l8,13.9h-16.1l-8.7,15.1l-8.7-15.1h-16.1l8-13.9l-8-13.9h16.1L127.1,92.1
	 M151.9,107.1L151.9,107.1 M127.1,86.8c-1.9,0-3.7,1-4.5,2.6l-7.2,12.5h-13.1c-1.9,0-3.7,1-4.5,2.6c-1,1.7-1,3.7,0,5.3l6.5,11.3
	l-6.5,11.3c-1,1.7-1,3.7,0,5.3c1,1.7,2.7,2.6,4.5,2.6h13l7.2,12.5c1,1.7,2.7,2.6,4.5,2.6s3.7-1,4.5-2.6l7.2-12.5h13
	c1.9,0,3.7-1,4.5-2.6c1-1.7,1-3.7,0-5.3l-6.5-11.3l6.5-11.2c0.5-0.8,0.8-1.7,0.8-2.7c0-2.9-2.4-5.2-5.2-5.3l0,0l0,0l0,0h-13
	l-7.2-12.5C130.8,87.8,129,86.8,127.1,86.8L127.1,86.8z"/>
<g class="st11">
	<polygon class="st12" points="110.4,124.1 109.5,122.6 102.3,135 104.2,135 	"/>
	<polygon class="st12" points="118.4,110.3 127.1,95.1 135.9,110.3 150.1,110.3 151.9,107.1 135.9,107.1 127.1,92.1 118.4,107.1 
		102.3,107.1 104.2,110.3 	"/>
	<polygon class="st12" points="143.9,124.1 150.1,135 151.9,135 144.8,122.6 	"/>
</g>
</svg>
