<?xml version="1.0" encoding="utf-8"?>
<!-- Generator: Adobe Illustrator 21.0.0, SVG Export Plug-In . SVG Version: 6.00 Build 0)  -->
<svg version="1.1" id="图层_1" xmlns="http://www.w3.org/2000/svg" xmlns:xlink="http://www.w3.org/1999/xlink" x="0px" y="0px"
	 viewBox="0 0 256 256" style="enable-background:new 0 0 256 256;" xml:space="preserve">
<style type="text/css">
	.st0{opacity:0.4;fill:#575757;enable-background:new    ;}
	.st1{fill:url(#SVGID_1_);}
	.st2{opacity:0.8;fill:#8E8E8E;enable-background:new    ;}
	.st3{fill:url(#SVGID_2_);}
	.st4{fill:#A0A0A0;}
	.st5{fill:url(#SVGID_3_);}
	.st6{opacity:0.7;}
	.st7{fill:#E7EDF2;}
	.st8{fill:#FFFFFA;}
	.st9{fill:url(#SVGID_4_);}
	.st10{fill:#BCBCBC;}
	.st11{opacity:0.7;fill:#A8A8A8;enable-background:new    ;}
	.st12{fill:#FFFFFF;}
</style>
<path class="st0" d="M129.2,34c-2.6,0-5.3,0.7-7.7,2.1l-76.2,44c-4.8,2.7-7.7,7.9-7.7,13.4v88c0,5.5,3,10.6,7.7,13.4l76.3,44
	c2.4,1.4,5.1,2.1,7.7,2.1s5.3-0.7,7.7-2.1l76.3-44c4.8-2.7,7.7-7.9,7.7-13.4v-88c0-5.5-3-10.6-7.7-13.4l-76.4-44
	C134.6,34.7,131.9,34,129.2,34L129.2,34z"/>
<linearGradient id="SVGID_1_" gradientUnits="userSpaceOnUse" x1="129.2562" y1="371.3875" x2="129.2562" y2="195.25" gradientTransform="matrix(1 0 0 -1 0 412)">
	<stop  offset="0" style="stop-color:#BDBCC1"/>
	<stop  offset="0.5222" style="stop-color:#DEDDE5"/>
	<stop  offset="1" style="stop-color:#A7ADAF"/>
</linearGradient>
<polygon class="st1" points="53,84.6 129.2,40.6 205.5,84.6 205.5,172.6 129.2,216.7 53,172.6 "/>
<polygon class="st2" points="75.8,104.7 129.2,73.8 182.8,104.7 182.8,166.5 129.2,197.4 75.8,166.5 "/>
<linearGradient id="SVGID_2_" gradientUnits="userSpaceOnUse" x1="129.2562" y1="345.1375" x2="129.2562" y2="221.5875" gradientTransform="matrix(1 0 0 -1 0 412)">
	<stop  offset="0" style="stop-color:#EDEDF4"/>
	<stop  offset="1" style="stop-color:#D0D3DB"/>
</linearGradient>
<polygon class="st3" points="75.8,97.8 129.2,66.9 182.8,97.8 182.8,159.5 129.2,190.4 75.8,159.5 "/>
<polygon class="st4" points="129.2,40.6 53,84.6 53,90.3 129.2,46.2 205.5,90.3 205.5,84.6 "/>
<linearGradient id="SVGID_3_" gradientUnits="userSpaceOnUse" x1="129.3" y1="179.85" x2="129.3" y2="386.7875" gradientTransform="matrix(1 0 0 -1 0 412)">
	<stop  offset="0" style="stop-color:#D4D4DA"/>
	<stop  offset="0.7756" style="stop-color:#FCFEFA"/>
	<stop  offset="1" style="stop-color:#E2DFE9"/>
</linearGradient>
<path class="st5" d="M129.2,40.6l76.3,44v88l-76.3,44l-76.3-44v-88L129.2,40.6 M129.2,25.2c-2.6,0-5.3,0.7-7.7,2.1L45.3,71.2
	c-4.8,2.7-7.7,7.9-7.7,13.4v88c0,5.5,3,10.6,7.7,13.4l76.3,44c2.4,1.4,5.1,2.1,7.7,2.1s5.3-0.7,7.7-2.1l76.3-44
	c4.8-2.7,7.7-7.9,7.7-13.4v-88c0-5.5-3-10.6-7.7-13.4l-76.4-44C134.6,25.9,131.9,25.2,129.2,25.2L129.2,25.2z"/>
<g class="st6">
	<path class="st7" d="M87.6,83.1c-0.9-0.1-1.8-0.6-2.2-1.4c-0.8-1.3-0.3-3.1,1-3.9l36.9-21.4c1.3-0.8,3.1-0.4,3.9,1
		c0.8,1.3,0.3,3.1-1.1,3.9L89.2,82.7C88.7,83,88.1,83.1,87.6,83.1z"/>
</g>
<g class="st6">
	<path class="st7" d="M60.4,98c-0.9-0.1-1.7-0.6-2.2-1.4c-0.8-1.3-0.4-3.1,1-3.8l8.3-4.8c1.3-0.8,3.1-0.4,3.8,1
		c0.8,1.3,0.4,3.1-1,3.8l-8.3,4.8C61.7,97.9,61.1,98.1,60.4,98z"/>
</g>
<path class="st8" d="M76.1,93.5h-1.1c0,3.9-3.2,7.2-7.2,7.2v1c3.9,0,7.2,3.2,7.2,7.2h1.1c0-3.9,3.2-7.2,7.2-7.2v-1
	C79.3,100.6,76.1,97.4,76.1,93.5z"/>
<path class="st8" d="M188.9,118.1h-0.7c0,2.6-2.2,4.8-4.8,4.8v0.7c2.6,0,4.8,2.2,4.8,4.8h0.7c0-2.6,2.1-4.8,4.8-4.8v-0.7
	C191.1,122.9,188.9,120.7,188.9,118.1z"/>
<path class="st8" d="M119.6,180.5h-0.4c0,1.6-1.3,2.9-2.9,2.9v0.4c1.6,0,2.9,1.3,2.9,2.9h0.4c0-1.6,1.3-2.9,2.9-2.9v-0.4
	C120.8,183.4,119.6,182.1,119.6,180.5z"/>
<linearGradient id="SVGID_4_" gradientUnits="userSpaceOnUse" x1="128.6" y1="155.1" x2="128.6" y2="109.075" gradientTransform="matrix(1 0 0 -1 0 256)">
	<stop  offset="0.3214" style="stop-color:#CFD1D3"/>
	<stop  offset="0.8607" style="stop-color:#8C8C95"/>
</linearGradient>
<polygon class="st9" points="104.5,117.5 120.7,116.3 128.9,100.9 136.6,115.8 152.8,117.5 141.1,130.6 144,146.9 128.6,139.2 
	114.1,146.9 116.3,129.4 "/>
<g>
	<polygon class="st10" points="120.7,119 128.9,103.6 136.6,118.5 150.6,120 152.8,117.5 136.6,115.8 128.9,100.9 120.7,116.3 
		104.5,117.5 107,120.1 	"/>
	<polygon class="st10" points="116.1,131.9 114.1,146.9 114.4,146.7 116.3,132.1 	"/>
	<polygon class="st10" points="141.1,133.2 143.5,146.7 144,146.9 141.6,132.8 	"/>
</g>
<path class="st11" d="M128.9,104l7.7,14.9l16.1,1.8l-11.6,13l2.8,16.4l-15.4-7.7l-14.5,7.7l2.3-17.4l-11.9-11.9l16.3-1.2L128.9,104
	 M128.9,94c-2.1,0-4,5.4-5,7.3l-6.8,12.7l-13.1,1c-2.2,0.2-7.8,0.9-8.6,3c-0.8,2.1,3.4,5.2,5,6.7l9.9,9.9l-1.9,14.7
	c-0.3,2.1-1.8,7.6,0,8.8c1.7,0.7,7.4-2.6,8.3-3.1l12-6.3l12.8,6.4c0.8,0.4,7,3.2,8.1,2.5c1.8-1.3,0.5-6.5,0.1-8.6l-2.4-13.6
	l9.8-10.9c1.4-1.6,5.7-5,4.9-7c-0.8-2-6.4-2.3-8.5-2.5l-13-1.4l-6.3-12.2C133.1,99.4,131.1,94,128.9,94L128.9,94L128.9,94z"/>
<path class="st12" d="M128.9,100.9l7.7,14.9l16.1,1.8l-11.6,13l2.8,16.4l-15.4-7.7l-14.5,7.7l2.3-17.4l-11.9-11.9l16.3-1.2
	L128.9,100.9 M128.9,90.9c-2.1,0-4,5.4-5,7.3l-6.8,12.7l-13.1,1c-2.2,0.2-7.8,0.9-8.6,3c-0.8,2.1,3.4,5.2,5,6.7l9.9,9.9l-1.9,14.7
	c-0.3,2.1-1.8,7.6,0,8.8c1.7,0.7,7.4-2.6,8.3-3.1l12-6.3l12.8,6.4c0.8,0.4,7,3.2,8.1,2.5c1.8-1.3,0.5-6.5,0.1-8.6l-2.4-13.6
	l9.8-10.9c1.4-1.6,5.7-5,4.9-7c-0.8-2-6.4-2.3-8.5-2.5l-13-1.4l-6.3-12.2C133.1,96.4,131.1,90.9,128.9,90.9L128.9,90.9L128.9,90.9z"
	/>
</svg>
