<?xml version="1.0" encoding="utf-8"?>
<!-- Generator: Adobe Illustrator 21.0.0, SVG Export Plug-In . SVG Version: 6.00 Build 0)  -->
<svg version="1.1" id="图层_1" xmlns="http://www.w3.org/2000/svg" xmlns:xlink="http://www.w3.org/1999/xlink" x="0px" y="0px"
	 viewBox="0 0 256 256" style="enable-background:new 0 0 256 256;" xml:space="preserve">
<style type="text/css">
	.st0{opacity:0.4;}
	.st1{fill:#575757;}
	.st2{fill:url(#SVGID_1_);}
	.st3{fill:#C0E1FF;}
	.st4{opacity:0.2;}
	.st5{fill:#020202;}
	.st6{fill:url(#SVGID_2_);}
	.st7{fill:url(#SVGID_3_);}
	.st8{fill:url(#SVGID_4_);}
	.st9{fill:url(#SVGID_5_);}
	.st10{fill:url(#SVGID_6_);}
	.st11{fill:url(#SVGID_7_);}
	.st12{fill:url(#SVGID_8_);}
	.st13{opacity:0.4;fill:#575757;enable-background:new    ;}
	.st14{fill:url(#SVGID_9_);}
	.st15{fill:url(#SVGID_10_);}
	.st16{opacity:0.16;enable-background:new    ;}
	.st17{opacity:0.2;enable-background:new    ;}
	.st18{fill:url(#SVGID_11_);}
	.st19{fill:url(#SVGID_12_);}
	.st20{opacity:0.5;}
	.st21{fill:#CFF4FF;}
	.st22{fill:url(#SVGID_13_);}
	.st23{opacity:0.1;}
	.st24{opacity:0.7;fill:#66AACC;enable-background:new    ;}
	.st25{fill:#FFFFFF;}
	.st26{fill:#FFFFFA;}
</style>
<g class="st0">
	<g>
		<g>
			<path class="st1" d="M253.9,42.9c-1.1-1.1-2.5-1.8-4.1-1.8l0,0l0,0c-1.9,0-3.4,0.9-3.7,1H246l-0.1,0.1
				c-14.5,10.1-29.3,17.1-39.2,21.2C196,67.9,188.6,70,188.6,70l-1.1,0.3l-0.6,0.9c-0.1,0.2-3.1,4.6-5.6,10.2
				c-3.5,8-4.2,14.3-1.8,18.8c1.1,2.1,2.8,3.7,5.1,4.7c2.2,1,5,1.6,8.3,1.6c4.2,0,9.5-0.9,15.7-2.6c10.4-2.9,19.2-6.7,26.1-11.3
				c6-4,10.8-8.8,14.2-14.1c6.2-9.7,6.7-19.3,6.9-25.1c0-0.7,0.1-1.3,0.1-1.9C256.2,47.6,255.5,44.7,253.9,42.9z M189.1,73.8
				c-1.5,2.3-7,11.3-7.8,18.8l0,0c0,0.1,0,0.2,0,0.4l0,0c0,0.1,0,0.2,0,0.4l0,0c0,0.1,0,0.2,0,0.3l0,0c0,0.1,0,0.2,0,0.3l0,0
				c0,0.1,0,0.2,0,0.3c0,0,0,0,0,0.1s0,0.2,0,0.3c0,0,0,0,0,0.1s0,0.2,0,0.3c0,0,0,0,0,0.1s0,0.2,0,0.3
				C180.5,87.6,187.5,76.4,189.1,73.8z M189.4,73.4L189.4,73.4L189.4,73.4z M189.3,73.5c0,0.1-0.1,0.2-0.2,0.3
				C189.2,73.6,189.3,73.6,189.3,73.5z M182.9,99.8l0.1,0.1C182.9,99.9,182.9,99.8,182.9,99.8C182.8,99.8,182.9,99.8,182.9,99.8z
				 M182.7,99.5c0-0.1-0.1-0.1-0.1-0.2C182.6,99.4,182.6,99.4,182.7,99.5C182.6,99.5,182.6,99.5,182.7,99.5z M182.4,99.1
				c0-0.1-0.1-0.1-0.1-0.2C182.4,99,182.4,99,182.4,99.1z M182.2,98.7c0-0.1-0.1-0.2-0.1-0.3v0.1C182.1,98.6,182.2,98.6,182.2,98.7
				L182.2,98.7z M182,98.2c0-0.1-0.1-0.1-0.1-0.2C181.9,98.1,182,98.2,182,98.2z M181.8,97.8c0-0.1-0.1-0.2-0.1-0.2s0,0,0,0.1
				C181.8,97.7,181.8,97.8,181.8,97.8z M181.7,97.5c0-0.1-0.1-0.3-0.1-0.4c0,0.1,0,0.1,0.1,0.2v0.1
				C181.7,97.4,181.7,97.4,181.7,97.5z M181.6,96.9c0-0.1,0-0.2-0.1-0.3c0,0,0,0,0,0.1C181.5,96.7,181.6,96.8,181.6,96.9z
				 M181.5,96.5c-0.1-0.3-0.1-0.6-0.1-1l0,0c0,0.1,0,0.2,0,0.3v0.1c0,0.1,0,0.2,0,0.3v0.1C181.5,96.4,181.5,96.5,181.5,96.5z
				 M183.1,100.1l0.1,0.1C183.2,100.2,183.2,100.2,183.1,100.1z M183.5,100.5l0.1,0.1C183.5,100.6,183.5,100.5,183.5,100.5z
				 M183.8,100.8l0.1,0.1C183.9,100.9,183.8,100.9,183.8,100.8z M184.6,101.5c0.1,0.1,0.2,0.1,0.2,0.2l0,0
				C184.8,101.6,184.7,101.5,184.6,101.5z M185.4,102L185.4,102L185.4,102L185.4,102z M186.2,102.4
				C186.2,102.4,186.3,102.4,186.2,102.4c0.1,0,0.1,0,0.1,0H186.2z M186.4,102.5c0,0,0.1,0,0.1,0.1h0.1
				C186.6,102.5,186.5,102.5,186.4,102.5z M186.8,102.6h0.1h0.1C187,102.7,186.9,102.6,186.8,102.6z M187.2,102.8h0.1h0.1
				C187.4,102.8,187.3,102.8,187.2,102.8z M187.6,102.9c0.1,0,0.1,0,0.2,0h0.1C187.8,102.9,187.7,102.9,187.6,102.9z M188.4,103.1
				C188.5,103.1,188.5,103.1,188.4,103.1c0.1,0,0.1,0,0.1,0S188.5,103.1,188.4,103.1z M188.6,103.1
				C188.7,103.1,188.7,103.1,188.6,103.1c0.1,0,0.2,0,0.2,0C188.8,103.2,188.7,103.1,188.6,103.1z M188.9,103.2
				C188.9,103.2,189,103.2,188.9,103.2c0.1,0,0.1,0,0.1,0H188.9z M189.7,103.3L189.7,103.3c0.1,0,0.2,0,0.2,0
				C189.8,103.3,189.8,103.3,189.7,103.3z M190.2,103.4C190.2,103.4,190.3,103.4,190.2,103.4c0.1,0,0.2,0,0.2,0
				C190.3,103.4,190.3,103.4,190.2,103.4z M190.8,103.4h0.1h0.1C190.9,103.5,190.8,103.4,190.8,103.4z M191.1,103.5L191.1,103.5
				C191.2,103.5,191.2,103.5,191.1,103.5C191.2,103.5,191.1,103.5,191.1,103.5z M191.3,103.5h0.1l0,0
				C191.4,103.5,191.4,103.5,191.3,103.5z M191.7,103.5L191.7,103.5c0.1,0,0.1,0,0.2,0C191.8,103.5,191.8,103.5,191.7,103.5z
				 M192,103.5L192,103.5C192.1,103.5,192.1,103.5,192,103.5L192,103.5z M192.3,103.5L192.3,103.5c0.1,0,0.1,0,0.2,0
				C192.4,103.5,192.3,103.5,192.3,103.5z M193,103.5C192.9,103.5,192.9,103.5,193,103.5C192.9,103.5,193,103.5,193,103.5L193,103.5
				L193,103.5z M193.6,103.5L193.6,103.5c0.1,0,0.1,0,0.2,0C193.7,103.5,193.6,103.5,193.6,103.5z M194.3,103.5L194.3,103.5
				c0.1,0,0.1,0,0.2,0C194.4,103.5,194.3,103.5,194.3,103.5z M195,103.5L195,103.5c0.1,0,0.1,0,0.2,0
				C195.1,103.5,195.1,103.5,195,103.5z M196.8,103.3L196.8,103.3c0.1,0,0.1,0,0.1,0C196.9,103.3,196.8,103.3,196.8,103.3z
				 M197.6,103.2L197.6,103.2C197.7,103.2,197.7,103.2,197.6,103.2C197.7,103.2,197.6,103.2,197.6,103.2z M200.3,102.8
				c0.1,0,0.2,0,0.3,0l0,0C200.5,102.8,200.4,102.8,200.3,102.8z M201.2,102.6c0.1,0,0.2,0,0.2,0h0.1
				C201.5,102.6,201.3,102.6,201.2,102.6z M202.2,102.4c0.1,0,0.1,0,0.2,0h0.1C202.4,102.4,202.3,102.4,202.2,102.4z M203.2,102.2
				c0.1,0,0.1,0,0.2,0c0.1,0,0.1,0,0.2,0C203.4,102.2,203.3,102.2,203.2,102.2z M204.2,102h0.1c0.1,0,0.2,0,0.2-0.1
				C204.4,101.9,204.3,102,204.2,102z M205.2,101.7C205.3,101.7,205.3,101.7,205.2,101.7c0.2,0,0.3-0.1,0.4-0.1
				C205.5,101.7,205.4,101.7,205.2,101.7z M206.3,101.5C206.4,101.5,206.4,101.5,206.3,101.5c0.1,0,0.2-0.1,0.3-0.1
				C206.6,101.4,206.5,101.4,206.3,101.5z M249.8,44.3L249.8,44.3L249.8,44.3L249.8,44.3z M252.8,51L252.8,51L252.8,51
				C252.8,50.9,252.8,50.9,252.8,51z M252.9,49.6L252.9,49.6C252.9,49.6,252.9,49.5,252.9,49.6c0-0.1,0-0.1,0-0.2
				C252.9,49.5,252.9,49.5,252.9,49.6z M252.9,50.5C252.9,50.5,252.9,50.4,252.9,50.5c0-0.1,0-0.1,0-0.2
				C252.9,50.4,252.9,50.5,252.9,50.5z M252.9,50L252.9,50C252.9,49.9,252.9,49.9,252.9,50C252.9,49.9,252.9,50,252.9,50z"/>
		</g>
	</g>
	<g>
		<g>
			<path class="st1" d="M248.4,88.5L248.4,88.5L248.4,88.5c-1.9,0-3.6,1.1-4.2,1.6c-22.7,15.7-45.7,23.5-45.9,23.6l-0.9,0.3
				l-0.6,0.7c-0.1,0.1-2.8,3.6-5.1,7.9c-3.4,6.4-4.3,11.5-2.5,15.2c0.9,1.8,2.3,3.2,4.3,4.1c1.9,0.9,4.1,1.3,6.9,1.3
				c3.4,0,7.7-0.7,12.8-2c8.3-2.1,15.4-5.4,21.3-9.8c4.9-3.7,9-8.1,12.1-13.2c3.8-6.3,6.2-13.6,6.8-21.1c0.3-3.4-0.2-5.6-1.6-7.1
				C251,89.1,249.7,88.5,248.4,88.5z M200.9,116.2c-1.1,0.4-1.6,0.6-1.6,0.6s0,0,0,0.1v-0.1C199.3,116.8,199.9,116.6,200.9,116.2z
				 M191.5,133.3c0,0.1,0,0.2,0,0.3C191.5,133.5,191.5,133.4,191.5,133.3z M191.5,133.7c0,0.1,0,0.1,0,0.2l0,0
				C191.5,133.9,191.5,133.8,191.5,133.7z M191.5,134.1L191.5,134.1c0,0.1,0,0.1,0,0.2v0.1C191.5,134.3,191.5,134.2,191.5,134.1z
				 M191.5,134.5c0,0.1,0,0.1,0,0.2l0,0C191.5,134.6,191.5,134.6,191.5,134.5z M191.6,134.9L191.6,134.9c0,0.1,0,0.1,0,0.2l0,0
				C191.6,135,191.6,134.9,191.6,134.9z M191.6,135.2C191.6,135.3,191.6,135.3,191.6,135.2c0,0.1,0,0.1,0,0.2
				C191.7,135.3,191.6,135.3,191.6,135.2z M191.7,135.6L191.7,135.6c0,0.1,0,0.1,0,0.2C191.8,135.7,191.7,135.6,191.7,135.6z
				 M191.8,135.9C191.8,136,191.8,136,191.8,135.9c0,0.1,0,0.1,0,0.1C191.9,136,191.9,136,191.8,135.9z M192,136.3v0.1
				C192,136.3,192,136.3,192,136.3z M192.1,136.5c0,0.1,0.1,0.1,0.1,0.2C192.1,136.6,192.1,136.6,192.1,136.5z M192.2,136.7
				c0,0.1,0.1,0.2,0.1,0.2l0,0C192.3,136.9,192.2,136.8,192.2,136.7z M192.7,137.5L192.7,137.5C192.8,137.5,192.8,137.5,192.7,137.5
				L192.7,137.5z M192.8,137.6l0.1,0.1C192.9,137.7,192.9,137.7,192.8,137.6z M193,137.8C193.1,137.9,193.1,137.9,193,137.8
				C193.1,137.9,193.1,137.9,193,137.8z M193.2,138l0.1,0.1C193.3,138.1,193.3,138,193.2,138z M191.5,133.3
				c0.2-6.4,6.9-15.3,7.8-16.4C198.3,118,191.6,126.9,191.5,133.3z M199.2,116.8L199.2,116.8L199.2,116.8z M193.6,138.3L193.6,138.3
				C193.7,138.4,193.7,138.4,193.6,138.3C193.7,138.4,193.6,138.4,193.6,138.3z M193.8,138.5C193.8,138.5,193.9,138.5,193.8,138.5
				c0.1,0.1,0.1,0.1,0.1,0.1C193.9,138.5,193.9,138.5,193.8,138.5z M194,138.6L194,138.6c0.1,0,0.1,0.1,0.1,0.1s0,0,0.1,0
				C194.1,138.7,194,138.6,194,138.6z M194.5,138.9L194.5,138.9L194.5,138.9L194.5,138.9z M194.8,139.1h0.1c0,0,0.1,0,0.1,0.1
				C195,139.1,194.9,139.1,194.8,139.1z M195.1,139.2c0,0,0.1,0,0.1,0.1h0.1C195.3,139.2,195.2,139.2,195.1,139.2z M195.5,139.3
				L195.5,139.3c0.1,0,0.2,0.1,0.2,0.1C195.6,139.3,195.5,139.3,195.5,139.3z M195.8,139.4L195.8,139.4c0.1,0,0.2,0.1,0.2,0.1
				C195.9,139.5,195.9,139.4,195.8,139.4z M196.1,139.5h0.1h0.1C196.2,139.5,196.2,139.5,196.1,139.5z M196.5,139.6h0.1
				c0,0,0,0,0.1,0C196.6,139.6,196.5,139.6,196.5,139.6z M196.8,139.7L196.8,139.7c0.1,0,0.1,0,0.2,0c0,0,0,0,0.1,0
				C196.9,139.7,196.9,139.7,196.8,139.7z M197.1,139.7C197.1,139.7,197.2,139.7,197.1,139.7C197.2,139.8,197.2,139.8,197.1,139.7
				C197.2,139.8,197.2,139.7,197.1,139.7z M197.3,139.8L197.3,139.8C197.4,139.8,197.4,139.8,197.3,139.8
				C197.4,139.8,197.3,139.8,197.3,139.8z M197.5,139.8L197.5,139.8C197.6,139.8,197.6,139.8,197.5,139.8
				C197.6,139.8,197.5,139.8,197.5,139.8z M197.7,139.8C197.7,139.8,197.8,139.8,197.7,139.8C197.8,139.8,197.8,139.9,197.7,139.8
				C197.8,139.9,197.8,139.8,197.7,139.8z M197.9,139.9C197.9,139.9,198,139.9,197.9,139.9c0.1,0,0.1,0,0.1,0H197.9z M198.2,139.9
				L198.2,139.9c0.1,0,0.2,0,0.3,0l0,0C198.3,139.9,198.3,139.9,198.2,139.9z M198.6,139.9L198.6,139.9c0.1,0,0.1,0,0.1,0
				C198.7,139.9,198.6,139.9,198.6,139.9z M198.8,140C198.8,140,198.9,140,198.8,140C198.9,140,198.9,140,198.8,140
				C198.9,140,198.8,140,198.8,140z M199,140C199.1,140,199.1,140,199,140C199.1,140,199.1,140,199,140C199.1,140,199.1,140,199,140
				z M199.3,140L199.3,140C199.4,140,199.4,140,199.3,140C199.4,140,199.3,140,199.3,140z M199.5,140L199.5,140
				C199.6,140,199.6,140,199.5,140C199.6,140,199.5,140,199.5,140z M199.8,140L199.8,140c0.1,0,0.2,0,0.2,0
				C199.9,140,199.8,140,199.8,140z M200.4,140c-0.1,0-0.1,0-0.2,0C200.3,140,200.3,140,200.4,140L200.4,140L200.4,140z M200.8,140
				C200.8,140,200.9,140,200.8,140c0.1,0,0.1,0,0.2,0C200.9,140,200.9,140,200.8,140z M201.4,140C201.4,140,201.5,140,201.4,140
				c0.1,0,0.1,0,0.1,0S201.5,140,201.4,140z M202.8,139.9c0.1,0,0.1,0,0.2,0l0,0C202.9,139.9,202.9,139.9,202.8,139.9z M203.5,139.9
				h0.1c0,0,0,0,0.1,0C203.6,139.8,203.5,139.8,203.5,139.9z M204.1,139.8h0.1h0.1C204.3,139.8,204.2,139.8,204.1,139.8z
				 M204.8,139.7C204.8,139.7,204.9,139.7,204.8,139.7c0.1,0,0.1,0,0.2,0C204.9,139.7,204.9,139.7,204.8,139.7z M205.5,139.6
				L205.5,139.6c0.1,0,0.1,0,0.2,0C205.6,139.6,205.6,139.6,205.5,139.6z M207.9,139.2c0,0,0.1,0,0.2,0c0,0,0,0,0.1,0
				C208.1,139.2,208,139.2,207.9,139.2z M207.3,113.7c-0.9,0.4-1.7,0.7-2.4,1C205.6,114.4,206.4,114,207.3,113.7
				c0.4-0.2,0.9-0.4,1.3-0.6C208.2,113.3,207.7,113.5,207.3,113.7z M208.7,139h0.1h0.1C208.9,139,208.8,139,208.7,139z M209.5,138.8
				C209.6,138.8,209.6,138.8,209.5,138.8c0.2,0,0.2,0,0.3-0.1C209.7,138.8,209.6,138.8,209.5,138.8z M210.4,138.7
				C210.4,138.7,210.4,138.6,210.4,138.7c0.1,0,0.2,0,0.3-0.1C210.5,138.6,210.5,138.6,210.4,138.7z M211.3,138.4L211.3,138.4
				c0.1,0,0.2,0,0.2-0.1C211.4,138.4,211.3,138.4,211.3,138.4z M250.2,98C250.1,98,250.1,98,250.2,98C250.1,98,250.1,98,250.2,98z
				 M249.9,100.1c0,0.1,0,0.1,0,0.2C249.9,100.2,249.9,100.1,249.9,100.1z M249.8,100.6c0,0.1,0,0.1,0,0.2
				C249.8,100.8,249.8,100.7,249.8,100.6z M249.7,101.2c0,0.1,0,0.2,0,0.2C249.7,101.3,249.7,101.3,249.7,101.2z M249.6,101.8
				c0,0.1,0,0.2-0.1,0.3C249.6,101.9,249.6,101.9,249.6,101.8z M249.5,102.4c0,0.1,0,0.2-0.1,0.3
				C249.4,102.6,249.4,102.5,249.5,102.4z M249.3,103.1c0,0.1,0,0.2-0.1,0.3C249.3,103.2,249.3,103.1,249.3,103.1z M249.2,103.8
				c0,0.1,0,0.1-0.1,0.2C249.1,103.9,249.1,103.8,249.2,103.8z M248.9,104.7L248.9,104.7L248.9,104.7L248.9,104.7z M248.7,105.4
				c0,0.1,0,0.2-0.1,0.2C248.7,105.5,248.7,105.5,248.7,105.4z M248.5,106.1c-0.1,0.3-0.2,0.6-0.3,0.9
				C248.4,106.7,248.4,106.4,248.5,106.1z M248.4,91.7L248.4,91.7L248.4,91.7L248.4,91.7z M248.2,107.2c-0.1,0.3-0.2,0.5-0.3,0.8
				C248,107.7,248.1,107.4,248.2,107.2z M247.8,108.3c-0.1,0.2-0.2,0.5-0.3,0.7C247.7,108.8,247.7,108.5,247.8,108.3z M247.5,109.3
				c-0.1,0.3-0.3,0.7-0.4,1C247.2,109.9,247.3,109.6,247.5,109.3z M242.5,118.8c0.2-0.2,0.3-0.4,0.4-0.6
				C242.8,118.3,242.6,118.6,242.5,118.8z M243.4,117.3c0.2-0.3,0.3-0.5,0.5-0.8s0.3-0.5,0.5-0.8
				C244.1,116.3,243.8,116.8,243.4,117.3z M250.3,96.8c0,0.2,0,0.4-0.1,0.6C250.2,97.2,250.2,97,250.3,96.8L250.3,96.8L250.3,96.8z
				 M250.3,96.5L250.3,96.5L250.3,96.5L250.3,96.5z M250.3,96.5C250.3,96.4,250.3,96.4,250.3,96.5C250.3,96.4,250.3,96.4,250.3,96.5
				C250.3,96.4,250.3,96.4,250.3,96.5z M250.3,96.1L250.3,96.1C250.3,96,250.3,96,250.3,96.1C250.3,96,250.3,96,250.3,96.1z"/>
		</g>
	</g>
	<g>
		<g>
			<path class="st1" d="M230.9,138.5L230.9,138.5c-1.2,0-2.2,0.4-2.5,0.5h-0.1l-0.1,0.1c-19.7,10.7-39.4,14.2-39.6,14.2l-1.1,0.2
				l-0.7,0.8c-0.1,0.1-2.7,3-5,6.7c-3.4,5.6-4.3,10.2-2.8,13.7c1.7,3.8,5.9,5.7,12.4,5.7c2.1,0,4.5-0.2,7.2-0.6
				c7-1,13.1-3.1,18.4-6.1c4.4-2.6,8.1-5.9,11.2-9.8c3.7-4.8,6.3-10.6,7.5-16.7c0.6-3.2,0.3-5.4-1-7
				C233.8,139.1,232.4,138.5,230.9,138.5z M189.1,156.4L189.1,156.4L189.1,156.4z M188,157.7c-1.2,1.5-3.3,4.2-4.7,7.2
				C184.8,162,186.8,159.2,188,157.7z M188.6,157c-0.2,0.2-0.3,0.4-0.6,0.7C188.3,157.4,188.4,157.2,188.6,157z M181.8,168.6
				c-0.1,0.3-0.2,0.7-0.2,1C181.7,169.2,181.8,168.9,181.8,168.6z M183.3,164.9c-0.3,0.5-0.5,1-0.7,1.6
				C182.8,165.9,183,165.4,183.3,164.9z M182.6,166.5c-0.2,0.5-0.4,1-0.6,1.5C182.2,167.5,182.4,167,182.6,166.5z M182,168
				c-0.1,0.2-0.1,0.3-0.1,0.5C181.9,168.4,181.9,168.2,182,168z M181.5,171.5c0-0.1,0-0.1,0-0.2
				C181.5,171.3,181.5,171.4,181.5,171.5C181.5,171.4,181.5,171.5,181.5,171.5z M181.5,170.9c0-0.1,0-0.1,0-0.2l0,0
				C181.5,170.8,181.5,170.9,181.5,170.9z M181.5,171.7c0,0.2,0,0.3,0.1,0.5v0.1C181.5,172.1,181.5,171.9,181.5,171.7L181.5,171.7z
				 M181.5,170.7c0-0.1,0-0.2,0-0.2l0,0V170.7C181.5,170.6,181.5,170.6,181.5,170.7z M181.5,170.3c0-0.1,0-0.1,0-0.2
				C181.5,170.2,181.5,170.2,181.5,170.3L181.5,170.3z M181.5,170.1c0-0.2,0-0.3,0.1-0.5C181.6,169.7,181.6,169.9,181.5,170.1z
				 M181.6,172.5L181.6,172.5L181.6,172.5L181.6,172.5z M181.5,171v0.1l0,0C181.5,171.1,181.5,171.1,181.5,171z M181.7,172.8
				L181.7,172.8L181.7,172.8L181.7,172.8z M181.8,173C181.8,173.1,181.8,173.1,181.8,173L181.8,173L181.8,173z M181.9,173.3
				L181.9,173.3c0,0.1,0,0.1,0.1,0.1C181.9,173.4,181.9,173.3,181.9,173.3z M182,173.7C182,173.7,182.1,173.7,182,173.7
				C182.1,173.7,182,173.7,182,173.7z M182.2,174L182.2,174L182.2,174z M182.4,174.2C182.4,174.3,182.4,174.3,182.4,174.2
				C182.4,174.3,182.4,174.3,182.4,174.2z M182.6,174.5C182.6,174.6,182.6,174.6,182.6,174.5C182.6,174.6,182.6,174.6,182.6,174.5
				C182.6,174.6,182.6,174.6,182.6,174.5z M182.7,174.6C182.7,174.6,182.7,174.7,182.7,174.6C182.7,174.7,182.7,174.7,182.7,174.6
				C182.7,174.7,182.7,174.7,182.7,174.6z M182.7,174.7C182.7,174.7,182.8,174.7,182.7,174.7C182.8,174.8,182.8,174.8,182.7,174.7
				C182.8,174.8,182.8,174.7,182.7,174.7z M182.8,174.8L182.8,174.8C182.9,174.8,182.9,174.8,182.8,174.8
				C182.9,174.8,182.8,174.8,182.8,174.8z M182.9,174.9L182.9,174.9c0.1,0.1,0.1,0.1,0.1,0.1C182.9,174.9,182.9,174.9,182.9,174.9z
				 M183,175C183.1,175.1,183.1,175.1,183,175c0.1,0.1,0.1,0.1,0.1,0.1S183.1,175.1,183,175z M183.2,175.2l0.1,0.1l0,0
				C183.3,175.3,183.3,175.2,183.2,175.2z M183.4,175.3C183.4,175.4,183.4,175.4,183.4,175.3c0.1,0.1,0.1,0.1,0.1,0.1
				S183.4,175.4,183.4,175.3z M183.6,175.5L183.6,175.5c0.1,0.1,0.1,0.1,0.1,0.1C183.7,175.6,183.6,175.5,183.6,175.5z M183.8,175.7
				C183.8,175.7,183.9,175.7,183.8,175.7c0.1,0.1,0.1,0.1,0.1,0.1C183.9,175.7,183.9,175.7,183.8,175.7z M184,175.8L184,175.8
				L184,175.8L184,175.8z M184.1,175.8L184.1,175.8c0.1,0,0.1,0.1,0.1,0.1C184.1,175.8,184.1,175.8,184.1,175.8z M184.2,175.9
				L184.2,175.9c0.1,0,0.1,0.1,0.1,0.1l0,0C184.3,176,184.3,175.9,184.2,175.9z M184.7,176.1C184.7,176.2,184.7,176.2,184.7,176.1
				c0.1,0,0.1,0,0.1,0.1C184.8,176.2,184.8,176.2,184.7,176.1z M185,176.3L185,176.3c0.1,0,0.1,0.1,0.1,0.1
				C185.1,176.3,185,176.3,185,176.3z M185.2,176.4c0,0,0.1,0,0.1,0.1l0,0C185.3,176.4,185.3,176.4,185.2,176.4z M185.8,176.6
				L185.8,176.6c0.1,0,0.1,0,0.2,0.1C185.9,176.6,185.9,176.6,185.8,176.6z M186.2,176.7L186.2,176.7c0.1,0,0.1,0,0.1,0H186.2z
				 M186.5,176.8L186.5,176.8c0.1,0,0.1,0,0.1,0H186.5z M186.8,176.9C186.9,176.9,186.9,176.9,186.8,176.9c0.1,0,0.1,0,0.1,0
				C186.9,176.9,186.9,176.9,186.8,176.9z M187.2,176.9C187.2,176.9,187.2,177,187.2,176.9C187.3,177,187.3,177,187.2,176.9
				C187.3,177,187.2,177,187.2,176.9z M187.5,177L187.5,177L187.5,177L187.5,177z M187.6,177L187.6,177L187.6,177L187.6,177z
				 M187.8,177.1C187.8,177.1,187.9,177.1,187.8,177.1c0.1,0,0.1,0,0.1,0C187.9,177.1,187.9,177.1,187.8,177.1z M188,177.1
				L188,177.1L188,177.1L188,177.1z M188.2,177.1h0.1h0.1C188.3,177.1,188.3,177.1,188.2,177.1z M188.8,156.8l0.1-0.1
				C188.9,156.7,188.8,156.8,188.8,156.8z M188.6,157c0-0.1,0.1-0.1,0.1-0.2C188.7,156.9,188.7,156.9,188.6,157z M190.5,177.3h0.1
				l0,0C190.6,177.3,190.6,177.3,190.5,177.3z M191,177.3c0.1,0,0.1,0,0.2,0l0,0C191.1,177.3,191.1,177.3,191,177.3z M191.5,177.3
				L191.5,177.3L191.5,177.3L191.5,177.3z M192.1,177.3h0.1l0,0C192.2,177.3,192.2,177.3,192.1,177.3z M193.7,177.2L193.7,177.2
				c0.1,0,0.1,0,0.2,0C193.8,177.2,193.8,177.2,193.7,177.2z M197.2,176.9c0.1,0,0.1,0,0.2,0l0,0
				C197.3,176.9,197.3,176.9,197.2,176.9z M232.8,143.7c0-0.1,0-0.1,0-0.2l0,0C232.8,143.5,232.8,143.6,232.8,143.7z M230.9,141.6
				L230.9,141.6L230.9,141.6L230.9,141.6z M232.7,145.9L232.7,145.9c0-0.1,0-0.2,0-0.3C232.7,145.8,232.7,145.8,232.7,145.9z
				 M232.8,145.6C232.8,145.6,232.8,145.5,232.8,145.6c0-0.1,0-0.1,0-0.1S232.8,145.5,232.8,145.6z M232.8,144.8v-0.1
				c0-0.1,0-0.1,0-0.2C232.8,144.6,232.8,144.7,232.8,144.8z M232.8,144.4L232.8,144.4c0-0.1,0-0.2,0-0.3
				C232.8,144.2,232.8,144.3,232.8,144.4L232.8,144.4z"/>
		</g>
	</g>
	<g>
		<g>
			<path class="st1" d="M210.8,180.5c-0.4,0-0.8,0-0.9,0.1h-0.2h-0.2c-18.2,5-34.2,6.2-34.4,6.2h-0.7l-0.6,0.3
				c-0.1,0.1-3,1.7-5.7,3.9c-1.7,1.4-3.1,2.8-4,4.1c-1.5,2.1-2,4.2-1.6,6.1c1.2,5.6,9.3,6.9,15.2,7.4c1.5,0.1,2.9,0.2,4.3,0.2
				c5.2,0,10-0.9,14.4-2.6c3.6-1.4,6.9-3.5,9.8-6c3.5-3.2,6.4-7.2,8.4-11.6c1.1-2.5,1.2-4.6,0.1-6.2
				C214.1,181.3,212.6,180.5,210.8,180.5z M165.8,199.3c0,0.1-0.1,0.3-0.1,0.4C165.7,199.6,165.7,199.4,165.8,199.3L165.8,199.3z
				 M165.8,200.9c0,0.1,0,0.2,0.1,0.2l0,0C165.8,201,165.8,201,165.8,200.9z M165.8,201.1L165.8,201.1
				C165.8,201.1,165.9,201.2,165.8,201.1C165.9,201.2,165.8,201.1,165.8,201.1z M166.1,201.6L166.1,201.6L166.1,201.6L166.1,201.6z
				 M166.2,201.9C166.2,201.8,166.2,201.8,166.2,201.9C166.2,201.8,166.2,201.8,166.2,201.9L166.2,201.9z M166.2,201.9L166.2,201.9
				c0.1,0.1,0.1,0.2,0.2,0.2l0,0C166.3,202,166.3,201.9,166.2,201.9z M167.7,203.2L167.7,203.2C167.8,203.2,167.8,203.2,167.7,203.2
				L167.7,203.2z M167.8,203.2L167.8,203.2l0.1,0.1C167.9,203.3,167.8,203.3,167.8,203.2z M212.5,184.9L212.5,184.9L212.5,184.9
				L212.5,184.9z M182.2,205.8c-0.1,0-0.3,0-0.4,0c0.2,0,0.4,0,0.6,0C182.3,205.8,182.3,205.8,182.2,205.8z M210.8,183.7
				L210.8,183.7L210.8,183.7L210.8,183.7z M212,187.2C212,187.2,212.1,187.2,212,187.2C212.1,187.2,212.1,187.2,212,187.2
				C212.1,187.2,212,187.2,212,187.2z M212.3,186.4L212.3,186.4C212.3,186.4,212.4,186.3,212.3,186.4
				C212.4,186.4,212.3,186.4,212.3,186.4z M212.4,186.2L212.4,186.2C212.4,186.1,212.4,186.1,212.4,186.2
				C212.4,186.1,212.4,186.2,212.4,186.2z M212.5,185.9L212.5,185.9C212.5,185.8,212.5,185.8,212.5,185.9L212.5,185.9z M212.5,184.8
				L212.5,184.8L212.5,184.8L212.5,184.8z M212.5,185.7C212.5,185.7,212.5,185.6,212.5,185.7c0-0.1,0-0.1,0-0.1
				C212.5,185.6,212.5,185.7,212.5,185.7z M212.5,185.5L212.5,185.5c0-0.1,0-0.1,0-0.1C212.5,185.4,212.5,185.5,212.5,185.5z
				 M212.5,185.3L212.5,185.3L212.5,185.3L212.5,185.3z M212.5,185.1L212.5,185.1C212.5,185.1,212.5,185.2,212.5,185.1
				C212.5,185.2,212.5,185.2,212.5,185.1z M212.5,185.2L212.5,185.2C212.5,185.2,212.5,185.3,212.5,185.2
				C212.5,185.3,212.5,185.3,212.5,185.2z"/>
		</g>
	</g>
	<g>
		<g>
			<path class="st1" d="M21.3,92.8c6.9,4.6,15.7,8.5,26.1,11.3c6.2,1.7,11.4,2.6,15.7,2.6c3.3,0,6.1-0.5,8.3-1.6
				c2.3-1.1,4-2.7,5.1-4.7c2.3-4.4,1.7-10.7-1.8-18.8c-2.5-5.6-5.4-10-5.6-10.2l-0.6-0.9l-1.1-0.3c-0.1,0-7.4-2.1-18.1-6.6
				C39.4,59.4,24.6,52.4,10,42.3l0,0H9.9c-0.3-0.2-1.8-1-3.7-1l0,0l0,0c-1.6,0-3,0.6-4.1,1.8c-1.6,1.8-2.3,4.6-2.1,8.8
				c0,0.6,0.1,1.2,0.1,1.9C0.4,59.6,0.8,69.2,7,78.9C10.5,84,15.3,88.8,21.3,92.8z M67,103.2L67,103.2
				C67.1,103.2,67.1,103.2,67,103.2L67,103.2z M67.2,103.2L67.2,103.2h0.2C67.3,103.1,67.2,103.2,67.2,103.2z M67.5,103.1
				L67.5,103.1C67.6,103.1,67.6,103.1,67.5,103.1C67.5,103.1,67.5,103.1,67.5,103.1z M68.1,103C68.2,102.9,68.2,102.9,68.1,103
				c0.1,0,0.2,0,0.2-0.1C68.3,102.9,68.2,102.9,68.1,103z M68.6,102.8L68.6,102.8c0.1,0,0.2-0.1,0.2-0.1
				C68.7,102.8,68.6,102.8,68.6,102.8z M69,102.7L69,102.7h0.2C69.1,102.6,69,102.7,69,102.7z M69.4,102.6L69.4,102.6
				c0.1,0,0.2,0,0.2-0.1C69.5,102.5,69.4,102.5,69.4,102.6z M69.7,102.4L69.7,102.4L69.7,102.4C69.8,102.4,69.7,102.4,69.7,102.4z
				 M70.5,102C70.6,102,70.6,102,70.5,102C70.6,102,70.6,102,70.5,102C70.6,102,70.6,102,70.5,102z M71.1,101.7
				C71.2,101.6,71.2,101.6,71.1,101.7c0.1-0.1,0.2-0.1,0.3-0.2C71.3,101.5,71.2,101.6,71.1,101.7z M72.4,100.6L72.4,100.6
				C72.5,100.5,72.5,100.6,72.4,100.6z M72.1,100.9L72.1,100.9C72.2,100.9,72.1,100.9,72.1,100.9z M72.8,100.2L72.8,100.2
				C72.8,100.2,72.8,100.2,72.8,100.2z M73.1,99.9L73.1,99.9L73.1,99.9C73.1,99.8,73.1,99.9,73.1,99.9z M73.3,99.5
				C73.4,99.5,73.4,99.5,73.3,99.5c0.1-0.1,0.1-0.1,0.1-0.2C73.4,99.4,73.4,99.4,73.3,99.5z M73.6,99.1c0-0.1,0.1-0.1,0.1-0.2
				C73.6,99,73.6,99,73.6,99.1z M73.8,98.7L73.8,98.7c0.1-0.1,0.1-0.2,0.1-0.2v-0.1C73.9,98.5,73.8,98.6,73.8,98.7z M74,98.2
				c0-0.1,0.1-0.1,0.1-0.2C74.1,98.1,74,98.2,74,98.2z M74.2,97.8c0-0.1,0-0.1,0.1-0.2c0,0,0,0,0-0.1C74.2,97.7,74.2,97.8,74.2,97.8
				z M74.3,97.5c0-0.1,0-0.1,0-0.2v-0.1c0-0.1,0-0.1,0.1-0.2C74.4,97.2,74.3,97.3,74.3,97.5z M74.4,96.9c0-0.1,0-0.2,0.1-0.2
				c0,0,0,0,0-0.1C74.5,96.7,74.5,96.8,74.4,96.9z M74.5,96.5c0-0.1,0-0.1,0-0.2v-0.1c0-0.1,0-0.2,0-0.3v-0.1c0-0.1,0-0.2,0-0.3l0,0
				C74.6,95.9,74.6,96.2,74.5,96.5z M74.7,95.5c0-0.1,0-0.2,0-0.3c0,0,0,0,0-0.1s0-0.2,0-0.3c0,0,0,0,0-0.1s0-0.2,0-0.3
				c0,0,0,0,0-0.1s0-0.2,0-0.3l0,0c0-0.1,0-0.2,0-0.3l0,0c0-0.1,0-0.2,0-0.3l0,0c0-0.1,0-0.2,0-0.4l0,0c0-0.1,0-0.2,0-0.4l0,0
				c-0.8-7.5-6.3-16.5-7.8-18.8C68.5,76.4,75.5,87.6,74.7,95.5z M66.7,73.5c0,0.1,0.1,0.2,0.2,0.3C66.8,73.6,66.7,73.6,66.7,73.5z
				 M66.6,73.4L66.6,73.4L66.6,73.4z M66.2,103.3C66.3,103.3,66.3,103.3,66.2,103.3L66.2,103.3L66.2,103.3z M65.7,103.4
				C65.7,103.4,65.8,103.4,65.7,103.4C65.7,103.4,65.7,103.4,65.7,103.4L65.7,103.4z M65.1,103.5L65.1,103.5
				C65.2,103.4,65.1,103.5,65.1,103.5L65.1,103.5z M64.9,103.5L64.9,103.5C64.9,103.5,64.8,103.5,64.9,103.5
				C64.8,103.5,64.8,103.5,64.9,103.5z M64.6,103.5L64.6,103.5C64.6,103.5,64.6,103.5,64.6,103.5C64.5,103.5,64.5,103.5,64.6,103.5z
				 M64.3,103.5L64.3,103.5L64.3,103.5C64.2,103.5,64.2,103.5,64.3,103.5z M64,103.5L64,103.5L64,103.5
				C63.9,103.5,63.9,103.5,64,103.5z M63.6,103.5C63.7,103.5,63.7,103.5,63.6,103.5C63.6,103.5,63.6,103.5,63.6,103.5
				S63.6,103.5,63.6,103.5z M63,103.5L63,103.5C63.1,103.5,63.1,103.5,63,103.5L63,103.5L63,103.5z M62.4,103.5L62.4,103.5
				C62.4,103.5,62.3,103.5,62.4,103.5C62.3,103.5,62.3,103.5,62.4,103.5z M61.7,103.5L61.7,103.5L61.7,103.5
				C61.6,103.5,61.6,103.5,61.7,103.5z M61,103.5L61,103.5c-0.1,0-0.1,0-0.2,0C60.9,103.5,60.9,103.5,61,103.5z M59.1,103.3
				C59.2,103.3,59.2,103.3,59.1,103.3C59.2,103.3,59.1,103.3,59.1,103.3L59.1,103.3z M58.4,103.2L58.4,103.2
				C58.4,103.2,58.3,103.2,58.4,103.2C58.3,103.2,58.3,103.2,58.4,103.2z M55.4,102.8c0.1,0,0.2,0,0.3,0
				C55.6,102.8,55.5,102.8,55.4,102.8L55.4,102.8z M54.5,102.6c0.1,0,0.2,0,0.2,0H54.5L54.5,102.6z M53.6,102.4c0.1,0,0.1,0,0.2,0
				C53.7,102.4,53.6,102.4,53.6,102.4C53.5,102.4,53.6,102.4,53.6,102.4z M52.7,102.2c0.1,0,0.1,0,0.2,0c-0.1,0-0.2-0.1-0.4-0.1
				C52.5,102.2,52.6,102.2,52.7,102.2z M51.7,102L51.7,102c0,0-0.1-0.1-0.3-0.1C51.5,101.9,51.6,102,51.7,102z M50.7,101.7
				L50.7,101.7c0,0-0.2,0-0.3-0.1C50.5,101.7,50.6,101.7,50.7,101.7z M49.6,101.4C49.6,101.5,49.6,101.5,49.6,101.4
				c-0.1,0-0.2,0-0.3-0.1C49.4,101.4,49.5,101.4,49.6,101.4z M11.2,79.2c0,0.1,0.1,0.1,0.1,0.2c-0.1-0.1-0.2-0.2-0.2-0.3
				C11.2,79.1,11.2,79.1,11.2,79.2z M3.1,50L3.1,50C3.1,49.9,3.1,50,3.1,50L3.1,50z M3.1,50.4L3.1,50.4c0,0.1,0,0.1,0,0.2
				C3.1,50.5,3.1,50.4,3.1,50.4z M3.1,49.5C3.1,49.5,3.1,49.6,3.1,49.5C3.1,49.6,3.1,49.6,3.1,49.5L3.1,49.5
				C3.2,49.5,3.2,49.5,3.1,49.5z M3.2,50.9L3.2,50.9C3.2,51,3.2,51,3.2,50.9C3.2,50.9,3.2,50.9,3.2,50.9z M6.2,44.3L6.2,44.3
				L6.2,44.3L6.2,44.3z"/>
		</g>
	</g>
	<g>
		<g>
			<path class="st1" d="M42.8,141.2c5.1,1.3,9.4,2,12.8,2c2.8,0,5.1-0.4,6.9-1.3c2-0.9,3.4-2.3,4.3-4.1c1.8-3.7,0.9-8.8-2.5-15.2
				c-2.3-4.3-5-7.7-5.1-7.9l-0.6-0.7l-0.9-0.3c-0.2-0.1-23.2-7.9-45.9-23.6c-0.6-0.5-2.2-1.6-4.2-1.6l0,0l0,0
				c-1.3,0-2.5,0.5-3.4,1.5c-1.3,1.5-1.8,3.7-1.6,7.1c0.6,7.5,3,14.8,6.8,21.1c3.1,5.1,7.2,9.6,12.1,13.2
				C27.4,135.8,34.5,139.1,42.8,141.2z M45.4,138.6c0.1,0,0.1,0,0.2,0c0,0,0,0,0.1,0C45.6,138.6,45.5,138.6,45.4,138.6z M46.2,138.8
				c0.1,0,0.1,0,0.2,0h0.1C46.4,138.8,46.3,138.8,46.2,138.8z M47.1,139L47.1,139h0.2C47.2,139,47.1,139,47.1,139z M47.9,139.1
				L47.9,139.1c0.1,0,0.2,0,0.2,0C48,139.2,47.9,139.2,47.9,139.1z M50.3,139.6L50.3,139.6L50.3,139.6
				C50.4,139.6,50.4,139.6,50.3,139.6z M51,139.7L51,139.7h0.2C51.1,139.7,51.1,139.7,51,139.7z M51.7,139.8L51.7,139.8
				c0.1,0,0.2,0,0.2,0C51.8,139.8,51.7,139.8,51.7,139.8z M52.3,139.8C52.4,139.8,52.4,139.8,52.3,139.8c0.1,0,0.2,0,0.2,0
				S52.4,139.8,52.3,139.8z M53,139.9L53,139.9c0.1,0,0.1,0,0.2,0C53.1,139.9,53.1,139.9,53,139.9z M54.4,140L54.4,140L54.4,140
				C54.5,140,54.5,140,54.4,140z M55,140L55,140L55,140C55.1,140,55.1,140,55,140z M55.6,140L55.6,140L55.6,140c0.1,0,0.1,0,0.2,0
				C55.7,140,55.7,140,55.6,140z M56,140L56,140c0.1,0,0.1,0,0.2,0C56.2,140,56.1,140,56,140z M56.4,140L56.4,140
				C56.5,140,56.5,140,56.4,140C56.5,140,56.4,140,56.4,140z M56.6,140L56.6,140C56.7,140,56.7,140,56.6,140
				C56.7,140,56.6,140,56.6,140z M56.9,140L56.9,140L56.9,140L56.9,140z M57.1,140L57.1,140C57.1,140,57.2,140,57.1,140
				C57.2,140,57.1,140,57.1,140z M57.3,140C57.3,139.9,57.3,139.9,57.3,140C57.4,140,57.4,140,57.3,140
				C57.4,139.9,57.3,139.9,57.3,140z M57.6,139.9L57.6,139.9c0.1,0,0.2,0,0.2,0l0,0C57.7,139.9,57.7,139.9,57.6,139.9z M58,139.9
				L58,139.9C58.1,139.9,58.1,139.9,58,139.9L58,139.9z M58.2,139.9C58.2,139.9,58.2,139.8,58.2,139.9
				C58.2,139.8,58.3,139.8,58.2,139.9C58.2,139.8,58.2,139.9,58.2,139.9z M58.4,139.8L58.4,139.8C58.5,139.8,58.5,139.8,58.4,139.8
				C58.5,139.8,58.4,139.8,58.4,139.8z M58.6,139.8L58.6,139.8C58.7,139.8,58.7,139.8,58.6,139.8C58.7,139.8,58.6,139.8,58.6,139.8z
				 M58.8,139.8L58.8,139.8C58.8,139.7,58.9,139.7,58.8,139.8C58.8,139.7,58.8,139.8,58.8,139.8z M59,139.7L59,139.7
				c0.1,0,0.2,0,0.2,0l0,0C59.1,139.7,59.1,139.7,59,139.7z M59.3,139.6C59.4,139.6,59.4,139.6,59.3,139.6c0.1,0,0.2,0,0.2,0
				S59.4,139.6,59.3,139.6z M59.7,139.6C59.7,139.6,59.7,139.5,59.7,139.6c0.1,0,0.2,0,0.2-0.1C59.8,139.5,59.8,139.5,59.7,139.6z
				 M60,139.5L60,139.5h0.2C60.1,139.4,60.1,139.5,60,139.5z M60.3,139.4c0.1,0,0.1,0,0.2-0.1l0,0C60.5,139.3,60.4,139.3,60.3,139.4
				z M60.6,139.3C60.7,139.3,60.7,139.2,60.6,139.3c0.1-0.1,0.2-0.1,0.2-0.1S60.7,139.2,60.6,139.3z M60.9,139.1c0,0,0.1,0,0.1-0.1
				h0.1C61.1,139.1,61,139.1,60.9,139.1z M61.5,138.9L61.5,138.9c0.1,0,0.1,0,0.1-0.1C61.5,138.9,61.5,138.9,61.5,138.9z
				 M61.8,138.7C61.8,138.7,61.9,138.7,61.8,138.7c0.1-0.1,0.1-0.1,0.2-0.1l0,0C62,138.6,61.9,138.7,61.8,138.7z M62.1,138.6
				C62.1,138.5,62.1,138.5,62.1,138.6c0.1-0.1,0.1-0.1,0.1-0.1C62.1,138.5,62.1,138.5,62.1,138.6z M62.3,138.4L62.3,138.4
				C62.4,138.3,62.4,138.3,62.3,138.4C62.4,138.4,62.3,138.4,62.3,138.4z M62.7,138.1l0.1-0.1C62.7,138,62.7,138.1,62.7,138.1z
				 M62.9,137.9L62.9,137.9L62.9,137.9z M63.1,137.7l0.1-0.1C63.1,137.7,63.1,137.7,63.1,137.7z M63.2,137.5L63.2,137.5
				C63.3,137.5,63.3,137.5,63.2,137.5C63.3,137.5,63.3,137.5,63.2,137.5z M63.6,137C63.7,137,63.7,137,63.6,137
				c0.1-0.1,0.1-0.2,0.2-0.3C63.8,136.8,63.7,136.9,63.6,137z M63.8,136.7c0-0.1,0.1-0.1,0.1-0.2C63.9,136.6,63.9,136.6,63.8,136.7z
				 M64,136.4v-0.1C64,136.3,64,136.3,64,136.4z M64.1,136.1C64.1,136,64.1,136,64.1,136.1c0-0.1,0-0.1,0-0.1S64.1,136,64.1,136.1z
				 M64.2,135.7L64.2,135.7c0-0.1,0-0.1,0-0.2C64.3,135.6,64.2,135.7,64.2,135.7z M64.3,135.4v-0.1l0,0
				C64.4,135.3,64.3,135.3,64.3,135.4z M64.4,135.1C64.4,135,64.4,135,64.4,135.1c0-0.1,0-0.1,0-0.1s0,0,0-0.1
				C64.4,134.9,64.4,135,64.4,135.1z M64.5,134.7L64.5,134.7c0-0.1,0-0.1,0-0.2C64.5,134.6,64.5,134.6,64.5,134.7z M64.5,134.4v-0.1
				v-0.1c0,0,0,0,0-0.1C64.5,134.2,64.5,134.3,64.5,134.4z M64.5,133.9L64.5,133.9c0-0.1,0-0.1,0-0.2
				C64.5,133.8,64.5,133.9,64.5,133.9z M64.5,133.6c0-0.1,0-0.2,0-0.3C64.5,133.4,64.5,133.5,64.5,133.6z M64.5,133.3
				c-0.2-6.4-6.9-15.3-7.8-16.4C57.6,118,64.4,126.9,64.5,133.3z M56.7,116.7C56.7,116.7,56.7,116.8,56.7,116.7
				C56.7,116.8,56.7,116.7,56.7,116.7s-0.6-0.2-1.6-0.6C56.1,116.6,56.7,116.7,56.7,116.7z M56.8,116.9
				C56.8,116.8,56.8,116.8,56.8,116.9C56.8,116.8,56.8,116.8,56.8,116.9z M48.7,113.7c0.9,0.4,1.7,0.7,2.4,1
				C50.4,114.4,49.6,114,48.7,113.7c-0.4-0.2-0.9-0.4-1.3-0.6C47.8,113.3,48.3,113.5,48.7,113.7z M44.7,138.4L44.7,138.4
				c0,0-0.1,0-0.2,0C44.6,138.4,44.6,138.4,44.7,138.4z M10,112.6c-0.1-0.3-0.3-0.6-0.4-0.8C9.7,112.1,9.8,112.4,10,112.6z
				 M8.9,110.2c0-0.1-0.1-0.2-0.1-0.3C8.8,110,8.9,110.1,8.9,110.2z M8.6,109.3c0-0.1-0.1-0.2-0.1-0.3
				C8.5,109.2,8.5,109.3,8.6,109.3z M8.2,108.5c0-0.1-0.1-0.2-0.1-0.3C8.2,108.3,8.2,108.4,8.2,108.5z M7.6,91.7L7.6,91.7L7.6,91.7
				L7.6,91.7z M7.6,106.5c0-0.1-0.1-0.3-0.1-0.4C7.5,106.3,7.6,106.4,7.6,106.5z M7.4,105.9c0-0.1-0.1-0.3-0.1-0.4
				C7.3,105.6,7.4,105.7,7.4,105.9z M7.2,105.3c0-0.2-0.1-0.3-0.1-0.5C7.1,104.9,7.2,105.1,7.2,105.3z M7.1,104.7
				c-0.1-0.2-0.1-0.4-0.2-0.6C7,104.3,7,104.5,7.1,104.7z M6.9,103.9c0-0.1-0.1-0.3-0.1-0.4C6.8,103.6,6.8,103.8,6.9,103.9z
				 M6.7,103.3c0-0.1-0.1-0.3-0.1-0.4C6.7,103,6.7,103.2,6.7,103.3z M6.6,102.7c0-0.2-0.1-0.4-0.1-0.6
				C6.5,102.3,6.6,102.5,6.6,102.7z M6.5,102c0-0.2-0.1-0.4-0.1-0.6C6.4,101.6,6.4,101.8,6.5,102z M6.3,101.3c0-0.2-0.1-0.4-0.1-0.6
				C6.3,100.9,6.3,101.1,6.3,101.3z M6.2,100.6c0-0.2-0.1-0.3-0.1-0.5C6.1,100.3,6.2,100.4,6.2,100.6z M5.7,95.4L5.7,95.4L5.7,95.4
				L5.7,95.4L5.7,95.4z M5.7,96C5.7,96.1,5.7,96.1,5.7,96L5.7,96L5.7,96z M5.7,96.3C5.7,96.4,5.7,96.4,5.7,96.3
				C5.7,96.4,5.7,96.4,5.7,96.3C5.7,96.4,5.7,96.4,5.7,96.3z M5.7,96.5L5.7,96.5L5.7,96.5L5.7,96.5z M5.7,96.8L5.7,96.8L5.7,96.8
				c0,0.4,0.1,0.9,0.2,1.5C5.8,97.8,5.8,97.3,5.7,96.8z M6.1,100c0-0.2,0-0.3-0.1-0.4C6.1,99.7,6.1,99.8,6.1,100z M7.7,106.7
				c0.1,0.2,0.1,0.4,0.2,0.6C7.8,107.2,7.7,107,7.7,106.7z M12.1,116.5c0.1,0.2,0.2,0.3,0.3,0.5c0.1,0.1,0.1,0.2,0.2,0.3
				C12.4,117.1,12.2,116.8,12.1,116.5z"/>
		</g>
	</g>
	<g>
		<g>
			<path class="st1" d="M64.5,180.5c6.6,0,10.7-1.9,12.4-5.7c1.6-3.5,0.6-8.1-2.8-13.7c-2.3-3.7-4.8-6.6-5-6.7l-0.7-0.8l-1.1-0.2
				c-0.2,0-19.9-3.5-39.6-14.2l-0.1-0.1h-0.1c-0.3-0.1-1.3-0.5-2.5-0.5l0,0c-1.5,0-2.9,0.6-3.8,1.7c-1.3,1.5-1.6,3.8-1,7
				c1.2,6.1,3.8,11.9,7.5,16.7c3,3.9,6.8,7.2,11.2,9.8c5.2,3.1,11.4,5.1,18.4,6.1C60,180.3,62.4,180.5,64.5,180.5z M67.6,177.1
				C67.6,177.1,67.7,177.1,67.6,177.1c0.1,0,0.2,0,0.2,0C67.7,177.1,67.7,177.1,67.6,177.1z M68,177.1L68,177.1L68,177.1L68,177.1z
				 M68,177.1C68.1,177.1,68.1,177.1,68,177.1C68.1,177.1,68.1,177.1,68,177.1C68.1,177.1,68.1,177.1,68,177.1z M68.3,177
				C68.4,177,68.4,177,68.3,177C68.4,177,68.4,177,68.3,177C68.4,177,68.4,177,68.3,177z M68.5,177L68.5,177L68.5,177L68.5,177z
				 M68.7,177L68.7,177C68.8,177,68.8,176.9,68.7,177C68.8,177,68.7,177,68.7,177z M69,176.9C69.1,176.9,69.1,176.9,69,176.9
				C69.1,176.9,69.1,176.9,69,176.9C69.1,176.9,69.1,176.9,69,176.9z M69.4,176.8L69.4,176.8C69.5,176.8,69.5,176.8,69.4,176.8
				L69.4,176.8z M69.7,176.7L69.7,176.7L69.7,176.7C69.8,176.7,69.7,176.7,69.7,176.7z M70,176.6L70,176.6L70,176.6
				C70.1,176.6,70.1,176.6,70,176.6z M70.6,176.4L70.6,176.4c0.1,0,0.1,0,0.2-0.1C70.7,176.4,70.7,176.4,70.6,176.4z M70.9,176.3
				L70.9,176.3c0.1,0,0.1-0.1,0.1-0.1C71,176.3,70.9,176.3,70.9,176.3z M71.2,176.2L71.2,176.2c0.1,0,0.1-0.1,0.1-0.1
				C71.2,176.2,71.2,176.2,71.2,176.2z M71.6,176L71.6,176c0.1,0,0.1-0.1,0.1-0.1l0,0C71.7,175.9,71.7,176,71.6,176z M71.8,175.9
				C71.9,175.9,71.9,175.8,71.8,175.9c0.1,0,0.1,0,0.1-0.1C71.9,175.8,71.9,175.8,71.8,175.9z M72,175.8L72,175.8L72,175.8L72,175.8
				z M72.1,175.7L72.1,175.7c0.1,0,0.1-0.1,0.1-0.1C72.1,175.7,72.1,175.7,72.1,175.7z M72.3,175.6L72.3,175.6
				c0.1-0.1,0.1-0.1,0.1-0.1L72.3,175.6z M72.5,175.5l0.1-0.1l0,0C72.6,175.4,72.5,175.4,72.5,175.5z M72.6,175.3
				C72.6,175.3,72.7,175.3,72.6,175.3c0.1,0,0.1-0.1,0.1-0.1S72.7,175.3,72.6,175.3z M72.8,175.1C72.9,175.1,72.9,175.1,72.8,175.1
				c0.1-0.1,0.1-0.1,0.1-0.1C72.9,175.1,72.9,175.1,72.8,175.1z M72.7,164.9c0.3,0.5,0.5,1,0.7,1.6C73.2,165.9,73,165.4,72.7,164.9z
				 M73,175C73,175,73.1,174.9,73,175c0.1-0.1,0.1-0.1,0.1-0.1C73.1,174.9,73.1,174.9,73,175z M73.1,174.9
				C73.1,174.8,73.1,174.8,73.1,174.9C73.2,174.8,73.2,174.8,73.1,174.9C73.2,174.8,73.1,174.8,73.1,174.9z M73.2,174.8L73.2,174.8
				C73.2,174.7,73.3,174.7,73.2,174.8C73.2,174.7,73.2,174.8,73.2,174.8z M73.3,174.7L73.3,174.7C73.3,174.7,73.3,174.6,73.3,174.7
				L73.3,174.7z M73.3,174.6C73.4,174.6,73.4,174.6,73.3,174.6C73.4,174.6,73.4,174.6,73.3,174.6C73.4,174.6,73.4,174.6,73.3,174.6z
				 M73.6,174.3L73.6,174.3L73.6,174.3z M73.8,174L73.8,174L73.8,174z M73.9,173.8C73.9,173.7,74,173.7,73.9,173.8
				C74,173.7,73.9,173.7,73.9,173.8z M73.4,166.5c0.2,0.5,0.4,1,0.6,1.5C73.8,167.5,73.6,167,73.4,166.5z M74,168
				c0.1,0.2,0.1,0.3,0.1,0.5C74.1,168.4,74.1,168.2,74,168z M74.1,173.3L74.1,173.3C74.1,173.3,74.1,173.4,74.1,173.3
				C74.1,173.4,74.1,173.4,74.1,173.3z M74.2,173.1L74.2,173.1C74.2,173,74.2,173,74.2,173.1C74.2,173,74.2,173,74.2,173.1z
				 M74.3,172.8L74.3,172.8L74.3,172.8L74.3,172.8z M74.5,170.8L74.5,170.8v0.1V170.8z M74.5,171.4
				C74.5,171.4,74.5,171.3,74.5,171.4L74.5,171.4C74.5,171.5,74.5,171.4,74.5,171.4z M74.5,170.6C74.5,170.5,74.5,170.5,74.5,170.6
				c0-0.1,0-0.1,0-0.1C74.5,170.6,74.5,170.7,74.5,170.6C74.5,170.6,74.5,170.6,74.5,170.6z M74.5,171.6c0,0.2,0,0.4-0.1,0.6v-0.1
				C74.5,172,74.5,171.9,74.5,171.6C74.5,171.7,74.5,171.7,74.5,171.6z M74.5,170.2L74.5,170.2C74.5,170.2,74.5,170.3,74.5,170.2
				C74.5,170.3,74.5,170.3,74.5,170.2z M74.4,169.6c0,0.2,0.1,0.3,0.1,0.5C74.4,169.9,74.4,169.7,74.4,169.6z M74.4,172.4v0.1
				C74.4,172.5,74.4,172.5,74.4,172.4C74.4,172.5,74.4,172.5,74.4,172.4z M74.5,171.2L74.5,171.2c0-0.1,0-0.1,0-0.2
				C74.5,171.1,74.5,171.1,74.5,171.2z M74.4,169.6c-0.1-0.3-0.1-0.7-0.2-1C74.2,168.9,74.3,169.2,74.4,169.6z M72.7,164.9
				c-1.5-2.9-3.5-5.6-4.7-7.2C69.2,159.2,71.2,162,72.7,164.9z M68,157.7c-0.2-0.3-0.4-0.5-0.6-0.7C67.6,157.2,67.7,157.4,68,157.7z
				 M67.2,156.8l-0.1-0.1L67.2,156.8z M67.4,157c0-0.1-0.1-0.1-0.1-0.2C67.3,156.9,67.3,156.9,67.4,157z M66.9,156.5
				C66.9,156.4,66.9,156.4,66.9,156.5C66.9,156.4,66.9,156.4,66.9,156.5z M65.3,177.3L65.3,177.3C65.4,177.3,65.4,177.3,65.3,177.3
				L65.3,177.3z M64.8,177.3c0.1,0,0.1,0,0.2,0C64.9,177.3,64.9,177.3,64.8,177.3L64.8,177.3z M64.5,177.3L64.5,177.3L64.5,177.3
				L64.5,177.3z M63.7,177.3L63.7,177.3C63.8,177.3,63.8,177.3,63.7,177.3L63.7,177.3z M62.3,177.2L62.3,177.2L62.3,177.2
				C62.2,177.2,62.2,177.2,62.3,177.2z M58.6,176.9c0.1,0,0.1,0,0.2,0C58.7,176.9,58.7,176.9,58.6,176.9L58.6,176.9z M23.2,143.5
				L23.2,143.5c0,0.1,0,0.1,0,0.2C23.2,143.6,23.2,143.5,23.2,143.5z M23.2,144.4c0-0.1,0-0.2,0-0.3
				C23.2,144.2,23.2,144.3,23.2,144.4L23.2,144.4L23.2,144.4z M23.2,144.7v0.1c0-0.1,0-0.2,0-0.3C23.2,144.6,23.2,144.6,23.2,144.7z
				 M23.2,145.5L23.2,145.5c0,0.1,0,0.1,0,0.1C23.2,145.5,23.2,145.5,23.2,145.5z M23.2,145.7c0,0.1,0,0.1,0,0.2v0.1
				C23.3,145.8,23.3,145.8,23.2,145.7z M25,141.6C25.1,141.6,25.1,141.6,25,141.6C25.1,141.6,25.1,141.6,25,141.6
				C25.1,141.6,25.1,141.6,25,141.6z"/>
		</g>
	</g>
	<g>
		<g>
			<path class="st1" d="M87.8,191.2c-2.7-2.2-5.6-3.9-5.7-3.9l-0.6-0.3h-0.7c-0.2,0-16.2-1.2-34.4-6.2h-0.2H46
				c-0.1,0-0.5-0.1-0.9-0.1c-1.7,0-3.2,0.8-4.1,2.1c-1,1.6-1,3.7,0.1,6.2c2,4.4,4.9,8.4,8.4,11.6c2.9,2.6,6.2,4.6,9.8,6
				c4.3,1.7,9.2,2.6,14.4,2.6c1.4,0,2.9-0.1,4.3-0.2c6-0.5,14-1.8,15.2-7.4c0.4-2-0.1-4-1.6-6.1C90.8,194,89.5,192.6,87.8,191.2z
				 M43.5,184.9L43.5,184.9L43.5,184.9L43.5,184.9z M43.5,185.3C43.5,185.3,43.5,185.2,43.5,185.3C43.5,185.2,43.5,185.2,43.5,185.3
				L43.5,185.3z M43.5,185.1L43.5,185.1c0,0.1,0,0.1,0,0.1C43.5,185.2,43.5,185.1,43.5,185.1z M43.5,185.3L43.5,185.3L43.5,185.3
				L43.5,185.3z M43.5,185.4v0.1l0,0C43.5,185.5,43.5,185.4,43.5,185.4z M43.5,185.6L43.5,185.6v0.1
				C43.5,185.7,43.5,185.6,43.5,185.6z M43.5,184.8v-0.1C43.5,184.7,43.5,184.7,43.5,184.8L43.5,184.8L43.5,184.8z M43.5,185.8
				L43.5,185.8C43.5,185.9,43.5,185.9,43.5,185.8C43.5,185.9,43.5,185.9,43.5,185.8z M43.6,186.1L43.6,186.1
				C43.6,186.2,43.6,186.2,43.6,186.1C43.6,186.2,43.6,186.1,43.6,186.1z M43.6,186.3C43.6,186.3,43.7,186.4,43.6,186.3
				C43.7,186.4,43.7,186.4,43.6,186.3C43.7,186.4,43.6,186.4,43.6,186.3z M43.9,187.2L43.9,187.2C43.9,187.2,44,187.2,43.9,187.2
				C44,187.2,43.9,187.2,43.9,187.2z M45.2,183.7L45.2,183.7L45.2,183.7L45.2,183.7z M73.8,205.8L73.8,205.8c0.1,0,0.3,0,0.5,0
				C74.1,205.8,73.9,205.8,73.8,205.8z"/>
		</g>
	</g>
</g>
<g>
	
		<linearGradient id="SVGID_1_" gradientUnits="userSpaceOnUse" x1="181.3722" y1="185.5645" x2="252.9443" y2="185.5645" gradientTransform="matrix(1 0 0 -1 0 256)">
		<stop  offset="0.3879" style="stop-color:#6BB5F5"/>
		<stop  offset="0.9987" style="stop-color:#4499D7"/>
	</linearGradient>
	<path class="st2" d="M189.6,69.7c0,0,29.6-8.5,58.2-28.3c0,0,5.7-3.5,5.1,6.6s0.9,36.9-45,49.6S189.6,69.7,189.6,69.7z"/>
	<path class="st3" d="M249.9,40.8c1.6,0,3.4,1.2,3,7.2c-0.7,10.1,0.9,36.9-45,49.6c-6.2,1.7-11.1,2.5-14.8,2.5
		c-24.1,0-3.4-30.3-3.4-30.3s29.6-8.5,58.2-28.3C247.9,41.4,248.8,40.8,249.9,40.8 M249.9,37.6L249.9,37.6L249.9,37.6L249.9,37.6
		c-1.9,0-3.4,0.9-3.7,1h-0.1l-0.1,0.1c-14.5,10.1-29.3,17.1-39.2,21.2c-10.7,4.5-18.1,6.6-18.1,6.6l-1.1,0.3l-0.6,0.9
		c-0.1,0.2-3.1,4.6-5.6,10.2c-3.5,8-4.2,14.3-1.8,18.8c1.1,2.1,2.8,3.7,5.1,4.7c2.2,1,5,1.6,8.3,1.6c4.2,0,9.5-0.9,15.7-2.6
		c10.4-2.9,19.2-6.7,26.1-11.3c6-4,10.8-8.8,14.2-14.1c6.2-9.7,6.7-19.3,6.9-25.1c0-0.7,0.1-1.3,0.1-1.9c0.3-4.1-0.4-7-2.1-8.8
		C252.9,38.3,251.5,37.6,249.9,37.6L249.9,37.6L249.9,37.6z"/>
	<g class="st4">
		<path class="st5" d="M207.9,94.4c-19.4,5.4-25.6,1.2-26.4-5.3c-0.8,8.2,4.1,14.7,26.4,8.5c45.9-12.7,44.4-39.5,45-49.6
			c0.1-1.2,0.1-2.1,0-3C252.3,55.2,253.5,81.8,207.9,94.4z"/>
	</g>
	
		<linearGradient id="SVGID_2_" gradientUnits="userSpaceOnUse" x1="191.5563" y1="143.7018" x2="250.4286" y2="143.7018" gradientTransform="matrix(1 0 0 -1 0 256)">
		<stop  offset="0.3879" style="stop-color:#6BB5F5"/>
		<stop  offset="0.9987" style="stop-color:#4499D7"/>
	</linearGradient>
	<path class="st6" d="M199.4,113.2c0,0,23.5-7.9,46.8-24.1c0,0,4.8-4,4.1,4.2c-0.5,6.2-3.7,32.6-37.8,41.3
		C174.9,144.3,199.4,113.2,199.4,113.2z"/>
	<path class="st3" d="M248.5,88.1c1.1,0,2.2,1,1.8,5.2c-0.5,6.2-3.7,32.6-37.8,41.3c-5.1,1.3-9,1.9-12,1.9
		c-19.5,0-1.1-23.3-1.1-23.3s23.5-7.9,46.8-24.1C246.2,89.1,247.4,88.1,248.5,88.1 M248.5,85L248.5,85L248.5,85
		c-1.9,0-3.6,1.1-4.2,1.6c-22.7,15.7-45.7,23.5-45.9,23.6l-0.9,0.3l-0.6,0.7c-0.1,0.1-2.8,3.6-5.1,7.9c-3.4,6.4-4.3,11.5-2.5,15.2
		c0.9,1.8,2.3,3.2,4.3,4.1c1.9,0.9,4.1,1.3,6.9,1.3c3.4,0,7.7-0.7,12.8-2c8.3-2.1,15.4-5.4,21.3-9.8c4.9-3.7,9-8.1,12.1-13.2
		c3.8-6.3,6.2-13.6,6.8-21.1c0.3-3.4-0.2-5.6-1.6-7.1C251.1,85.5,249.8,85,248.5,85L248.5,85z"/>
	<g class="st4">
		<path class="st5" d="M250.4,90.9c-0.5,6.2-3.7,32.6-37.8,41.3c-15.1,3.9-20.2,1.2-20.9-3.4c-0.7,6,3.3,10.3,20.9,5.8
			c34.1-8.7,37.3-35.2,37.8-41.3c0.1-1,0.1-1.9,0-2.6C250.4,90.8,250.4,90.8,250.4,90.9z"/>
	</g>
	
		<linearGradient id="SVGID_3_" gradientUnits="userSpaceOnUse" x1="181.5629" y1="100.1053" x2="232.92" y2="100.1053" gradientTransform="matrix(1 0 0 -1 0 256)">
		<stop  offset="0.3879" style="stop-color:#6BB5F5"/>
		<stop  offset="0.9987" style="stop-color:#4499D7"/>
	</linearGradient>
	<path class="st7" d="M189.2,152.9c0,0,20.2-3.5,40.6-14.6c0,0,4.1-1.9,2.9,4.7c-1,4.9-5.9,26.1-34.4,30.2
		C167,177.7,189.2,152.9,189.2,152.9z"/>
	<path class="st3" d="M231,138.1c1.1,0,2.5,0.8,1.7,5c-1,4.9-5.9,26.1-34.4,30.2c-2.6,0.4-4.8,0.5-6.8,0.5
		c-21.1,0-2.4-20.9-2.4-20.9s20.2-3.5,40.6-14.6C229.8,138.3,230.4,138.1,231,138.1 M231,134.9L231,134.9c-1.2,0-2.2,0.4-2.5,0.5
		h-0.1l-0.1,0.1c-19.7,10.7-39.4,14.2-39.6,14.2l-1.1,0.2l-0.7,0.8c-0.1,0.1-2.7,3-5,6.7c-3.4,5.6-4.3,10.2-2.8,13.7
		c1.7,3.8,5.9,5.7,12.4,5.7c2.1,0,4.5-0.2,7.2-0.6c7-1,13.1-3.1,18.4-6.1c4.4-2.6,8.1-5.9,11.2-9.8c3.7-4.8,6.3-10.6,7.5-16.7
		c0.6-3.2,0.3-5.4-1-7C233.9,135.5,232.5,134.9,231,134.9L231,134.9z"/>
	<g class="st4">
		<path class="st5" d="M232.7,141c-1,4.9-5.9,26.1-34.4,30.2c-12,1.7-16.1-0.8-16.7-4.7c-0.6,4.9,2.7,8.7,16.7,6.7
			c28.4-4.1,33.4-25.2,34.4-30.2c0.3-1.4,0.3-2.4,0.2-3.1C232.8,140.2,232.8,140.6,232.7,141z"/>
	</g>
	
		<linearGradient id="SVGID_4_" gradientUnits="userSpaceOnUse" x1="165.7525" y1="64.7723" x2="212.6302" y2="64.7723" gradientTransform="matrix(1 0 0 -1 0 256)">
		<stop  offset="0.3879" style="stop-color:#6BB5F5"/>
		<stop  offset="0.9987" style="stop-color:#4499D7"/>
	</linearGradient>
	<path class="st8" d="M175.6,186.5c0,0,16.2-1.1,35-6.3c0,0,3.4-0.6,1.4,3.8c-1.7,3.9-9.8,20.2-33.8,18.1
		C151.8,199.9,175.6,186.5,175.6,186.5z"/>
	<path class="st3" d="M210.9,180.1c0.8,0,2.6,0.4,1.1,3.9c-1.6,3.6-8.9,18.3-29.7,18.3c-1.3,0-2.7-0.1-4.1-0.2
		c-26.5-2.3-2.7-15.7-2.7-15.7s16.2-1.1,35-6.3C210.6,180.1,210.7,180.1,210.9,180.1 M210.9,177c-0.4,0-0.8,0-0.9,0.1h-0.2h-0.2
		c-18.2,5-34.2,6.2-34.4,6.2h-0.7l-0.6,0.3c-0.1,0.1-3,1.7-5.7,3.9c-1.7,1.4-3.1,2.8-4,4.1c-1.5,2.1-2,4.2-1.6,6.1
		c1.2,5.6,9.3,6.9,15.2,7.4c1.5,0.1,2.9,0.2,4.3,0.2c5.2,0,10-0.9,14.4-2.6c3.6-1.4,6.9-3.5,9.8-6c3.5-3.2,6.4-7.2,8.4-11.6
		c1.1-2.5,1.2-4.6,0.1-6.2C214.2,177.7,212.7,177,210.9,177L210.9,177z"/>
	<g class="st4">
		<path class="st5" d="M212,182.4c-1.7,3.9-9.8,20.2-33.8,18.1c-8.5-0.7-11.8-2.6-12.4-4.8c-0.7,2.9,1.9,5.5,12.4,6.4
			c24,2.1,32-14.3,33.8-18.1c0.7-1.5,0.7-2.4,0.5-3C212.4,181.4,212.3,181.9,212,182.4z"/>
	</g>
</g>
<g>
	
		<linearGradient id="SVGID_5_" gradientUnits="userSpaceOnUse" x1="-505.2568" y1="185.5645" x2="-433.6848" y2="185.5645" gradientTransform="matrix(-1 0 0 -1 -430.429 256)">
		<stop  offset="0.3879" style="stop-color:#6BB5F5"/>
		<stop  offset="1" style="stop-color:#4499D7"/>
	</linearGradient>
	<path class="st9" d="M66.6,69.7c0,0-29.6-8.5-58.2-28.3c0,0-5.7-3.5-5.1,6.6s-0.9,36.9,45,49.6S66.6,69.7,66.6,69.7z"/>
	<path class="st3" d="M6.3,40.8c1.1,0,2,0.6,2,0.6C37,61.2,66.6,69.7,66.6,69.7S87.2,100,63.2,100c-3.8,0-8.6-0.7-14.8-2.5
		C2.4,84.8,3.9,58,3.3,48C2.9,42,4.7,40.8,6.3,40.8 M6.3,37.6L6.3,37.6c-1.6,0-3,0.6-4.1,1.8c-1.6,1.8-2.3,4.6-2.1,8.8
		c0,0.6,0.1,1.2,0.1,1.9c0.3,5.7,0.8,15.3,7,25c3.4,5.3,8.2,10.1,14.2,14.1c6.9,4.6,15.7,8.5,26.1,11.3c6.2,1.7,11.4,2.6,15.7,2.6
		c3.3,0,6.1-0.5,8.3-1.6c2.3-1.1,4-2.7,5.1-4.7c2.3-4.4,1.7-10.7-1.8-18.8c-2.5-5.6-5.4-10-5.6-10.2l-0.6-0.9l-1.1-0.3
		c-0.1,0-7.4-2.1-18.1-6.6c-9.9-4.1-24.7-11.2-39.3-21.2L10,38.7H9.9C9.7,38.5,8.2,37.6,6.3,37.6L6.3,37.6L6.3,37.6L6.3,37.6
		L6.3,37.6z"/>
	<g class="st4">
		<path class="st5" d="M48.3,94.4c19.4,5.4,25.6,1.2,26.4-5.3c0.8,8.2-4.1,14.7-26.4,8.5C2.4,84.8,3.9,58,3.3,48
			c-0.1-1.2-0.1-2.1,0-3C3.9,55.2,2.7,81.8,48.3,94.4z"/>
	</g>
	
		<linearGradient id="SVGID_6_" gradientUnits="userSpaceOnUse" x1="-495.0728" y1="143.7018" x2="-436.2004" y2="143.7018" gradientTransform="matrix(-1 0 0 -1 -430.429 256)">
		<stop  offset="0.3879" style="stop-color:#6BB5F5"/>
		<stop  offset="0.9987" style="stop-color:#4499D7"/>
	</linearGradient>
	<path class="st10" d="M56.8,113.2c0,0-23.5-7.9-46.8-24.1c0,0-4.8-4-4.1,4.2c0.5,6.2,3.7,32.6,37.8,41.3
		C81.3,144.3,56.8,113.2,56.8,113.2z"/>
	<path class="st3" d="M7.7,88.1c1.1,0,2.3,1,2.3,1c23.4,16.2,46.8,24.1,46.8,24.1s18.4,23.3-1.1,23.3c-3,0-7-0.6-12-1.9
		C9.6,125.9,6.3,99.5,5.8,93.3C5.5,89.2,6.6,88.1,7.7,88.1 M7.7,85c-1.3,0-2.5,0.5-3.4,1.5C3,88,2.5,90.2,2.7,93.6
		c0.6,7.5,3,14.8,6.8,21.1c3.1,5.1,7.2,9.6,12.1,13.2c5.9,4.4,13.1,7.7,21.3,9.8c5.1,1.3,9.4,2,12.8,2c2.8,0,5.1-0.4,6.9-1.3
		c2-0.9,3.4-2.3,4.3-4.1c1.8-3.7,0.9-8.8-2.5-15.2c-2.3-4.3-5-7.7-5.1-7.9l-0.6-0.7l-0.9-0.3c-0.2-0.1-23.2-7.9-45.9-23.6
		C11.2,86.1,9.6,85,7.7,85L7.7,85L7.7,85L7.7,85z"/>
	<g class="st4">
		<path class="st5" d="M5.8,90.9c0.5,6.2,3.7,32.6,37.8,41.3c15.1,3.9,20.2,1.2,20.9-3.4c0.7,6-3.3,10.3-20.9,5.8
			c-34-8.7-37.3-35.1-37.8-41.3c-0.1-1-0.1-1.9,0-2.6C5.8,90.8,5.8,90.8,5.8,90.9z"/>
	</g>
	
		<linearGradient id="SVGID_7_" gradientUnits="userSpaceOnUse" x1="-505.0661" y1="100.1053" x2="-453.709" y2="100.1053" gradientTransform="matrix(-1 0 0 -1 -430.429 256)">
		<stop  offset="0.3879" style="stop-color:#6BB5F5"/>
		<stop  offset="0.9987" style="stop-color:#4499D7"/>
	</linearGradient>
	<path class="st11" d="M67,152.9c0,0-20.2-3.5-40.6-14.6c0,0-4.1-1.9-2.9,4.7c1,4.9,5.9,26.1,34.4,30.2
		C89.2,177.7,67,152.9,67,152.9z"/>
	<path class="st3" d="M25.2,138.1c0.6,0,1.2,0.2,1.2,0.2C46.8,149.4,67,152.9,67,152.9s18.7,20.9-2.4,20.9c-1.9,0-4.1-0.2-6.8-0.5
		c-28.4-4.1-33.4-25.2-34.4-30.2C22.7,138.8,24.1,138.1,25.2,138.1 M25.2,134.9c-1.5,0-2.9,0.6-3.8,1.7c-1.3,1.5-1.6,3.8-1,7
		c1.2,6.1,3.8,11.9,7.5,16.7c3,3.9,6.8,7.2,11.2,9.8c5.2,3.1,11.4,5.1,18.4,6.1c2.7,0.4,5.1,0.6,7.2,0.6c6.6,0,10.7-1.9,12.4-5.7
		c1.6-3.5,0.6-8.1-2.8-13.7c-2.3-3.7-4.8-6.6-5-6.7l-0.7-0.8l-1.1-0.2c-0.2,0-19.9-3.5-39.6-14.2l-0.1-0.1h-0.1
		C27.4,135.3,26.4,134.9,25.2,134.9L25.2,134.9L25.2,134.9z"/>
	<g class="st4">
		<path class="st5" d="M23.5,141c1,4.9,5.9,26.1,34.4,30.2c12,1.7,16.1-0.8,16.7-4.7c0.6,4.9-2.7,8.7-16.7,6.7
			C29.5,169.1,24.5,148,23.5,143c-0.3-1.4-0.3-2.4-0.2-3.1C23.4,140.2,23.4,140.6,23.5,141z"/>
	</g>
	
		<linearGradient id="SVGID_8_" gradientUnits="userSpaceOnUse" x1="-520.8765" y1="64.7723" x2="-473.9988" y2="64.7723" gradientTransform="matrix(-1 0 0 -1 -430.429 256)">
		<stop  offset="0.3879" style="stop-color:#6BB5F5"/>
		<stop  offset="0.9987" style="stop-color:#4499D7"/>
	</linearGradient>
	<path class="st12" d="M80.6,186.5c0,0-16.2-1.1-35-6.3c0,0-3.4-0.6-1.4,3.8c1.7,3.9,9.8,20.2,33.8,18.1
		C104.4,199.9,80.6,186.5,80.6,186.5z"/>
	<path class="st3" d="M45.3,180.1c0.2,0,0.4,0,0.4,0c18.7,5.2,35,6.3,35,6.3s23.8,13.4-2.7,15.7c-1.4,0.1-2.8,0.2-4.1,0.2
		c-20.8,0-28.1-14.7-29.7-18.3C42.6,180.5,44.5,180.1,45.3,180.1 M45.3,177c-1.7,0-3.2,0.8-4.1,2.1c-1,1.6-1,3.7,0.1,6.2
		c2,4.4,4.9,8.4,8.4,11.6c2.9,2.6,6.2,4.6,9.8,6c4.3,1.7,9.2,2.6,14.4,2.6c1.4,0,2.9-0.1,4.3-0.2c6-0.5,14-1.8,15.2-7.4
		c0.4-2-0.1-4-1.6-6.1c-0.9-1.3-2.3-2.7-4-4.1c-2.7-2.2-5.6-3.9-5.7-3.9l-0.6-0.3h-0.7c-0.2,0-16.2-1.2-34.4-6.2h-0.2H46
		C46,177,45.7,177,45.3,177L45.3,177z"/>
	<g class="st4">
		<path class="st5" d="M44.2,182.4c1.7,3.9,9.8,20.2,33.8,18.1c8.5-0.7,11.8-2.6,12.4-4.8c0.7,2.9-1.9,5.5-12.4,6.4
			c-24,2.1-32-14.3-33.8-18.1c-0.7-1.5-0.7-2.4-0.5-3C43.8,181.4,44,181.9,44.2,182.4z"/>
	</g>
</g>
<g>
	<circle class="st13" cx="128.1" cy="135.9" r="89"/>
	<g>
		<g>
			
				<linearGradient id="SVGID_9_" gradientUnits="userSpaceOnUse" x1="128.1" y1="37.9014" x2="128.1" y2="215.9014" gradientTransform="matrix(1 0 0 -1 0 256)">
				<stop  offset="0" style="stop-color:#CBE7F8"/>
				<stop  offset="1" style="stop-color:#EDF8FA"/>
			</linearGradient>
			<circle class="st14" cx="128.1" cy="129.1" r="89"/>
			
				<linearGradient id="SVGID_10_" gradientUnits="userSpaceOnUse" x1="128.1" y1="203.0014" x2="128.1" y2="50.8015" gradientTransform="matrix(1 0 0 -1 0 256)">
				<stop  offset="0" style="stop-color:#6BB5F5"/>
				<stop  offset="1" style="stop-color:#78BAF1"/>
			</linearGradient>
			<circle class="st15" cx="128.1" cy="129.1" r="76.1"/>
			<path class="st16" d="M128.1,56.8c41.4,0,75.1,33.1,76.1,74.2c0-0.6,0-1.2,0-1.9c0-42-34.1-76.1-76.1-76.1S52,87.1,52,129.1
				c0,0.6,0,1.3,0,1.9C53,89.9,86.7,56.8,128.1,56.8z"/>
			<circle class="st17" cx="128.1" cy="134.8" r="53.8"/>
			
				<linearGradient id="SVGID_11_" gradientUnits="userSpaceOnUse" x1="128.1" y1="180.7014" x2="128.1" y2="73.1014" gradientTransform="matrix(1 0 0 -1 0 256)">
				<stop  offset="0" style="stop-color:#DEEAF4"/>
				<stop  offset="1" style="stop-color:#BCDFF4"/>
			</linearGradient>
			<circle class="st18" cx="128.1" cy="129.1" r="53.8"/>
			
				<linearGradient id="SVGID_12_" gradientUnits="userSpaceOnUse" x1="74.3" y1="101.8014" x2="181.9" y2="101.8014" gradientTransform="matrix(1 0 0 -1 0 256)">
				<stop  offset="0" style="stop-color:#CBE7F8"/>
				<stop  offset="1" style="stop-color:#EDF8FA"/>
			</linearGradient>
			<path class="st19" d="M128.1,175.4c-28.5,0-51.8-22.1-53.7-50c-0.1,1.3-0.1,2.5-0.1,3.8c0,29.7,24.1,53.8,53.8,53.8
				s53.8-24.1,53.8-53.8c0-1.3,0-2.5-0.1-3.8C179.9,153.3,156.6,175.4,128.1,175.4z"/>
			<g class="st20">
				<path class="st21" d="M71.8,101c-0.5,0-1-0.1-1.4-0.4c-1.3-0.8-1.8-2.5-1-3.8c0.2-0.3,4.9-8.3,14-16.6
					c12.1-11,26.1-17.3,40.6-18.2c1.6-0.1,2.9,1.1,3,2.6s-1.1,2.9-2.6,3c-13.3,0.8-25.8,6.4-37,16.6c-8.5,7.7-13,15.3-13.1,15.4
					C73.7,100.5,72.8,101,71.8,101z"/>
			</g>
			<g class="st20">
				<path class="st21" d="M63.2,136.6L63.2,136.6c-1.7-0.1-2.9-1.4-2.8-2.9c0-0.4,0-1.1,0-2c-0.1-3.8-0.1-10.1,1.1-13.9
					c0.5-1.5,2.1-2.3,3.6-1.8s2.3,2.1,1.8,3.6c-1,2.9-0.9,8.8-0.8,12.1c0,1,0,1.8,0,2.3C65.9,135.4,64.7,136.6,63.2,136.6z"/>
			</g>
			<g>
				
					<linearGradient id="SVGID_13_" gradientUnits="userSpaceOnUse" x1="128.05" y1="153.4014" x2="128.05" y2="108.1014" gradientTransform="matrix(1 0 0 -1 0 256)">
					<stop  offset="0" style="stop-color:#6BB5F5"/>
					<stop  offset="1" style="stop-color:#78BAF1"/>
				</linearGradient>
				<polygon class="st22" points="104.3,119 120.3,117.8 128.4,102.6 136,117.3 151.8,119 140.4,131.8 143.1,147.9 128,140.3 
					113.7,147.9 116,130.7 				"/>
				<g class="st23">
					<polygon points="120.3,120.4 128.4,105.3 136,119.9 149.6,121.4 151.8,119 136,117.3 128.4,102.6 120.3,117.8 104.3,119 
						106.7,121.5 					"/>
					<polygon points="115.7,133.1 113.7,147.9 114.1,147.7 116,133.4 					"/>
					<polygon points="140.4,134.4 142.6,147.6 143.1,147.9 140.7,134 					"/>
				</g>
				<path class="st24" d="M128.4,105.6l7.6,14.6l15.8,1.7l-11.4,12.8l2.8,16.1l-15.1-7.6l-14.3,7.6l2.3-17.2l-11.7-11.7l16-1.2
					L128.4,105.6 M128.4,95.8c-2.1,0-4,5.3-4.9,7.1l-6.7,12.5l-12.9,1c-2.2,0.2-7.7,0.9-8.4,2.9s3.4,5.1,4.9,6.6l9.8,9.8l-1.9,14.4
					c-0.3,2.1-1.7,7.5,0,8.7c1.6,0.7,7.3-2.6,8.1-3l11.8-6.2l12.5,6.3c0.8,0.4,6.9,3.2,7.9,2.5c1.7-1.3,0.5-6.3,0.1-8.4l-2.3-13.4
					l9.6-10.8c1.4-1.6,5.6-4.9,4.8-6.9c-0.7-2-6.3-2.2-8.4-2.4l-12.9-1.4l-6.2-12C132.4,101.1,130.5,95.8,128.4,95.8L128.4,95.8
					L128.4,95.8z"/>
				<path class="st25" d="M128.4,103.3l7.6,14.6l15.8,1.7l-11.4,12.8l2.8,16.1l-15.1-7.6l-14.3,7.6l2.3-17.2l-11.7-11.7l16-1.2
					L128.4,103.3 M128.4,93.5c-2.1,0-4,5.3-4.9,7.1l-6.7,12.5l-12.9,1c-2.2,0.2-7.7,0.9-8.4,2.9c-0.8,2,3.4,5.1,4.9,6.6l9.8,9.8
					l-1.9,14.4c-0.3,2.1-1.7,7.5,0,8.7c1.6,0.7,7.3-2.6,8.1-3l11.8-6.2l12.5,6.3c0.8,0.4,6.9,3.2,7.9,2.5c1.7-1.3,0.5-6.3,0.1-8.4
					l-2.3-13.4l9.6-10.8c1.4-1.6,5.6-4.9,4.8-6.9c-0.7-2-6.3-2.2-8.4-2.4l-12.9-1.4l-6.2-12C132.4,98.9,130.5,93.5,128.4,93.5
					L128.4,93.5L128.4,93.5z"/>
			</g>
		</g>
		<path class="st26" d="M79.7,157.6h-1c0,3.6-2.9,6.5-6.5,6.5v1c3.6,0,6.5,2.9,6.5,6.5h1c0-3.6,2.9-6.5,6.5-6.5v-1
			C82.6,164.1,79.7,161.2,79.7,157.6z"/>
		<path class="st26" d="M157.3,76.6h-0.7c0,2.4-2,4.4-4.4,4.4v0.7c2.4,0,4.4,2,4.4,4.4h0.7c0-2.4,2-4.4,4.4-4.4V81
			C159.2,80.9,157.3,79,157.3,76.6z"/>
		<path class="st26" d="M167.4,173.7H167c0,1.4-1.2,2.6-2.6,2.6v0.4c1.4,0,2.6,1.2,2.6,2.6h0.4c0-1.4,1.2-2.6,2.6-2.6v-0.4
			C168.6,176.3,167.4,175.1,167.4,173.7z"/>
	</g>
</g>
</svg>
